<svg width="64" height="64" viewBox="0 0 64 64" fill="none" xmlns="http://www.w3.org/2000/svg">
<g id="%D8%AE%D8%B1%DB%8C%D8%AF_%D8%AE%D9%88%D8%AF%D8%B1%D9%88_%D8%B5%D9%81%D8%B12 1">
<g id="Group">
<path id="Vector" d="M46.4008 1.55957C46.9208 1.81957 47.5008 1.99957 47.9608 2.33957C48.9208 3.05957 49.4208 4.09957 49.4208 5.31957C49.4408 10.8396 49.4408 16.3596 49.4208 21.8796C49.4208 23.6796 48.2608 24.8396 46.3608 24.8996C44.1808 24.9596 35.7208 24.9196 33.5408 24.9396C32.6808 24.9396 31.7208 24.7196 30.9808 25.0396C30.2408 25.3596 29.7208 26.2396 29.1008 26.8796C28.9808 27.0196 28.8408 27.1596 28.7208 27.2796C28.0808 27.9196 27.4408 27.9196 26.8008 27.2796C26.2008 26.6596 25.5808 26.0396 25.0208 25.3996C24.7208 25.0596 24.4008 24.9396 23.9608 24.9396C13.2808 24.9596 22.2408 24.9596 11.5808 24.9396C11.0808 24.9396 10.5608 24.9196 10.0808 24.7996C8.54078 24.3796 7.44078 22.9396 7.44078 21.2596C7.42078 15.9396 7.42078 10.5996 7.44078 5.27957C7.44078 3.65957 8.48078 2.25957 9.94078 1.75957C10.1008 1.69957 10.2808 1.63957 10.4408 1.57957H46.4008V1.55957ZM27.7408 24.7396C28.2608 24.1796 28.7408 23.6996 29.1808 23.1796C29.6608 22.5796 30.2608 22.3796 31.0008 22.3996C33.9008 22.4196 43.1008 22.4196 46.0008 22.3996C46.9808 22.3996 47.0208 22.3196 47.0208 21.3396C47.0208 16.1396 47.0208 10.9396 47.0208 5.73957C47.0208 4.55957 46.6008 4.11957 45.5008 4.11957C29.6808 4.11957 27.1808 4.11957 11.3608 4.11957C10.2808 4.11957 9.86078 4.55957 9.86078 5.69957C9.86078 9.21957 9.86078 12.7196 9.86078 16.2396C9.86078 17.8396 9.86078 19.4596 9.86078 21.0596C9.86078 21.9196 10.3208 22.3796 11.1208 22.4196C11.3208 22.4196 11.5208 22.4196 11.7208 22.4196C22.4808 22.4196 13.6008 22.4196 24.3608 22.3996C25.2008 22.3996 25.8808 22.5996 26.4408 23.2996C26.8008 23.7796 27.2408 24.1996 27.7408 24.7396Z" fill="#ED1C24"/>
<g id="Group_2">
<path id="Vector_2" d="M20.1397 18.5997C20.1397 18.9397 19.6997 19.7197 19.0797 19.7197H14.2997C13.6797 19.7197 13.1797 18.9197 13.1797 18.5997V8.37973C13.1797 7.75973 13.8397 7.21973 14.4597 7.21973H18.9197C19.6597 7.21973 20.1197 7.95973 20.1197 8.37973V18.5997H20.1397ZM17.7997 17.7797V9.15973H15.4997V17.7797H17.7997Z" fill="#ED1C24"/>
<path id="Vector_3" d="M32.4391 19.7197H29.8591L27.7991 14.1997H27.4391V19.7197H25.0391V7.21973H27.4391V12.4397H27.7991L29.8991 7.21973H32.3991L29.7991 13.3397L32.4391 19.7197Z" fill="#ED1C24"/>
<path id="Vector_4" d="M43.1402 19.7197H40.8802V13.3197H40.7802L38.5802 19.7197H38.3802L36.1402 13.3197H36.0202V19.7197H33.6602V7.21973H36.2002L38.4402 13.6997H38.5602L40.7402 7.21973H43.1402V19.7197Z" fill="#ED1C24"/>
</g>
<g id="Group_3">
<path id="Vector_5" d="M20.9397 29.6593C21.6197 29.1993 21.6397 28.1593 20.9997 27.6393C20.7397 27.4393 20.4397 27.2993 20.1597 27.3793C17.1997 28.1993 14.7197 29.9593 12.7397 32.6193C11.1397 34.7993 9.65969 37.0793 8.11969 39.2993C7.95969 39.5393 7.71969 39.7193 7.43969 39.8193C4.87969 40.8393 2.97969 42.5793 1.87969 45.0793C1.47969 45.9793 1.27969 46.9593 1.01969 47.9393C0.899687 49.1593 0.779688 50.3393 0.679688 51.5593C0.959688 54.9593 2.79969 56.2793 5.41969 56.0993C5.95969 56.0593 6.49969 56.0993 7.01969 56.0993C7.13969 60.2393 10.1597 62.2993 12.8197 62.4393C14.3597 62.5193 15.7597 62.0793 16.9597 61.1193C18.5197 59.8593 19.2597 58.1793 19.2597 56.1193C19.5197 56.1193 19.7397 56.1193 19.9597 56.1193C22.1597 56.1193 24.3597 56.1193 26.5397 56.1193C27.0397 56.1193 27.5397 56.0393 27.7397 55.5593C27.8997 55.1993 27.9397 54.7193 27.8397 54.3593C27.6797 53.8593 27.1997 53.6593 26.6597 53.6593C24.1597 53.6593 21.6597 53.6593 19.1597 53.6593C18.7997 53.6593 18.5797 53.5793 18.3797 53.2393C15.9397 49.2193 10.3397 49.2193 7.85969 53.2393C7.73969 53.4393 7.43969 53.6193 7.19969 53.6193C6.37969 53.6593 5.53969 53.6393 4.71969 53.6393C3.83969 53.6193 3.35969 53.1593 3.35969 52.2793C3.33969 51.2993 3.35969 50.3193 3.35969 49.3593C3.37969 45.9393 5.45969 43.0793 8.67969 41.9593C9.13969 41.7993 9.53969 41.4993 9.81969 41.1193C11.3597 38.9393 12.8397 36.6993 14.3797 34.4993C16.0597 32.0793 18.1797 30.4993 20.7397 29.7593C20.7797 29.7393 20.8597 29.6993 20.9397 29.6593ZM13.1197 52.6793C15.1397 52.6793 16.7597 54.3193 16.7597 56.3193C16.7597 58.3393 15.1397 59.9793 13.1397 59.9793C11.0397 59.9993 9.31969 58.1993 9.45969 56.0793C9.57969 54.1993 11.2197 52.6793 13.1197 52.6793Z" fill="#2B3990"/>
<path id="Vector_6" d="M63.3405 49.8194C63.2805 45.1594 60.0605 41.0594 55.5405 39.8394C53.7605 39.3594 51.9605 39.5194 50.1805 39.4994C49.8605 39.4994 49.5605 39.3394 49.3605 39.0594C47.9005 36.8994 46.4805 34.7194 44.9405 32.6394C42.6005 29.4794 39.0805 27.4194 35.5405 26.9194C34.6205 26.7994 33.9205 27.7594 34.3205 28.6194V28.6394C34.5205 29.0594 34.9005 29.3594 35.3605 29.4194C38.6605 29.9194 41.3405 31.6594 43.3605 34.5994C44.8405 36.7594 46.3405 38.9194 47.8005 41.0994C48.2205 41.7194 48.7205 41.9994 49.4805 41.9594C50.5005 41.9194 51.5405 41.9194 52.5605 41.9394C54.7005 41.9794 56.8005 42.7194 58.4005 44.1594C61.4205 46.8794 60.9405 50.2794 60.9205 53.6394C59.7205 53.6394 58.5605 53.6194 57.4005 53.6394C57.0205 53.6394 56.8005 53.5394 56.5805 53.1994C54.1805 49.2394 48.5605 49.2194 46.1605 53.1794C45.9405 53.5394 45.7005 53.6594 45.3005 53.6394C42.8605 53.6194 21.8605 53.6194 19.4205 53.6394C18.5205 53.6394 17.9805 54.0994 17.9805 54.8594C17.9805 55.6194 18.5205 56.0794 19.4005 56.0794C21.6005 56.0794 42.3405 56.0794 44.5405 56.0794C44.7605 56.0794 44.9805 56.0794 45.2405 56.0794C45.2605 57.8794 45.8005 59.4194 47.1005 60.6794C48.1605 61.6994 49.5605 62.3194 51.0205 62.4194C52.5205 62.4994 53.8805 62.0794 55.0605 61.1594C56.7005 59.8794 57.4405 58.1794 57.4605 56.1594C57.5605 56.1394 57.6005 56.1194 57.6405 56.1194C59.0805 56.1194 60.5405 56.1194 61.9805 56.1194C62.7405 56.1194 63.3605 55.4994 63.3605 54.7194C63.3605 53.0794 63.3605 51.4594 63.3405 49.8194ZM51.5205 59.9994C49.4405 60.0994 47.7005 58.4194 47.7005 56.3594C47.7005 54.3394 49.3205 52.6994 51.3205 52.6994C53.3605 52.6794 55.0005 54.3394 55.0005 56.3994C54.9805 58.2794 53.4205 59.8994 51.5205 59.9994Z" fill="#2B3990"/>
<path id="Vector_7" d="M30.5011 41.9398C32.5611 41.9398 34.6011 41.9398 36.6611 41.9398C38.7811 41.9398 40.8811 41.9398 43.0011 41.9398C43.5411 41.9398 43.9611 41.7398 44.2011 41.2598C44.4411 40.7998 44.3611 40.3598 44.0611 39.9398C43.0211 38.4198 42.0011 36.8798 40.9011 35.3798C39.5611 33.5598 37.7811 32.2998 35.5411 31.9598C33.8811 31.6998 32.1411 31.7398 30.4411 31.6998C29.4411 31.6798 29.0011 32.1398 29.0011 33.1598C28.9811 35.5998 29.0011 38.0398 29.0011 40.4798C29.0211 41.5198 29.4611 41.9398 30.5011 41.9398ZM31.4811 34.2398C35.0611 33.3198 38.8811 35.4798 40.6811 39.4798C37.6211 39.4798 34.5611 39.4798 31.4811 39.4798C31.4811 37.6998 31.4811 35.9598 31.4811 34.2398Z" fill="#2B3990"/>
<path id="Vector_8" d="M26.5601 33.0396C26.5401 32.2396 26.1201 31.7396 25.4201 31.6996C21.6801 31.4596 18.6001 32.6596 16.4001 35.7996C15.4601 37.1396 14.5801 38.4796 13.6401 39.8196C13.3201 40.2996 13.1601 40.7596 13.4601 41.2996C13.7401 41.7996 14.2001 41.9396 14.7401 41.9396C16.4601 41.9196 18.2001 41.9396 19.9201 41.9396C21.6001 41.9396 23.3001 41.9396 24.9801 41.9396C26.1401 41.9396 26.5401 41.5396 26.5601 40.3596C26.5601 38.9796 26.5601 37.5996 26.5601 36.2196C26.5801 35.1596 26.5801 34.0996 26.5601 33.0396ZM24.1001 39.4596C21.7201 39.4596 19.3401 39.4596 16.9201 39.4596C18.4201 36.8996 20.0601 34.5396 23.3401 34.1596C23.4601 34.1396 23.5801 34.1396 23.7001 34.1396C23.8001 34.1396 23.9001 34.1396 24.0801 34.1396C24.1001 35.9396 24.1001 37.6796 24.1001 39.4596Z" fill="#2B3990"/>
<path id="Vector_9" d="M31.7984 46.8193C32.3784 46.7593 32.8184 46.3193 32.8584 45.7593C32.9184 45.1393 32.5984 44.5593 31.9984 44.4793C31.2984 44.3793 30.5784 44.3793 29.8984 44.4793C29.2984 44.5593 28.9784 45.1393 29.0384 45.7593C29.0984 46.3393 29.5184 46.7593 30.1184 46.8193C30.3984 46.8393 30.6784 46.8193 30.9584 46.8193C31.2384 46.8393 31.5184 46.8593 31.7984 46.8193Z" fill="#2B3990"/>
<path id="Vector_10" d="M13.1584 57.5592C13.8184 57.5392 14.3384 56.9792 14.3184 56.3192C14.2984 55.6592 13.7584 55.1192 13.0984 55.1392C12.4584 55.1392 11.8984 55.7192 11.8984 56.3592C11.8984 56.9992 12.4984 57.5792 13.1584 57.5592Z" fill="#2B3990"/>
<path id="Vector_11" d="M51.2812 55.1197C50.6212 55.1597 50.1212 55.7197 50.1412 56.3797C50.1612 57.0397 50.7212 57.5597 51.3812 57.5597C52.0412 57.5397 52.5612 56.9997 52.5612 56.3397C52.5412 55.6397 51.9612 55.0997 51.2812 55.1197Z" fill="#2B3990"/>
</g>
</g>
</g>
</svg>
