<svg xmlns="http://www.w3.org/2000/svg" width="64" height="64" fill="none" xmlns:v="https://vecta.io/nano"><g clip-path="url(#A)"><path d="M57.098 22.394c-.191-.789-.598-1.509-1.176-2.079a4.36 4.36 0 0 0-2.095-1.147l-6.737-1.826a1.49 1.49 0 0 1-.805-.542l-3.988-5.238c-1.381-1.832-3.032-2.301-5.726-2.277-4.13.03-7.933-.067-12.335 0-2.644.03-4.601.593-5.905 2.695l-3.119 4.982c-.048.077-.104.148-.168.212a1.15 1.15 0 0 1-.387.273l-1.634.744-1.657.755c-.836.376-1.544.988-2.037 1.761s-.751 1.672-.742 2.588c0 1.155-.091 2.317.051 3.466.286 2.287 1.998 3.87 4.291 3.87.206-.026.416-.01.616.048s.386.156.546.289c.177.183.315.401.404.64a5.2 5.2 0 0 0 1.97 2.311 5.41 5.41 0 0 0 3.2.866c1.121-.04 2.203-.421 3.101-1.093s1.57-1.602 1.925-2.666c.009-.059.03-.116.062-.167a.45.45 0 0 1 .285-.201.45.45 0 0 1 .178-.002h15.963a.43.43 0 0 1 .498.337c.361 1.105 1.063 2.068 2.004 2.751s2.074 1.05 3.237 1.05 2.296-.368 3.237-1.05 1.643-1.646 2.004-2.751c.108-.337.276-.337.546-.337.86.033 1.711-.19 2.445-.641s1.316-1.11 1.675-1.893a4.32 4.32 0 0 0 .401-1.92v-2.759c.006-.297-.029-.592-.105-.879-.01-.054-.01-.118-.024-.168zM19.459 32.772a3.58 3.58 0 0 1-3.267-2.176 3.42 3.42 0 0 1-.276-1.347 3.64 3.64 0 0 1 .098-.791c.147-.65.474-1.245.944-1.718s1.064-.802 1.714-.951a3.54 3.54 0 0 1 1.957.107c.629.219 1.184.612 1.599 1.133s.676 1.148.751 1.81-.039 1.332-.328 1.932-.742 1.107-1.307 1.461-1.218.541-1.884.541zm27.466 0a3.53 3.53 0 0 1-3.257-2.185 3.53 3.53 0 0 1 .771-3.845 3.53 3.53 0 0 1 3.847-.76 3.53 3.53 0 0 1 2.175 3.263 3.54 3.54 0 0 1-3.537 3.527zm8.296-6.316c-.026.54-.24 1.053-.606 1.451s-.859.654-1.395.726c-.758.101-.775.081-.916-.674 0-.088-.054-.232-.081-.32a5.58 5.58 0 0 0-5.565-3.901 5.52 5.52 0 0 0-5.16 4.467c-.071.384-.192.465-.559.462H25.981c-.337 0-.724.084-.97-.064-.179-.111-.148-.542-.229-.829a5.53 5.53 0 0 0-1.402-2.404c-.665-.669-1.49-1.156-2.396-1.416s-1.864-.284-2.782-.069a5.53 5.53 0 0 0-2.463 1.296c-.797.719-1.366 1.656-1.637 2.695a1.84 1.84 0 0 1-.219.63c-.125.162-.337.158-.825.155-.656-.008-1.283-.273-1.745-.739s-.724-1.094-.727-1.75v-2.934a2.46 2.46 0 0 1 1.583-2.462l1.034-.472 2.048-.936.62-.28a1.8 1.8 0 0 0 .835-.731l3.17-5.11a3.86 3.86 0 0 1 3.675-2.048c2.264.04 4.527 0 6.791 0h6.983a4.09 4.09 0 0 1 2.015.42c.625.309 1.16.774 1.555 1.348 1.347 1.846 2.776 3.651 4.16 5.477a1.64 1.64 0 0 0 .953.647c.903.226 1.799.488 2.695.738l4.793 1.32c.481.109.913.373 1.229.752s.499.851.52 1.343a60.07 60.07 0 0 1-.02 3.214z" fill="#ed1c24"/><g fill="#2b3990"><path d="M11.719 4.139l.253 3.234.115 1.347.307 3.705c.015.18.073.353.169.506s.227.281.382.373.33.146.51.157a1.14 1.14 0 0 0 .525-.093l.128-.057a1.13 1.13 0 0 0 .674-1.125l-.384-4.618c-.003-.027-.003-.054 0-.081l-.212-2.695-.216-2.732c-.044-.674-.256-1.051-.707-1.297a1.12 1.12 0 0 0-.532-.131H1.553a1.11 1.11 0 0 0-.59.166 1.42 1.42 0 0 0-.455.465 1.09 1.09 0 0 0-.172.583 1.1 1.1 0 0 0 .337.792c.337.317.808.458 1.509.445l5.565-.027h2.712c.798.003 1.216.367 1.26 1.085zm50.226 4.619h-3.931-11.853a1.21 1.21 0 0 0 0 2.416h13.676a1.27 1.27 0 0 1 .977.337 1.28 1.28 0 0 1 .245.495c.045.181.05.369.015.552l-.613 8.421-.465 6.461-.623 8.717a1.11 1.11 0 0 1-.367.822 1.01 1.01 0 0 1-.819.192h-6.515-33.438-.088-2.429a7.09 7.09 0 0 0-2.358.448 7.26 7.26 0 0 0-3.573 2.697c-.877 1.253-1.338 2.75-1.314 4.279a7.41 7.41 0 0 0 5.053 6.825 9.25 9.25 0 0 0 2.159.36h44.699a1.18 1.18 0 0 0 .691-.216l.067-.047a1.13 1.13 0 0 0 .421-1.398c-.145-.364-.391-.755-1.512-.755H16.32a9.54 9.54 0 0 1-1.219-.071 4.79 4.79 0 0 1-3.419-2.136 4.84 4.84 0 0 1-.596-4.042c.674-2.206 2.537-3.523 5.026-3.523h43.143 1.128a1.2 1.2 0 0 0 .48-.075 1.22 1.22 0 0 0 .411-.259 1.19 1.19 0 0 0 .275-.401 1.22 1.22 0 0 0 .094-.477l.842-11.682.394-5.548.761-10.55c.051-.717-.04-1.192-.286-1.455s-.701-.387-1.408-.387zM20.029 52.772c-.232-.03-.466-.044-.701-.044a5.41 5.41 0 0 0-2.226.484 5.4 5.4 0 0 0-1.829 1.357 5.41 5.41 0 0 0-1.108 1.99c-.224.735-.288 1.508-.19 2.27a5.39 5.39 0 0 0 5.352 4.692 5.41 5.41 0 0 0 2.226-.484 5.4 5.4 0 0 0 1.829-1.357 5.42 5.42 0 0 0 1.108-1.99 5.41 5.41 0 0 0 .19-2.27c-.161-1.176-.703-2.268-1.543-3.107s-1.932-1.381-3.108-1.541zm2.664 5.932a3.4 3.4 0 0 1-3.368 2.833 3.42 3.42 0 0 1-3.369-3.992 3.42 3.42 0 0 1 3.948-2.789 3.42 3.42 0 0 1 2.789 3.948zm24.364-5.932a5.47 5.47 0 0 0-.701-.044 5.4 5.4 0 0 0-2.227.483c-.7.318-1.323.78-1.83 1.357s-.885 1.256-1.109 1.99-.289 1.509-.19 2.27a5.39 5.39 0 0 0 5.352 4.692 5.37 5.37 0 0 0 2.229-.478 5.39 5.39 0 0 0 3.123-5.622c-.161-1.176-.703-2.267-1.542-3.106s-1.93-1.381-3.106-1.542zm2.661 5.932a3.4 3.4 0 0 1-3.368 2.833 3.42 3.42 0 0 1-2.611-1.214 3.4 3.4 0 0 1-.685-1.305 3.42 3.42 0 0 1-.072-1.472c.106-.617.38-1.192.791-1.663s.944-.821 1.54-1.01a3.41 3.41 0 0 1 1.841-.062 3.42 3.42 0 0 1 1.605.903c.39.384.681.857.848 1.378s.206 1.075.112 1.614z"/></g></g><defs><clipPath id="A"><path fill="#fff" d="M0 0h64v64H0z"/></clipPath></defs></svg>