<svg xmlns="http://www.w3.org/2000/svg" width="64" height="64" fill="none" xmlns:v="https://vecta.io/nano"><path d="M26.274 13.197v7.852h-1.011v-7.852h1.011zm1.761.105a10.58 10.58 0 0 1 1.944-.165c1.081 0 1.782.199 2.27.643a1.94 1.94 0 0 1 .616 1.489 2.06 2.06 0 0 1-1.479 2.021v.034c.606.212.967.771 1.155 1.586a12.73 12.73 0 0 0 .603 2.156H32.1a10.08 10.08 0 0 1-.522-1.876c-.236-1.085-.654-1.492-1.573-1.526h-.957v3.402h-1.011l-.003-7.764zm1.011 3.574h1.038c1.081 0 1.772-.593 1.772-1.489 0-1.011-.734-1.459-1.809-1.469-.339-.011-.679.021-1.011.094l.01 2.863zm5.258-3.574a10.57 10.57 0 0 1 1.944-.165c1.085 0 1.782.199 2.274.643a1.95 1.95 0 0 1 .616 1.489 2.06 2.06 0 0 1-1.479 2.021v.034c.606.212.967.771 1.152 1.586a12.69 12.69 0 0 0 .606 2.156H38.37c-.234-.607-.41-1.236-.525-1.876-.233-1.085-.654-1.492-1.573-1.526h-.953v3.402h-1.011l-.003-7.764zm1.011 3.574h1.034c1.085 0 1.772-.593 1.772-1.489 0-1.011-.734-1.459-1.805-1.469-.339-.011-.679.021-1.011.094l.01 2.863z" fill="#ed1c24"/><path d="M33.873.043c.923.276 1.886.337 2.816.593a17.07 17.07 0 0 1 12.436 14.248c1.206 9.179-5.194 17.731-14.292 19.096a17.11 17.11 0 0 1-19.536-14.551C13.982 10.391 20.386 1.724 29.45.269c.31-.051.657 0 .926-.226h3.496zm13.524 17.075c.005-3.004-.881-5.943-2.546-8.443s-4.035-4.451-6.809-5.605-5.828-1.458-8.775-.876a15.18 15.18 0 0 0-11.946 11.923 15.19 15.19 0 0 0 6.449 15.597 15.19 15.19 0 0 0 8.438 2.563c4.022-.002 7.88-1.598 10.727-4.44s4.451-6.696 4.461-10.718zm5.534 20.332l-2.142-2.291-1.711-1.816c-.118-.125-.209-.337-.434-.091l-3.971 4.234.569.044a.93.93 0 0 1 .672.298.93.93 0 0 1 .195.321c.043.119.06.245.053.371v6.552c.009.131-.009.262-.054.385a.95.95 0 0 1-.524.552c-.121.051-.251.076-.382.074a.97.97 0 0 1-.376-.1c-.117-.058-.221-.14-.306-.24s-.148-.216-.187-.341a.97.97 0 0 1-.037-.387v-5.053c0-.428-.098-.606-.549-.559-.337.037-.704 0-1.058 0-.468 0-.869-.084-1.088-.556s.02-.872.337-1.223l4.578-4.861 1.499-1.59c.509-.522 1.041-.579 1.597 0l6.161 6.538a.99.99 0 0 1 .314.527c.046.205.026.419-.058.611a.93.93 0 0 1-.97.542h-1.371c-.273 0-.381.081-.337.337a3.81 3.81 0 0 1 0 .438v22.403c0 1.095-.266 1.347-1.347 1.347h-6.498c-.889 0-1.216-.31-1.216-1.193V49.125c0-.775.307-1.166.893-1.193s.983.371.987 1.152v5.619 6.801c0 .428.091.563.536.556h4.18c.472 0 .616-.094.616-.6V44.426v-5.272c-.027-1.364.067-1.482 1.432-1.704zM27.685 54.34v-8.421c0-.428-.101-.6-.549-.552-.371.037-.748 0-1.122 0a.96.96 0 0 1-.595-.106c-.182-.098-.328-.252-.415-.44-.226-.478-.02-.839.3-1.176l4.147-4.406 1.964-2.088c.563-.586 1.048-.596 1.6 0l6.157 6.535a1.01 1.01 0 0 1 .276 1.135c-.085.19-.23.347-.412.448a.96.96 0 0 1-.598.111c-.536 0-1.256-.182-1.56.091s-.111 1.054-.111 1.607v15.529c0 1.088-.266 1.347-1.347 1.347h-6.521c-.883 0-1.209-.313-1.209-1.196l-.003-8.418zm.401-10.887c1.364.168 1.479.303 1.479 1.61v16.465c0 .472.114.589.583.579h4.177c.482 0 .573-.125.569-.579V50.799v-6.174c0-.734.337-1.061 1.048-1.115.125 0 .28.064.394-.098L32.472 39.3c-.131-.142-.236-.276-.445-.057l-3.941 4.211zm-8.28 6.494l-3.995-4.241c-.104-.115-.195-.212-.337-.047l-3.985 4.244c1.384.165 1.489.29 1.489 1.661v3.432c0 .738-.337 1.169-.909 1.189s-.963-.438-.97-1.192v-2.745c0-.337-.101-.431-.421-.411-.434.024-.872 0-1.31 0a.96.96 0 0 1-.96-.559.9.9 0 0 1 .212-1.081l6.289-6.673a.91.91 0 0 1 1.424 0l6.326 6.737c.131.135.219.306.252.491s.01.376-.066.548-.202.317-.361.417-.345.15-.533.144a10.24 10.24 0 0 1-1.246 0c-.498-.061-.566.148-.562.586v10.169c0 1.098-.263 1.368-1.347 1.368h-6.42c-1.011 0-1.287-.293-1.29-1.307v-3.432c0-.751.337-1.142.936-1.145s.933.384.943 1.135v2.496c0 .3.077.387.381.384H17.9c.465 0 .374-.263.374-.515V51.413c-.003-1.199.209-1.422 1.533-1.465z" fill="#2b3990"/><path d="M7.963 16.506h2.614c.63 0 1.037.374 1.058.906.001.136-.027.27-.082.394s-.135.235-.235.326-.219.16-.348.203a.95.95 0 0 1-.4.043H5.275a.92.92 0 0 1-1.011-.943c0-.556.381-.92 1.011-.926l2.688-.003zm48.121 0h2.553c.697 0 1.085.337 1.095.913s-.384.957-1.054.96h-5.231c-.657 0-1.088-.401-1.081-.95s.431-.923 1.102-.923h2.617zm-45.665-8.99c.755.283 1.684.499 2.476 1.051.16.124.267.304.299.503a.79.79 0 0 1-.127.571.81.81 0 0 1-.98.482c-.79-.257-1.564-.562-2.317-.913-.178-.095-.315-.252-.385-.441s-.068-.398.005-.586c.108-.394.458-.653 1.031-.667zm1.707 17.232c.573 0 .899.232 1.01.674a.84.84 0 0 1-.445 1.058 21.44 21.44 0 0 1-2.193.862.83.83 0 0 1-1.038-.482.81.81 0 0 1 .229-1.115 12.46 12.46 0 0 1 2.435-.997zm42.506 1.684a.9.9 0 0 1-.073.41.88.88 0 0 1-.251.332.91.91 0 0 1-.374.183c-.137.031-.28.029-.416-.006a17.72 17.72 0 0 1-2.193-.859c-.198-.107-.351-.284-.428-.496s-.074-.445.009-.655.24-.382.441-.484a.92.92 0 0 1 .651-.069c.724.236 1.432.539 2.132.839.156.066.288.179.378.323s.133.312.124.482zm-2.805-16.266c-.532-.064-.852-.273-.963-.701-.072-.197-.066-.414.015-.608s.232-.349.423-.437a21.37 21.37 0 0 1 2.19-.859.82.82 0 0 1 1.041.468c.11.169.153.373.12.572s-.14.378-.299.502c-.795.536-1.728.748-2.526 1.061z" fill="#ed1c24"/><path d="M44.568 17.128c-.017 6.262-4.945 11.688-10.991 12.261a12.42 12.42 0 0 1-13.531-10.24 12.18 12.18 0 0 1 1.115-7.522c.394-.805.879-1.068 1.438-.798s.65.822.263 1.614c-.99 1.979-1.326 4.222-.962 6.405s1.412 4.194 2.991 5.744 3.61 2.56 5.799 2.884 4.425-.054 6.386-1.081 3.546-2.648 4.527-4.632 1.309-4.227.935-6.409-1.43-4.188-3.016-5.732-3.62-2.545-5.811-2.86c-1.464-.226-2.959-.132-4.383.275s-2.743 1.118-3.866 2.083l-.189.165c-.522.411-1.085.394-1.438-.04s-.27-.943.206-1.371a12.01 12.01 0 0 1 4.46-2.536c7.912-2.523 16.088 3.476 16.067 11.789z" fill="#2b3990"/></svg>