<svg xmlns="http://www.w3.org/2000/svg" width="64" height="64" fill="none" xmlns:v="https://vecta.io/nano"><g clip-path="url(#A)"><g fill="#2b3990"><path d="M63.461 15.889V14.43a4.55 4.55 0 0 0-1.374-3.335L57.64 6.643l-.047-.047-5.1-5.11A5.83 5.83 0 0 0 50.809.408l-.579-.29-.04-.017H23.58l-.05.057c-.071.084-.165.094-.32.101a1.22 1.22 0 0 0-.283.04A4.72 4.72 0 0 0 20.5 1.991c-.607.81-.937 1.793-.941 2.805l-.02 9.896v2.385a1.27 1.27 0 0 0 .337.926 1.01 1.01 0 0 0 .751.29c.674 0 1.061-.462 1.061-1.226v-7.84-3.941c0-2.021.984-3.032 3.005-3.032h24.081a3.23 3.23 0 0 1 .62.03l.108.027.03.108a3.4 3.4 0 0 1 .047.613v2.206 5.053c0 2.392 1.331 3.705 3.729 3.705h1.644l5.861-.017a.67.67 0 0 1 .387.067l.047.047a.76.76 0 0 1 .067.398v7.7 2.53 8.667l.03 25.317a3.01 3.01 0 0 1-.822 2.203 3.18 3.18 0 0 1-2.254.846l-23.579-.027h-9.94c-2.048 0-3.031-1.011-3.031-3.058v-.199-.613a1.01 1.01 0 0 0-.977-1.041 1.01 1.01 0 0 0-.751.196 1.01 1.01 0 0 0-.391.67 5.02 5.02 0 0 0-.029 2.264c.163.747.494 1.447.968 2.047a4.91 4.91 0 0 0 1.721 1.389c.672.326 1.409.495 2.156.494h16.936 17.314c2.789 0 4.813-2.105 4.813-5.006V15.889h-.017zm-3.783-4.042h-3.655-2.93c-.859 0-1.347-.441-1.347-1.229V5.595 3.844l.317.293c1.684 1.539 5.969 5.918 7.33 7.411l.286.3zM27.133 25.394a13 13 0 0 0-4.271-.573 13.13 13.13 0 0 0-2.611.337 13.46 13.46 0 0 0-4.083 1.715c-1.621 1.008-3.006 2.354-4.059 3.946a13.26 13.26 0 0 0-2.044 5.28c-.633 4.173.482 7.912 3.321 11.116a.42.42 0 0 1 .124.525c-.029.058-.072.109-.124.149a4.72 4.72 0 0 0-.515.589.48.48 0 0 1-.337.229.51.51 0 0 1-.206-.047.5.5 0 0 1-.168-.128c-.187-.182-.409-.323-.653-.415a1.88 1.88 0 0 0-.765-.117c-.261.014-.515.082-.747.2a1.89 1.89 0 0 0-.604.484l-1.307 1.479-7.023 7.98c-.206.261-.362.558-.461.876l-.061.158.051.812a3.97 3.97 0 0 0 1.122 1.317c.428.354.876.748 1.411 1.24s.97.852 1.61.957l.758-.047c.568-.326 1.06-.767 1.445-1.297l.28-.337 2.287-2.607 5.076-5.75a2.16 2.16 0 0 0 .586-1.684 1.79 1.79 0 0 0-.728-1.253c-.049-.03-.091-.071-.123-.118s-.055-.101-.065-.158a.43.43 0 0 1 .035-.173.42.42 0 0 1 .103-.144 2.79 2.79 0 0 0 .236-.293 1.29 1.29 0 0 1 .62-.556c.28-.078.525.131.761.337a2.14 2.14 0 0 0 .283.219 13.36 13.36 0 0 0 19.497-6.713 13.51 13.51 0 0 0 .573-1.991c.034-.172.074-.337.104-.522.552-3.211-.092-6.513-1.811-9.281a13.31 13.31 0 0 0-7.516-5.738zM9.954 55.501l-3.732 4.244-1.061 1.223-.104.111-.152.165-.162-.115-.098-.071-.488-.431a42.86 42.86 0 0 0-1.118-.973c-.04-.028-.073-.065-.096-.109s-.035-.092-.035-.141.012-.097.035-.141.056-.081.096-.109l.027-.03.909-1.031 3.877-4.419c.028-.051.068-.094.117-.126s.105-.051.163-.056.116.004.17.027a.36.36 0 0 1 .137.104 51.59 51.59 0 0 0 1.485 1.31.38.38 0 0 1 .118.121c.03.049.05.102.057.159-.004.055-.02.109-.045.158s-.061.093-.103.128h.003zm2.776-3.163l-.118.131-.724.829a.41.41 0 0 1-.27.172c-.054-.001-.107-.012-.156-.034a.4.4 0 0 1-.13-.094l-1.516-1.347a.41.41 0 0 1-.168-.276c.001-.054.014-.108.036-.157a.4.4 0 0 1 .095-.13c.202-.215.394-.438.589-.674l.259-.3.091-.094.148-.152.162.114a1.18 1.18 0 0 1 .094.071l.488.465c.367.337.734.647 1.108.967.036.028.067.063.09.103a.33.33 0 0 1 .042.13c0 .052-.012.104-.033.151s-.053.09-.091.125h.003zm21.474-11.419a11.27 11.27 0 0 1-10.142 8.512h-.057a11.28 11.28 0 0 1-11.355-7.512 11.31 11.31 0 0 1-.603-2.961 11.18 11.18 0 0 1 2.775-8.178l.02-.024a11.2 11.2 0 0 1 6.552-3.651 11.74 11.74 0 0 1 1.149-.135 11.27 11.27 0 0 1 11.658 13.949h.003zM23.01 29.791a1.28 1.28 0 0 0-.371 0h-.168a8.11 8.11 0 0 0-3.645 1.24l-.148.128c-.105.075-.218.138-.337.189-.979.699-1.797 1.6-2.397 2.643a8.39 8.39 0 0 0-1.083 3.4 11.16 11.16 0 0 0-.037 1.199c-.004.167.026.334.088.49s.155.297.272.416a1.01 1.01 0 0 0 .758.263c.637-.03 1.037-.519 1.011-1.24a6.36 6.36 0 0 1 5.952-6.639c.258-.018.5-.131.678-.318s.28-.434.285-.692a1.07 1.07 0 0 0-.859-1.078z"/><path d="M18.351 31.35a1.8 1.8 0 0 0 .337-.189c.054-.04.101-.088.148-.128l-.478.317h-.007z"/></g><path d="M59.621 34.819c0-.054 0-.114-.027-.162a4.38 4.38 0 0 0-3.271-3.23l-4.224-1.152-2.341-.626-.135-.037c-.336-.09-.631-.291-.839-.569L44.8 23.824c-1.381-1.832-3.032-2.301-5.726-2.28l-12.662.104a1.01 1.01 0 0 0-.846.438c-.017.023-.03.048-.04.074-.06.12-.093.252-.097.385a.93.93 0 0 0 .074.39c.052.123.131.234.23.324a.93.93 0 0 0 .345.197c.081.022.165.032.249.03l6.508-.02h6.979a4.08 4.08 0 0 1 3.571 1.768l4.16 5.477c.232.322.573.549.96.64l1.246.337 1.448.401.896.246 3.894 1.078a2.25 2.25 0 0 1 1.728 2.078v3.227c-.027.543-.244 1.06-.613 1.459s-.868.655-1.408.724c-.758.101-.775.081-.92-.674a3.61 3.61 0 0 0-.077-.317 5.59 5.59 0 0 0-4.948-3.897h-.62a5.53 5.53 0 0 0-5.144 4.473c-.071.384-.192.462-.559.462h-4.258a1.06 1.06 0 0 0-.97.744v.02c-.038.144-.043.295-.013.441a.98.98 0 0 0 .182.402c.091.118.207.214.341.281s.281.101.43.102h4.53a.43.43 0 0 1 .502.337 5.51 5.51 0 0 0 5.241 3.8h.337a5.48 5.48 0 0 0 4.908-3.783c.111-.337.276-.337.549-.337a4.35 4.35 0 0 0 4.116-2.533 3.88 3.88 0 0 0 .407-1.725v-2.995a3.59 3.59 0 0 0-.111-.886zm-7.528 8.97c-.599.697-1.443 1.136-2.358 1.226h-.337c-.625-.002-1.239-.169-1.779-.485s-.986-.769-1.294-1.313-.466-1.16-.459-1.786.18-1.238.5-1.775c.281-.504.696-.92 1.199-1.203.659-.38 1.418-.548 2.176-.482.872.093 1.679.502 2.269 1.15s.923 1.49.934 2.366c.003.845-.3 1.662-.852 2.301z" fill="#ed1c24"/></g><defs><clipPath id="A"><path fill="#fff" d="M0 0h64v64H0z"/></clipPath></defs></svg>