<svg width="64" height="64" viewBox="0 0 64 64" fill="none" xmlns="http://www.w3.org/2000/svg">
<g id="Smart_car_selection_assistant_Icon-01-01 1" clip-path="url(#clip0_1330_13970)">
<path id="Vector" d="M35.88 54.1599L31.88 54.0799H28.32C27.9641 54.0801 27.6118 54.0089 27.2839 53.8708C26.9559 53.7326 26.6589 53.5302 26.4104 53.2755C26.1619 53.0207 25.9669 52.7188 25.8368 52.3876C25.7068 52.0563 25.6444 51.7024 25.6533 51.3466C25.7342 48.5076 24.8401 45.7266 23.12 43.4666C22.7949 43.0484 22.4477 42.6478 22.08 42.2666C21.5675 41.738 21.0951 41.172 20.6666 40.5733C19.4659 38.8713 18.6628 36.9214 18.3166 34.8675C17.9704 32.8136 18.0901 30.7081 18.6666 28.7066C19.531 25.399 21.6425 22.5545 24.5584 20.7697C27.4742 18.9849 30.9678 18.3984 34.3066 19.1333C36.9422 19.5435 39.3941 20.7347 41.3456 22.5531C43.297 24.3714 44.6582 26.7332 45.2533 29.3333C45.5036 30.2524 45.6556 31.1954 45.7066 32.1466C45.7241 32.3844 45.8179 32.6102 45.974 32.7904C46.1302 32.9706 46.3404 33.0955 46.5733 33.1466C46.7681 33.1887 46.9698 33.1865 47.1636 33.1404C47.3574 33.0942 47.5384 33.0052 47.6933 32.8799C47.8337 32.7696 47.9456 32.6274 48.0198 32.465C48.0941 32.3027 48.1284 32.1249 48.12 31.9466C47.949 28.7531 46.8457 25.6798 44.9466 23.1066C43.6345 21.3123 41.9661 19.8082 40.0457 18.6886C38.1254 17.5689 35.9945 16.8579 33.7866 16.5999C31.4292 16.3541 29.0463 16.6043 26.7913 17.3345C24.5364 18.0647 22.4592 19.2588 20.6933 20.8399C19.1363 22.1646 17.8679 23.7948 16.9665 25.6296C16.0652 27.4644 15.5501 29.4647 15.4533 31.5066C15.3745 33.7965 15.759 36.0788 16.5838 38.2164C17.4087 40.3541 18.6568 42.3031 20.2533 43.9466C21.2185 44.9207 21.978 46.079 22.4865 47.3525C22.995 48.6261 23.2422 49.9889 23.2133 51.3599C23.1111 52.3572 23.3871 53.3565 23.9866 54.1599C24.4263 54.6432 24.7536 55.2179 24.9449 55.8426C25.1363 56.4673 25.1869 57.1266 25.0933 57.7733V58.8799C25.0398 60.0018 25.3716 61.1081 26.0338 62.0153C26.696 62.9224 27.6485 63.5757 28.7333 63.8666C28.9095 63.8994 29.0773 63.9675 29.2266 64.0666H34.4L34.6933 63.9599C35.6015 63.8048 36.4465 63.3937 37.1291 62.7749C37.8117 62.156 38.3034 61.3553 38.5466 60.4666C38.7295 59.4014 38.801 58.32 38.76 57.2399C38.776 56.8479 38.714 56.4566 38.5774 56.0887C38.4408 55.7209 38.2325 55.3839 37.9645 55.0973C37.6965 54.8107 37.3742 54.5802 37.0164 54.4193C36.6585 54.2584 36.2722 54.1702 35.88 54.1599ZM36.3466 57.6133C36.3333 57.8664 36.3333 58.1201 36.3466 58.3733C36.3466 58.6133 36.3466 58.8666 36.3466 59.1199C36.32 59.7666 36.0493 60.3792 35.5892 60.8344C35.1291 61.2896 34.5136 61.5536 33.8666 61.5733H31.9333H30C29.6037 61.5564 29.2167 61.4476 28.8696 61.2556C28.5225 61.0635 28.2248 60.7934 28 60.4666C27.7246 60.0746 27.5672 59.6119 27.5466 59.1333C27.5333 58.8935 27.5333 58.6531 27.5466 58.4133C27.5466 58.1466 27.5466 57.8933 27.5466 57.6266C27.5273 57.4808 27.5399 57.3325 27.5837 57.192C27.6274 57.0516 27.7012 56.9223 27.8 56.8133C27.9125 56.7096 28.0451 56.6301 28.1896 56.5796C28.3341 56.5292 28.4873 56.5089 28.64 56.5199H35.3066C35.4595 56.5055 35.6137 56.5242 35.7587 56.5748C35.9037 56.6255 36.036 56.7068 36.1466 56.8133C36.2342 56.9252 36.2972 57.0542 36.3317 57.192C36.3662 57.3298 36.3712 57.4734 36.3466 57.6133Z" fill="#2B3990"/>
<path id="Vector_2" d="M62.3734 52.3467L59.6267 50.3333C58.4 49.44 57.1734 48.56 56.5734 48.1067L55.88 47.6L57.0934 46.9733L58.52 46.3333C59.2184 46.0152 59.8105 45.5028 60.2256 44.8574C60.6408 44.212 60.8616 43.4608 60.8616 42.6933C60.8616 41.9259 60.6408 41.1747 60.2256 40.5293C59.8105 39.8839 59.2184 39.3715 58.52 39.0533L57.9334 38.8667L46.8 36.3733L40.0267 34.8667C39.7245 34.7998 39.4162 34.7641 39.1067 34.76C38.2577 34.7632 37.435 35.0547 36.7734 35.5867C36.0518 36.139 35.5398 36.9206 35.3217 37.8028C35.1036 38.6849 35.1923 39.615 35.5734 40.44L40.2534 50.9067L43.1867 57.3333C43.2256 57.4336 43.2701 57.5315 43.32 57.6267C43.4808 57.9138 43.6731 58.1822 43.8934 58.4267C44.4841 59.1322 45.3064 59.6047 46.2134 59.76H46.36C46.5571 59.8054 46.758 59.8322 46.96 59.84H47.0934C48.0529 59.8305 48.971 59.448 49.6534 58.7733C49.966 58.483 50.2168 58.1327 50.3909 57.7432C50.565 57.3538 50.6588 56.9332 50.6667 56.5067C50.6675 56.0123 50.6942 55.5183 50.7467 55.0267L50.84 53.6933L51.5734 54.2533L54.7867 56.6533L57.5467 58.6667C57.9705 58.999 58.457 59.2424 58.977 59.3821C59.4971 59.5219 60.0401 59.5552 60.5734 59.48C61.6153 59.3372 62.559 58.7898 63.2003 57.9564C63.8417 57.1229 64.129 56.0704 64 55.0267C63.9233 54.4934 63.7397 53.9812 63.4602 53.5207C63.1807 53.0602 62.811 52.6608 62.3734 52.3467ZM61.3334 56.8133C61.2272 56.9178 61.1111 57.0116 60.9867 57.0933C60.8722 57.1619 60.7517 57.2199 60.6267 57.2667H60.5334C60.249 57.3422 59.9507 57.349 59.6632 57.2864C59.3757 57.2238 59.1072 57.0936 58.88 56.9067C58.0134 56.2267 56.64 55.2 55.1867 54.12L51.9067 51.7333L50.6667 50.8C50.5343 50.6716 50.3737 50.5758 50.1978 50.5202C50.0219 50.4647 49.8355 50.4509 49.6534 50.48C49.5651 50.4648 49.4749 50.4648 49.3867 50.48C49.1713 50.5721 48.9908 50.7302 48.871 50.9315C48.7512 51.1327 48.6983 51.3668 48.72 51.6L48.4267 56.3333C48.4128 56.6371 48.2955 56.9271 48.0942 57.155C47.8929 57.383 47.6198 57.5353 47.32 57.5867C47.2048 57.5998 47.0885 57.5998 46.9734 57.5867C46.6443 57.571 46.3238 57.4769 46.0386 57.3122C45.7533 57.1476 45.5115 56.9171 45.3334 56.64C45.3334 56.64 45.24 56.4933 45.1867 56.3867L37.6134 39.4533C37.4792 39.1489 37.4355 38.8122 37.4876 38.4836C37.5396 38.1549 37.6851 37.8482 37.9067 37.6C38.11 37.3402 38.3854 37.146 38.6984 37.0417C39.0114 36.9374 39.3481 36.9275 39.6667 37.0133L57.7734 41.0933C58.077 41.2569 58.3276 41.5037 58.4959 41.8047C58.6642 42.1057 58.7432 42.4484 58.7236 42.7927C58.704 43.137 58.5867 43.4686 58.3853 43.7486C58.1839 44.0285 57.9069 44.2453 57.5867 44.3733L54.3867 45.8L53.3734 46.2533C53.2515 46.2976 53.1352 46.3557 53.0267 46.4267C52.8891 46.5252 52.7773 46.6554 52.7008 46.8062C52.6242 46.9571 52.585 47.1242 52.5867 47.2933C52.5918 47.4796 52.6403 47.6622 52.7282 47.8265C52.8162 47.9908 52.9412 48.1324 53.0934 48.24L53.3467 48.4267L57.8 51.68L61.0667 54.0667C61.2713 54.2118 61.4451 54.3962 61.5778 54.6091C61.7106 54.8219 61.7997 55.0591 61.84 55.3067C61.8775 55.5778 61.8513 55.854 61.7633 56.1133C61.6753 56.3725 61.5281 56.6076 61.3334 56.8V56.8133Z" fill="#ED1C24"/>
<path id="Vector_3" d="M31.68 24H31.5867C29.7707 24.054 28.0184 24.6817 26.5812 25.7932C25.144 26.9046 24.0957 28.4426 23.5867 30.1867C23.5226 30.3385 23.4901 30.5018 23.4912 30.6667C23.4923 30.8315 23.527 30.9943 23.5931 31.1453C23.6593 31.2963 23.7555 31.4322 23.8759 31.5447C23.9962 31.6573 24.1383 31.7442 24.2934 31.8C24.5837 31.92 24.9097 31.92 25.2 31.8C25.3567 31.7168 25.4951 31.6032 25.6073 31.4659C25.7195 31.3285 25.8031 31.1701 25.8534 31C26.2124 29.6729 27.0042 28.5037 28.1032 27.6777C29.2022 26.8516 30.5454 26.4161 31.92 26.44C32.1696 26.4462 32.4148 26.3735 32.6207 26.2322C32.8265 26.091 32.9826 25.8884 33.0667 25.6534C33.1391 25.4837 33.1684 25.2987 33.1522 25.115C33.1359 24.9312 33.0745 24.7543 32.9734 24.6C32.8225 24.4028 32.626 24.2451 32.4007 24.1406C32.1754 24.036 31.9281 23.9878 31.68 24Z" fill="#2B3990"/>
<path id="Vector_4" d="M53.8 29.9466C53.8 30.226 53.911 30.4939 54.1085 30.6915C54.306 30.889 54.574 31 54.8533 31H62.8533C63.1327 31 63.4006 30.889 63.5981 30.6915C63.7957 30.4939 63.9067 30.226 63.9067 29.9466C63.9067 29.6673 63.7957 29.3994 63.5981 29.2018C63.4006 29.0043 63.1327 28.8933 62.8533 28.8933H54.8533C54.574 28.8933 54.306 29.0043 54.1085 29.2018C53.911 29.3994 53.8 29.6673 53.8 29.9466Z" fill="#2B3990"/>
<path id="Vector_5" d="M32 10.0533C32.2794 10.0533 32.5473 9.94235 32.7448 9.74481C32.9423 9.54727 33.0533 9.27935 33.0533 8.99999V0.999989C33.0533 0.861663 33.0261 0.724692 32.9731 0.596895C32.9202 0.469099 32.8426 0.352981 32.7448 0.25517C32.647 0.157358 32.5309 0.0797705 32.4031 0.0268355C32.2753 -0.0260995 32.1383 -0.0533447 32 -0.0533447C31.8617 -0.0533447 31.7247 -0.0260995 31.5969 0.0268355C31.4691 0.0797705 31.353 0.157358 31.2552 0.25517C31.1574 0.352981 31.0798 0.469099 31.0268 0.596895C30.9739 0.724692 30.9467 0.861663 30.9467 0.999989V8.99999C30.9467 9.27935 31.0576 9.54727 31.2552 9.74481C31.4527 9.94235 31.7206 10.0533 32 10.0533Z" fill="#2B3990"/>
<path id="Vector_6" d="M48.2667 16.32C48.3645 16.4183 48.4809 16.4964 48.609 16.5496C48.7372 16.6029 48.8746 16.6303 49.0133 16.6303C49.1521 16.6303 49.2895 16.6029 49.4176 16.5496C49.5458 16.4964 49.6621 16.4183 49.76 16.32L55.3867 10.6666C55.4847 10.5686 55.5625 10.4522 55.6156 10.3241C55.6686 10.1959 55.6959 10.0586 55.6959 9.91996C55.6959 9.78129 55.6686 9.64398 55.6156 9.51587C55.5625 9.38775 55.4847 9.27135 55.3867 9.17329C55.2886 9.07524 55.1722 8.99746 55.0441 8.94439C54.916 8.89133 54.7787 8.86401 54.64 8.86401C54.5013 8.86401 54.364 8.89133 54.2359 8.94439C54.1078 8.99746 53.9914 9.07524 53.8933 9.17329L48.2667 14.8266C48.1683 14.9245 48.0902 15.0409 48.037 15.169C47.9837 15.2971 47.9563 15.4345 47.9563 15.5733C47.9563 15.7121 47.9837 15.8495 48.037 15.9776C48.0902 16.1057 48.1683 16.2221 48.2667 16.32Z" fill="#2B3990"/>
<path id="Vector_7" d="M14.0933 16.32C14.2914 16.5181 14.5599 16.6293 14.84 16.6293C15.1201 16.6293 15.3886 16.5181 15.5867 16.32C15.7847 16.122 15.8959 15.8534 15.8959 15.5734C15.8959 15.2933 15.7847 15.0247 15.5867 14.8267L9.97334 9.21337C9.8756 9.11507 9.75919 9.03731 9.63097 8.98464C9.50274 8.93198 9.36528 8.90548 9.22667 8.9067C9.08773 8.90313 8.94958 8.92855 8.82102 8.98135C8.69246 9.03415 8.57632 9.11317 8.48 9.21337C8.29334 9.40925 8.18921 9.66946 8.18921 9.94004C8.18921 10.2106 8.29334 10.4708 8.48 10.6667L14.0933 16.32Z" fill="#2B3990"/>
<path id="Vector_8" d="M8.99999 28.8933H0.999989C0.861663 28.8933 0.724692 28.9206 0.596895 28.9735C0.469099 29.0264 0.352981 29.104 0.25517 29.2018C0.157358 29.2996 0.0797705 29.4158 0.0268355 29.5436C-0.0260995 29.6713 -0.0533447 29.8083 -0.0533447 29.9466C-0.0533447 30.085 -0.0260995 30.2219 0.0268355 30.3497C0.0797705 30.4775 0.157358 30.5937 0.25517 30.6915C0.352981 30.7893 0.469099 30.8669 0.596895 30.9198C0.724692 30.9727 0.861663 31 0.999989 31H8.99999C9.13831 31 9.27529 30.9727 9.40308 30.9198C9.53088 30.8669 9.647 30.7893 9.74481 30.6915C9.84262 30.5937 9.92021 30.4775 9.97314 30.3497C10.0261 30.2219 10.0533 30.085 10.0533 29.9466C10.0533 29.8083 10.0261 29.6713 9.97314 29.5436C9.92021 29.4158 9.84262 29.2996 9.74481 29.2018C9.647 29.104 9.53088 29.0264 9.40308 28.9735C9.27529 28.9206 9.13831 28.8933 8.99999 28.8933Z" fill="#2B3990"/>
</g>
<defs>
<clipPath id="clip0_1330_13970">
<rect width="64" height="64" fill="white"/>
</clipPath>
</defs>
</svg>
