<svg width="64" height="64" viewBox="0 0 64 64" fill="none" xmlns="http://www.w3.org/2000/svg">
<g id="ICONS-02 (5)" clip-path="url(#clip0_2720_2701)">
<g id="Group">
<path id="Vector" d="M16.0008 21.6V24.4C16.0008 25.2 16.2008 25.8 16.4008 26.4C17.2008 28 18.6008 28.8 20.4008 29H20.8008L21.0008 29.4C21.4008 30.6 22.4008 31.8 23.4008 32.4C24.2008 32.8 25.0008 33 25.8008 33C26.0008 33 26.0008 33 26.2008 33C28.4008 33 30.6008 31.6 31.4008 29.4L31.6008 29H32.0008C37.2008 29 42.2008 29 47.4008 29H47.8008L48.0008 29.4C48.8008 31.6 50.6008 33 53.0008 33C53.4008 33 53.8008 33 54.2008 33C55.0008 32.8 55.6008 32.6 56.2008 32.2L56.4008 32C57.2008 31.4 57.8008 30.8 58.0008 29.8C58.2008 29.6 58.2008 29.4 58.4008 29.2C58.6008 29 59.0008 28.8 59.6008 28.8C61.8008 28.8 63.6008 27.2 63.8008 25C63.8008 24.4 63.8008 23.8 63.8008 23.2V22.8V22C63.8008 21.8 63.8008 21.6 63.8008 21.6C63.8008 19.8 62.8008 18 61.0008 17.2L59.4008 16.4C59.0008 16.2 58.4008 16 58.0008 15.6C57.8008 15.6 57.8008 15.4 57.6008 15.4L57.4008 15.2L54.4008 10.2C54.4008 9.99998 54.2008 9.99998 54.2008 9.99998C54.0008 9.59998 53.6008 9.39998 53.4008 8.99998C52.6008 8.39998 51.8008 7.99998 50.6008 7.79998C50.0008 7.59998 49.4008 7.59998 48.6008 7.59998C46.2008 7.59998 44.0008 7.59998 42.0008 7.59998H41.8008C40.0008 7.59998 38.2008 7.59998 36.4008 7.59998C34.0008 7.59998 32.2008 7.99998 30.8008 9.79998C30.2008 10.6 29.6008 11.4 29.0008 12.4C28.4008 13.2 27.6008 14.2 27.0008 15C26.8008 15.2 26.6008 15.4 26.2008 15.6L19.4008 17.4C18.6008 17.6 17.8008 18.2 17.2008 18.8C16.8008 19.2 16.4008 20 16.2008 20.6C16.2008 21 16.0008 21.4 16.0008 21.6ZM29.0008 29.4C28.4008 30.2 27.4008 30.8 26.2008 30.8C26.0008 30.8 26.0008 30.8 25.8008 30.8C25.0008 30.8 24.2008 30.2 23.6008 29.6C23.0008 29 22.8008 28.2 22.8008 27.4C22.8008 27 22.8008 26.6 23.0008 26.2C23.2008 25.8 23.4008 25.4 23.6008 25.2C24.2008 24.6 25.0008 24 25.8008 24C26.2008 24 26.6008 24 27.0008 24.2C28.2008 24.6 29.0008 25.4 29.4008 26.6C29.4008 26.8 29.4008 26.8 29.4008 27C29.8008 27.8 29.6008 28.8 29.0008 29.4ZM56.4008 28.8C56.0008 29.8 55.2008 30.6 54.2008 30.8C54.0008 30.8 53.6008 31 53.4008 31C52.4008 31 51.4008 30.6 50.8008 29.8C50.2008 29 50.0008 28 50.2008 27C50.4008 25.8 51.4008 24.6 52.8008 24.4C53.4008 24.2 54.0008 24.2 54.6008 24.4C55.6008 24.6 56.4008 25.4 56.8008 26.4C56.8008 26.6 57.0008 26.8 57.0008 27C57.0008 27.2 57.0008 27.6 57.0008 27.8C56.6008 27.8 56.6008 28.4 56.4008 28.8ZM18.2008 21.8V21.4C18.2008 20.4 18.8008 19.6 19.8008 19.4H20.0008C21.0008 19.2 22.0008 18.8 23.0008 18.6L26.4008 17.6C26.6008 17.6 26.8008 17.4 27.2008 17.4C27.4008 17.4 27.6008 17.2 27.8008 17C28.0008 17 28.0008 16.8 28.2008 16.8C28.6008 16.2 29.2008 15.6 29.6008 15L30.2008 14C30.8008 13.2 31.6008 12.2 32.2008 11.4C33.0008 10.2 34.2008 9.59998 35.6008 9.59998C37.2008 9.59998 38.8008 9.59998 40.4008 9.59998H42.6008H44.6008H44.8008C46.2008 9.59998 47.6008 9.59998 49.0008 9.59998C50.2008 9.59998 51.2008 9.99998 52.0008 10.8C52.2008 11 52.4008 11.4 52.6008 11.6C52.8008 12 53.0008 12.4 53.2008 12.6L55.6008 16.6C55.8008 16.8 56.0008 17 56.2008 17.2C56.4008 17.2 56.4008 17.4 56.6008 17.4L57.2008 17.6C57.8008 18 58.6008 18.2 59.2008 18.6L60.2008 19C61.2008 19.4 61.8008 20.2 61.8008 21.4C61.8008 22 61.8008 22.6 61.8008 23.2V24.4C61.8008 25.8 60.8008 26.8 59.4008 26.8H58.6008V26C58.4008 25 57.8008 24 57.0008 23.2C56.8008 23 56.8008 23 56.6008 22.8C56.0008 22.2 55.2008 22 54.2008 21.8C53.8008 21.8 53.6008 21.8 53.4008 21.8C51.0008 21.8 48.8008 23.6 48.0008 25.8C48.0008 25.8 48.0008 26 48.0008 26.2V26.8H47.0008H31.8008L31.6008 26.2C31.4008 25.4 31.0008 24.6 30.6008 24C29.6008 22.6 28.2008 22 26.6008 21.8C26.4008 21.8 26.2008 21.8 26.0008 21.8C25.2008 21.8 24.4008 22 23.6008 22.4C23.2008 22.6 23.0008 22.8 22.6008 23.2C21.8008 23.8 21.2008 24.8 21.0008 25.6C21.0008 25.8 21.0008 25.8 21.0008 26L20.8008 26.8H20.2008C19.4008 26.6 18.6008 26.2 18.4008 25.4C18.4008 25.2 18.2008 25 18.2008 24.6C18.2008 23.8 18.2008 23 18.2008 21.8Z" fill="#ED1C24"/>
<path id="Vector_2" d="M52.1999 39.6C52.1999 39.2 51.9999 38.8 51.7999 38.8C51.3999 38.4 50.9999 38.4 50.5999 38.6C50.1999 38.8 49.9999 39.2 49.9999 39.8C50.1999 43 51.3999 46 53.3999 48.6C53.9999 49.4 54.5999 50 55.1999 50.8C55.3999 51 55.7999 51.4 55.5999 52.2C55.3999 52.8 54.5999 52.8 54.3999 52.8H53.9999H53.7999H3.79988C3.39988 52.8 2.79988 52.8 2.59988 52.2C2.19988 51.6 2.59988 51 2.79988 50.8L3.39988 50C3.79988 49.4 4.19988 49 4.59988 48.4C6.99988 45 8.19988 41.4 7.99988 37.6C7.99988 34.4 7.99988 31 7.99988 27.8C7.99988 26.4 7.99988 25 7.99988 23.4C7.99988 22.6 7.99988 21.8 8.19988 21C9.39988 12.6 13.9999 6.6 21.7999 3.4C23.5999 2.6 25.3999 2.4 27.3999 2.2C27.9999 2.2 28.3999 1.6 28.3999 1C28.3999 0.4 27.7999 0 26.9999 0C26.1999 0 25.5999 0.2 24.9999 0.2C13.5999 2.2 5.59988 11.8 5.59988 23.4C5.59988 24.8 5.59988 26 5.59988 27.4C5.59988 30.6 5.59988 33.8 5.59988 37C5.59988 41.8 4.19988 45.8 0.999877 49.4C-0.000123262 50.6 -0.400123 51.8 0.199877 53.2C0.799877 54.6 1.79988 55.2 3.59988 55.2C5.59988 55.2 7.79988 55.2 9.79988 55.2C12.3999 55.2 14.9999 55.2 17.7999 55.2C18.5999 55.2 18.9999 55.6 19.1999 56.2C20.1999 60.6 24.1999 64 28.7999 64C33.3999 64 37.5999 60.8 38.3999 56.2C38.5999 55.4 38.9999 55.2 39.7999 55.2C42.5999 55.2 45.5999 55.2 48.3999 55.2H53.9999C54.9999 55.2 55.5999 55 56.3999 54.4C57.1999 53.8 57.5999 53 57.5999 52C57.5999 51 57.3999 50.2 56.5999 49.4C53.9999 46.6 52.5999 43.4 52.1999 39.6ZM36.1999 56.4C35.1999 59.4 32.1999 61.6 28.9999 61.6C25.7999 61.6 22.7999 59.4 21.7999 56.4C21.7999 56.2 21.5999 55.8 21.5999 55.6V55.2H27.3999C29.9999 55.2 32.5999 55.2 35.1999 55.2C35.3999 55.2 35.7999 55.2 36.1999 55.6C36.3999 55.8 36.1999 56.2 36.1999 56.4Z" fill="#2B3990"/>
<path id="Vector_3" d="M14.9984 44.8C18.1984 44.8 21.5984 44.8 24.7984 44.8H41.9984H42.1984C42.3984 44.8 42.5984 44.8 42.7984 44.8C43.3984 44.8 43.7984 44.2 43.9984 43.6C43.9984 43 43.5984 42.4 42.7984 42.4C42.5984 42.4 42.3984 42.4 42.3984 42.4H42.1984H15.7984C15.3984 42.4 15.1984 42.4 14.7984 42.4C14.1984 42.4 13.9984 42.6 13.7984 43.2C13.5984 43.6 13.5984 44 13.7984 44.2C14.1984 44.6 14.5984 44.8 14.9984 44.8Z" fill="#2B3990"/>
</g>
</g>
<defs>
<clipPath id="clip0_2720_2701">
<rect width="64" height="64" fill="white"/>
</clipPath>
</defs>
</svg>
