<svg xmlns="http://www.w3.org/2000/svg" width="64" height="64" fill="none" xmlns:v="https://vecta.io/nano"><path d="M56.31 38.319c.009-.917-.249-1.816-.743-2.589s-1.203-1.384-2.039-1.76l-1.654-.755-1.651-.751c-.145-.066-.277-.158-.387-.273-.063-.065-.12-.136-.169-.212l-.963-1.543-2.156-3.442-.199-.296c-1.3-1.856-3.193-2.358-5.706-2.402-4.403-.054-8.205.044-12.335 0-2.695-.02-4.349.448-5.726 2.28l-3.985 5.238a1.49 1.49 0 0 1-.805.542l-.155.04-2.358.63-4.224 1.152a4.38 4.38 0 0 0-3.271 3.227c0 .054 0 .114-.027.172a3.2 3.2 0 0 0-.108.876v2.749a4.28 4.28 0 0 0 .404 1.92 4.35 4.35 0 0 0 4.12 2.533c.269 0 .438 0 .546.337.34 1.053.991 1.978 1.867 2.654s1.936 1.071 3.041 1.132h.337c1.163 0 2.295-.368 3.236-1.05s1.643-1.645 2.005-2.749a.43.43 0 0 1 .499-.337h15.963a.45.45 0 0 1 .342.078c.049.035.09.08.122.131a.45.45 0 0 1 .061.168 5.51 5.51 0 0 0 5.026 3.769c.377.018.756-.005 1.128-.067.738-.122 1.444-.395 2.072-.802.094-.061.185-.125.276-.192.741-.543 1.323-1.274 1.684-2.119.091-.238.228-.456.404-.64a1.52 1.52 0 0 1 .546-.289c.2-.058.41-.074.616-.048 2.294 0 4.005-1.58 4.291-3.87.165-1.128.061-2.287.074-3.443zm-38.339 9.479c-.111 0-.219 0-.337-.017-.915-.09-1.759-.529-2.358-1.226-.551-.632-.855-1.443-.855-2.282s.304-1.65.855-2.282c.597-.701 1.442-1.144 2.358-1.236a3.5 3.5 0 0 1 1.256.104 3.53 3.53 0 0 1 2.582 3.874 3.53 3.53 0 0 1-3.505 3.065h.003zm30.737-2.183c-.214.497-.537.939-.945 1.293a3.6 3.6 0 0 1-1.413.755 3.46 3.46 0 0 1-.919.128c-.865.005-1.702-.308-2.352-.88s-1.066-1.362-1.171-2.221.111-1.727.604-2.437 1.231-1.215 2.073-1.418c.579-.144 1.186-.137 1.762.02.526.146 1.011.41 1.42.772s.729.812.938 1.316c.074.172.133.35.178.532a3.61 3.61 0 0 1 .098.792 3.44 3.44 0 0 1-.273 1.347zm5.605-4.423c-.002.657-.262 1.286-.725 1.752s-1.091.731-1.747.737c-.495 0-.701 0-.825-.155-.111-.194-.185-.406-.219-.626-.27-1.039-.839-1.977-1.637-2.695-.145-.131-.297-.253-.455-.367-.698-.511-1.505-.851-2.358-.994a5.39 5.39 0 0 0-.872-.108 5.59 5.59 0 0 0-5.363 4.042c-.081.283-.05.718-.229.825-.246.152-.64.067-.97.067H23.953c-.367 0-.488-.078-.559-.462a5.52 5.52 0 0 0-5.144-4.473c-1.034-.04-2.059.205-2.964.707a5.61 5.61 0 0 0-2.601 3.197c-.033.105-.06.212-.081.32-.145.761-.158.782-.916.674a2.31 2.31 0 0 1-2.021-2.183 44.82 44.82 0 0 1 0-3.227c.023-.486.204-.952.515-1.327s.736-.639 1.21-.751l3.894-1.078.899-.246 1.445-.401 1.25-.337c.385-.095.723-.324.953-.647l4.163-5.447a4.08 4.08 0 0 1 3.57-1.768h6.983 6.791a3.86 3.86 0 0 1 3.675 2.048 64.55 64.55 0 0 0 1.347 2.183l1.842 2.927c.13.215.303.399.509.542.106.075.218.139.337.192l.62.28 2.048.933 1.034.475c.493.186.913.525 1.198.968s.42.965.386 1.491c-.034.973-.02 1.954-.024 2.931z" fill="#ed1c24"/><path d="M16.465 30.235a1.17 1.17 0 0 0 1.081-.724 1.17 1.17 0 0 0 .088-.448v-8.805a10.39 10.39 0 0 1 3.136-7.545l6.568-6.582 2.051-2.048c1.684-1.684 3.523-1.684 5.191 0l2.381 2.358 6.4 6.434a9.94 9.94 0 0 1 2.978 7.131v3.109a1.17 1.17 0 0 0 1.169 1.169 1.17 1.17 0 0 0 1.169-1.169v-2.762a10.1 10.1 0 0 0-.121-1.93c-.523-3.029-1.979-5.82-4.167-7.98l-4.456-4.44L36.42 2.49A6.32 6.32 0 0 0 31.937.54c-.791.018-1.571.197-2.292.524s-1.368.798-1.902 1.382l-8.246 8.249c-2.857 2.779-4.234 6.114-4.214 10.159v8.212a1.17 1.17 0 0 0 1.169 1.169h.014zm31.077 21.562a1.17 1.17 0 0 0-1.169 1.173v4.638a3.45 3.45 0 0 1-.244 1.388 3.46 3.46 0 0 1-.778 1.175c-.337.334-.74.595-1.182.767s-.916.25-1.39.231H21.204c-.48.018-.957-.063-1.404-.239s-.852-.442-1.19-.783a3.5 3.5 0 0 1-.776-1.194c-.174-.447-.252-.926-.231-1.405l.03-4.578c0-.154-.029-.306-.088-.448s-.145-.272-.253-.38a1.17 1.17 0 0 0-1.997.825v4.244a7.74 7.74 0 0 0 .158 1.89 5.62 5.62 0 0 0 2.044 3.19c1.03.795 2.305 1.206 3.605 1.166h21.42c.58.026 1.161-.024 1.728-.148 1.149-.306 2.429-.765 3.207-1.836.878-1.259 1.323-2.77 1.267-4.305v-4.207a1.17 1.17 0 0 0-.093-.448 1.18 1.18 0 0 0-.257-.378 1.17 1.17 0 0 0-.832-.336zM32.007 17.583a2.73 2.73 0 1 0 0-5.464 2.73 2.73 0 1 0 0 5.464z" fill="#2b3990"/></svg>