<?xml version="1.0" standalone="no"?>
<!DOCTYPE svg PUBLIC "-//W3C//DTD SVG 1.1//EN" "http://www.w3.org/Graphics/SVG/1.1/DTD/svg11.dtd" >
<svg xmlns="http://www.w3.org/2000/svg">
<metadata>Generated by IcoMoon</metadata>
<defs>
<font id="icomoon" horiz-adv-x="1024">
<font-face units-per-em="1024" ascent="960" descent="-64" />
<missing-glyph horiz-adv-x="1024" />
<glyph unicode="&#x20;" horiz-adv-x="512" d="" />
<glyph unicode="&#xe900;" d="M442.667 922.667c117.443 20.404 200.998-22.263 250.667-128 5.227-13.794 7.005-28.017 5.333-42.667 125.284 20.509 182.173-32.825 170.667-160-1.778-21.333-3.555-42.667-5.333-64-14.801-11.238-30.801-13.017-48-5.333-14.612 51.276-28.835 102.831-42.667 154.667-23.964 9.325-48.852 12.881-74.667 10.667 0-35.555 0-71.111 0-106.667-21.333 0-42.667 0-64 0 0 35.555 0 71.111 0 106.667-46.762-3.473-92.983 0.083-138.667 10.667-14.222 14.222-14.222 28.445 0 42.667 42.667 7.111 85.333 14.222 128 21.333-30.512 72.145-83.845 98.811-160 80-30.222-16-53.333-39.111-69.333-69.333-13.91-63.178-19.244-127.178-16-192-21.333 0-42.667 0-64 0 0 35.555 0 71.111 0 106.667-21.625 1.729-42.958-0.048-64-5.333-9.899-4.138-17.009-11.249-21.333-21.333-8.58-73.805-21.025-146.694-37.333-218.667-52.495-18.661-72.051 0.894-58.667 58.667 2.381 74.932 14.826 147.821 37.333 218.667 9.627 12.815 22.071 21.705 37.333 26.667 35.379 5.315 70.934 7.093 106.667 5.333 6.69 84.718 49.357 141.607 128 170.667z" />
<glyph unicode="&#xe901;" d="M826.667 442.667c20.983 2.554 40.539-1.002 58.667-10.667 22.122-109.359 32.788-219.581 32-330.667-10.108-22.081-26.108-38.081-48-48-241.778-7.111-483.555-7.111-725.333 0-21.892 9.919-37.892 25.919-48 48-3.099 89.499 4.012 178.388 21.333 266.667 41.113 31.867 64.224 21.2 69.333-32-10.474-67.493-15.807-135.049-16-202.667 8.004-6.675 16.894-12.009 26.667-16 206.222-7.111 412.445-7.111 618.667 0 25.084 6.143 35.75 22.143 32 48-17.835 92.547-24.946 184.992-21.333 277.333z" />
<glyph unicode="&#xe902;" glyph-name="bagnoline" d="M421.333 922.667c120.365 24.729 203.921-17.938 250.667-128 8.863-71.376 7.085-142.487-5.333-213.333-14.222-14.222-28.445-14.222-42.667 0-10.528 34.862-14.084 70.417-10.667 106.667-71.111 0-142.222 0-213.333 0 0 21.333 0 42.667 0 64 67.927-3.517 135.483 0.039 202.667 10.667-37.593 82.795-98.037 105.905-181.333 69.333-20.035-16.458-36.035-36.013-48-58.667-10.397-63.682-19.286-127.682-26.667-192-14.222-14.222-28.445-14.222-42.667 0-10.528 34.862-14.084 70.417-10.667 106.667-30.592 4.427-53.703-6.24-69.333-32-17.056-158.115-33.056-316.337-48-474.667 3.555-19.555 7.111-39.111 10.667-58.667 213.333-14.222 426.667-14.222 640 0 3.555 19.555 7.111 39.111 10.667 58.667-14.944 158.33-30.944 316.551-48 474.667-15.63 25.76-38.741 36.427-69.333 32 1.522 18.799-2.033 36.577-10.667 53.333 55.65 20.547 103.65 9.881 144-32 25.875-176.966 45.431-354.745 58.667-533.333 11.258-54.8-6.519-95.689-53.333-122.667-234.667-7.111-469.333-7.111-704 0-46.814 26.978-64.591 67.867-53.333 122.667 13.235 178.589 32.791 356.367 58.667 533.333 36.126 37.75 80.57 51.972 133.333 42.667 6.558 84.319 49.225 141.208 128 170.667z" />
<glyph unicode="&#xe903;" d="M272 837.333c-31.699-22.838-58.366-51.283-80-85.333-10.667-53.333-21.333-106.667-32-160-18.128-9.665-37.683-13.22-58.667-10.667 14.014-151.638 40.681-300.972 80-448 19.983-23.562 43.093-43.117 69.333-58.667 170.667-7.111 341.333-7.111 512 0 26.24 15.55 49.35 35.105 69.333 58.667 39.319 147.028 65.986 296.362 80 448-20.983-2.554-40.539 1.002-58.667 10.667-10.667 53.333-21.333 106.667-32 160-19.555 33.778-46.222 60.445-80 80-156.404 5.332-312.848 7.11-469.333 5.333zM325.333 773.333c132.357 4.687 263.914-0.646 394.667-16 8.889-8.889 17.778-17.778 26.667-26.667 13.718-49.023 22.607-98.801 26.667-149.333-177.778 0-355.555 0-533.333 0 4.060 50.532 12.948 100.31 26.667 149.333 15.998 20.999 35.553 35.221 58.667 42.667zM176 517.333c220.559 3.552 441.004-0.003 661.333-10.667-25.139-109.692-48.251-219.915-69.333-330.667-14.068-21.2-33.625-33.644-58.667-37.333-146.518-10.085-292.297-6.529-437.333 10.667-8.889 8.889-17.778 17.778-26.667 26.667-22.463 114.094-45.573 227.871-69.333 341.333z" />
<glyph unicode="&#xe904;" d="M314.667 464c12.884-7.83 27.107-11.386 42.667-10.667 17.744-84.923 21.3-170.256 10.667-256-31.168-13.726-50.724-3.059-58.667 32-6.506 53.218-11.839 106.551-16 160 1.53 27.876 8.641 52.765 21.333 74.667z" />
<glyph unicode="&#xe905;" d="M442.667 464c12.884-7.83 27.107-11.386 42.667-10.667 3.531-85.629-0.025-170.962-10.667-256-14.222-14.222-28.445-14.222-42.667 0-16.894 91.5-13.339 180.389 10.667 266.667z" />
<glyph unicode="&#xe906;" d="M549.333 464c12.884-7.83 27.107-11.386 42.667-10.667 3.531-85.629-0.025-170.962-10.667-256-14.222-14.222-28.445-14.222-42.667 0-16.894 91.5-13.339 180.389 10.667 266.667z" />
<glyph unicode="&#xe907;" d="M677.333 464c11.554-0.42 22.221-3.977 32-10.667 10.683-74.679 8.905-149.346-5.333-224-7.942-35.059-27.499-45.726-58.667-32-10.683 74.679-8.905 149.346 5.333 224 5.116 17.419 14.004 31.642 26.667 42.667z" />
<glyph unicode="&#xe908;" d="M624 880c52.764 9.306 97.207-4.916 133.333-42.667 7.111-145.778 7.111-291.555 0-437.333-60.445-156.445-120.889-156.445-181.333 0-7.111 145.778-7.111 291.555 0 437.333 14.899 16.749 30.899 30.972 48 42.667z" />
<glyph unicode="&#xe909;" d="M165.333 837.333c-24.608-15.759-44.163-37.092-58.667-64-7.111-213.333-7.111-426.667 0-640 12.445-26.667 32-46.222 58.667-58.667 235.612-10.43 470.278-6.874 704 10.667 16.521 12.949 28.965 28.949 37.333 48 7.111 213.333 7.111 426.667 0 640-25.098 52.548-65.986 72.105-122.667 58.667 17.946-60.506 25.057-122.727 21.333-186.667 14.222 0 28.445 0 42.667 0 4.823-164.317-0.51-327.872-16-490.667-11.386-7.365-23.83-12.699-37.333-16-192-7.111-384-7.111-576 0-13.503 3.301-25.948 8.635-37.333 16-15.49 162.795-20.823 326.35-16 490.667 120.889 0 241.778 0 362.667 0-3.724 63.939 3.388 126.161 21.333 186.667-127.951 5.332-255.951 7.109-384 5.333zM197.333 762.667c14.222 0 28.445 0 42.667 0 0-14.222 0-28.445 0-42.667-14.222 0-28.445 0-42.667 0 0 14.222 0 28.445 0 42.667zM304 762.667c14.222 0 28.445 0 42.667 0 0-14.222 0-28.445 0-42.667-14.222 0-28.445 0-42.667 0 0 14.222 0 28.445 0 42.667z" />
<glyph unicode="&#xe90a;" d="M432 901.333c-50.894-45.537-100.672-93.537-149.333-144-18.761-8.507-36.539-6.73-53.333 5.333-8.992 30.688-26.77 53.799-53.333 69.333-46.627 8.827-92.85 7.050-138.667-5.333-14.222-14.222-14.222-28.445 0-42.667 39.201-5.935 76.534-16.602 112-32 30.737-141.755 59.182-283.977 85.333-426.667 19.555-33.778 46.222-60.445 80-80 178.755-10.35 356.533-6.794 533.333 10.667 23.562 19.983 43.117 43.093 58.667 69.333 31.225 141.122 54.336 283.344 69.333 426.667-39.271-1.763-78.383 0.015-117.333 5.333-39.469 43.042-82.135 82.154-128 117.333-53.895 14.21-100.117 1.765-138.667-37.333-23.358 21.589-48.247 41.145-74.667 58.667-28.224 5.306-56.669 7.084-85.333 5.333zM453.333 826.667c44.566-6.882 80.122-29.994 106.667-69.333-56.889-7.111-113.778-7.111-170.667 0 23.53 21.725 44.863 44.836 64 69.333zM677.333 805.333c85.469-44.011 81.914-60.011-10.667-48-11.535 18.246-7.979 34.246 10.667 48zM240 688c220.559 3.552 441.004-0.003 661.333-10.667-25.139-109.692-48.251-219.915-69.333-330.667-14.068-21.2-33.625-33.644-58.667-37.333-146.518-10.085-292.297-6.529-437.333 10.667-8.889 8.889-17.778 17.778-26.667 26.667-22.463 114.094-45.573 227.871-69.333 341.333z" />
<glyph unicode="&#xe90b;" d="M378.667 197.333c106.532 12.46 134.976-28.43 85.333-122.667-107.373-15.649-135.818 25.239-85.333 122.667z" />
<glyph unicode="&#xe90c;" d="M677.333 197.333c106.532 12.46 134.976-28.43 85.333-122.667-107.373-15.649-135.818 25.239-85.333 122.667z" />
<glyph unicode="&#xe90d;" d="M410.667 880c-298.454-111.691-394.454-319.691-288-624-18.422-54.134-32.644-109.246-42.667-165.333-1.854-23.396 5.257-42.951 21.333-58.667 71.68-3.439 141.013 9.005 208 37.333 108.72-45.653 220.72-54.542 336-26.667 255.951 115.591 343.062 309.37 261.333 581.333-103.305 201.895-268.638 287.229-496 256zM165.333 112c10.577 49.583 21.244 99.36 32 149.333-95.354 220.512-42.021 392.957 160 517.333 207.461 69.556 365.683 10.89 474.667-176 75.23-242.398-4.77-407.731-240-496-98.114-14.667-192.336-2.222-282.667 37.333-47.954-11.86-95.954-22.527-144-32z" />
<glyph unicode="&#xe90e;" d="M293.333 560c142.4 3.547 284.622-0.009 426.667-10.667 14.222-14.222 14.222-28.445 0-42.667-142.222-14.222-284.445-14.222-426.667 0-11.043 17.37-11.043 35.147 0 53.333z" />
<glyph unicode="&#xe90f;" d="M293.333 410.667c113.999 3.541 227.777-0.014 341.333-10.667 14.222-14.222 14.222-28.445 0-42.667-113.778-14.222-227.555-14.222-341.333 0-11.043 17.37-11.043 35.147 0 53.333z" />
<glyph unicode="&#xe910;" d="M176 837.333c-21.067-12.228-37.067-30.005-48-53.333-7.111-49.778-7.111-99.555 0-149.333 4.962-15.262 13.852-27.707 26.667-37.333 91.347-17.138 183.792-20.693 277.333-10.667 15.262 4.962 27.707 13.852 37.333 26.667 16.67 55.653 20.226 112.543 10.667 170.667-4.962 15.262-13.852 27.707-26.667 37.333-91.283 15.369-183.727 20.702-277.333 16zM218.667 773.333c61.108 3.069 121.552-0.486 181.333-10.667 41.228-94.112 9.228-133.222-96-117.333-32.586 0.469-64.586 4.025-96 10.667-30.155 42.858-26.599 81.968 10.667 117.333z" />
<glyph unicode="&#xe911;" d="M581.333 837.333c-21.067-12.228-37.067-30.005-48-53.333-10.218-129.029-6.661-257.029 10.667-384 9.627-12.815 22.071-21.705 37.333-26.667 93.541-10.027 185.986-6.471 277.333 10.667 12.815 9.627 21.705 22.071 26.667 37.333 10.218 129.029 6.661 257.029-10.667 384-9.627 12.815-22.071 21.705-37.333 26.667-85.26 5.33-170.593 7.108-256 5.333zM624 773.333c56.999 1.771 113.889-0.006 170.667-5.333 8.62-3.281 15.73-8.614 21.333-16 12.145-95.486 13.922-191.486 5.333-288-3.281-8.62-8.614-15.73-16-21.333-59.881-11.956-120.325-13.734-181.333-5.333-8.62 3.281-15.73 8.614-21.333 16-12.145 95.486-13.922 191.486-5.333 288 7.444 12.7 16.334 23.366 26.667 32z" />
<glyph unicode="&#xe912;" d="M176 538.667c-21.067-12.228-37.067-30.005-48-53.333-10.218-129.029-6.661-257.029 10.667-384 9.627-12.815 22.071-21.705 37.333-26.667 93.541-10.027 185.986-6.471 277.333 10.667 12.815 9.627 21.705 22.071 26.667 37.333 10.218 129.029 6.661 257.029-10.667 384-9.627 12.815-22.071 21.705-37.333 26.667-85.26 5.33-170.593 7.108-256 5.333zM218.667 474.667c56.999 1.771 113.889-0.006 170.667-5.333 8.62-3.281 15.73-8.614 21.333-16 12.145-95.486 13.922-191.486 5.333-288-3.281-8.62-8.614-15.73-16-21.333-59.881-11.956-120.325-13.734-181.333-5.333-8.62 3.281-15.73 8.614-21.333 16-12.145 95.486-13.922 191.486-5.333 288 7.444 12.7 16.334 23.366 26.667 32z" />
<glyph unicode="&#xe913;" d="M581.333 325.333c-21.067-12.228-37.067-30.005-48-53.333-7.111-49.778-7.111-99.555 0-149.333 4.962-15.262 13.852-27.707 26.667-37.333 91.347-17.138 183.792-20.693 277.333-10.667 15.262 4.962 27.707 13.852 37.333 26.667 16.67 55.653 20.226 112.543 10.667 170.667-4.962 15.262-13.852 27.707-26.667 37.333-91.283 15.369-183.727 20.702-277.333 16zM624 261.333c61.108 3.069 121.552-0.486 181.333-10.667 41.228-94.112 9.228-133.222-96-117.333-32.586 0.469-64.586 4.025-96 10.667-30.155 42.858-26.599 81.968 10.667 117.333z" />
<glyph unicode="&#xe914;" d="M208 837.333c-38.899-15.821-65.566-44.266-80-85.333-7.111-199.111-7.111-398.222 0-597.333 12.445-40.889 39.111-67.555 80-80 199.111-7.111 398.222-7.111 597.333 0 40.889 12.445 67.555 39.111 80 80 7.111 199.111 7.111 398.222 0 597.333-12.445 40.889-39.111 67.555-80 80-199.079 5.332-398.191 7.11-597.333 5.333zM261.333 773.333c163.595 1.777 327.15-0.001 490.667-5.333 51.212-13.936 76.1-47.714 74.667-101.333-213.333 0-426.667 0-640 0 0.723 53.84 25.613 89.395 74.667 106.667zM186.667 602.667c213.333 0 426.667 0 640 0 4.74-143.009-0.593-285.231-16-426.667-14.068-21.2-33.625-33.644-58.667-37.333-163.555-7.111-327.111-7.111-490.667 0-25.042 3.69-44.598 16.133-58.667 37.333-15.407 141.436-20.74 283.658-16 426.667z" />
<glyph unicode="&#xe915;" d="M282.667 538.667c120.724 5.44 149.169-42.56 85.333-144-121.541-8.562-149.986 39.438-85.333 144z" />
<glyph unicode="&#xe916;" d="M474.667 517.333c85.187 5.355 106.521-28.423 64-101.333-86.144-8.583-107.477 25.195-64 101.333z" />
<glyph unicode="&#xe917;" d="M656 517.333c85.187 5.355 106.521-28.423 64-101.333-86.144-8.583-107.477 25.195-64 101.333z" />
<glyph unicode="&#xe918;" d="M645.333 346.667c120.724 5.44 149.169-42.56 85.333-144-121.541-8.562-149.986 39.438-85.333 144z" />
<glyph unicode="&#xe919;" glyph-name="hearth" d="M1018.667 837.333c-8.708 17.532-22.931 29.976-42.667 37.333-82.628 9.556-164.405 6-245.333-10.667-52.951-47.235-84.951-105.902-96-176-48.261-9.908-90.928-31.242-128-64-37.072 32.758-79.739 54.092-128 64-9.793 85.535-52.46 147.758-128 186.667-71.111 7.111-142.222 7.111-213.333 0-19.736-7.357-33.958-19.801-42.667-37.333 0-28.445 0-56.889 0-85.333 13.805-8.426 26.25-19.092 37.333-32 2.203-33.311 9.314-65.311 21.333-96 29.714-17.517 59.936-33.517 90.667-48-32.191-82.812-26.858-162.812 16-240 101.648-105.213 206.538-206.546 314.667-304 21.333-7.111 42.667-7.111 64 0 108.129 97.454 213.019 198.787 314.667 304 42.858 77.188 48.191 157.188 16 240 30.731 14.483 60.953 30.483 90.667 48 12.019 30.689 19.131 62.689 21.333 96 11.084 12.908 23.529 23.574 37.333 32 0 28.445 0 56.889 0 85.333zM80 816c39.271 1.763 78.383-0.015 117.333-5.333 27.025-5.507 50.135-17.952 69.333-37.333 10.422-27.759 22.866-54.426 37.333-80-40.325-9.858-77.659-25.858-112-48-25.071 10.711-49.959 21.378-74.667 32-3.551 25.965 8.894 36.631 37.333 32 0 21.333 0 42.667 0 64-25.814-2.214-50.703 1.342-74.667 10.667-11.332 9.862-11.332 20.529 0 32zM816 816c39.271 1.763 78.383-0.015 117.333-5.333 12.919-9.523 12.919-18.412 0-26.667-23.964-9.325-48.852-12.881-74.667-10.667 0-21.333 0-42.667 0-64 28.439 4.631 40.884-6.035 37.333-32-24.707-10.622-49.596-21.289-74.667-32-34.341 22.142-71.675 38.142-112 48 14.467 25.574 26.911 52.241 37.333 80 21.471 18.647 44.581 32.869 69.333 42.667zM293.333 613.333c32.196 1.756 64.196-0.021 96-5.333 42.494-27.008 81.604-57.23 117.333-90.667 35.729 33.437 74.839 63.659 117.333 90.667 170.63 7.122 225.742-69.322 165.333-229.333-95.681-85.005-188.126-173.893-277.333-266.667-96 88.889-192 177.778-288 266.667-53.603 102.912-30.492 181.134 69.333 234.667z" />
<glyph unicode="&#xe91a;" d="M538.667 880c-156.090-147.205-307.201-300.094-453.333-458.667-9.107-44.001-5.551-86.668 10.667-128 87.43-90.996 178.097-178.107 272-261.333 44.001-9.107 86.668-5.551 128 10.667 147.869 144.307 291.869 291.862 432 442.667 7.111 113.778 7.111 227.555 0 341.333-12.445 19.555-28.445 35.556-48 48-113.723 5.332-227.5 7.109-341.333 5.333zM592 816c78.303 1.774 156.525-0.003 234.667-5.333 9.773-3.991 18.662-9.325 26.667-16 21.035-95.731 21.035-191.731 0-288-133.333-133.333-266.667-266.667-400-400-21.333-7.111-42.667-7.111-64 0-76.445 76.445-152.889 152.889-229.333 229.333-7.111 21.333-7.111 42.667 0 64 139.903 145.281 283.903 283.948 432 416z" />
<glyph unicode="&#xe91b;" d="M677.333 730.667c106.532 12.46 134.976-28.43 85.333-122.667-107.373-15.649-135.818 25.239-85.333 122.667z" />
<glyph unicode="&#xe91c;" d="M442.667 581.333c71.023 12.325 92.356-14.341 64-80-72.004-15.668-93.338 10.998-64 80z" />
<glyph unicode="&#xe91d;" d="M304 453.333c113.999 3.541 227.777-0.014 341.333-10.667 14.222-14.222 14.222-28.445 0-42.667-113.778-14.222-227.555-14.222-341.333 0-11.043 17.37-11.043 35.147 0 53.333z" />
<glyph unicode="&#xe91e;" d="M442.667 346.667c71.023 12.325 92.356-14.341 64-80-72.004-15.668-93.338 10.998-64 80z" />
<glyph unicode="&#xe91f;" glyph-name="search" d="M346.667 837.333c-222.189-102.915-280.855-266.47-176-490.667 130.796-141.702 281.907-166.591 453.333-74.667 69.179-63.842 136.735-129.62 202.667-197.333 34.563-21.933 59.452-13.044 74.667 26.667-67.172 81.413-138.284 159.636-213.333 234.667 50.315 86.014 66.315 178.458 48 277.333-69.024 177.689-198.802 252.355-389.333 224zM368 762.667c211.333 10.896 309.111-88.66 293.333-298.667-50.819-136.559-148.596-191.67-293.333-165.333-136.559 50.819-191.67 148.596-165.333 293.333 28.64 83.735 83.751 140.624 165.333 170.667z" />
<glyph unicode="&#xe920;" d="M154.667 858.667c-6.631-12.017-15.52-22.684-26.667-32-6.132-76.991-22.132-151.658-48-224 0.555-36.659 13-68.659 37.333-96 5.332-159.961 7.11-319.961 5.333-480 256 0 512 0 768 0-1.777 160.039 0.001 320.039 5.333 480 24.334 27.341 36.778 59.341 37.333 96-25.868 72.342-41.868 147.009-48 224-8.889 8.889-17.778 17.778-26.667 26.667-234.64 5.333-469.307 7.111-704 5.333zM197.333 794.667c206.253 1.777 412.475 0 618.667-5.333 10.449-70.222 22.894-139.555 37.333-208-21.859-48.589-59.193-73.477-112-74.667-41.363 3.798-78.697 18.020-112 42.667-81.778-56.889-163.555-56.889-245.333 0-25.492-8.298-48.604-20.741-69.333-37.333-85.002-19.753-138.335 12.247-160 96 23.084 60.509 37.306 122.732 42.667 186.667zM378.667 464c81.791-42.076 163.569-42.076 245.333 0 60.933-32.934 124.933-40.046 192-21.333 10.654-117.118 14.209-234.451 10.667-352-28.445 0-56.889 0-85.333 0 0 92.445 0 184.889 0 277.333-99.555 0-199.111 0-298.667 0 0-92.445 0-184.889 0-277.333-85.333 0-170.667 0-256 0-3.542 117.549 0.013 234.882 10.667 352 45.621-11.792 91.843-13.57 138.667-5.333 16.708 6.487 30.931 15.376 42.667 26.667zM506.667 304c56.889 0 113.778 0 170.667 0 0-71.111 0-142.222 0-213.333-56.889 0-113.778 0-170.667 0 0 71.111 0 142.222 0 213.333z" />
<glyph unicode="&#xe921;" d="M592 752c21.333 0 42.667 0 64 0 0-21.333 0-42.667 0-64-21.333 0-42.667 0-64 0 0 21.333 0 42.667 0 64z" />
<glyph unicode="&#xe922;" d="M698.667 752c21.333 0 42.667 0 64 0 0-21.333 0-42.667 0-64-21.333 0-42.667 0-64 0 0 21.333 0 42.667 0 64z" />
<glyph unicode="&#xe923;" d="M165.333 837.333c-24.608-15.759-44.163-37.092-58.667-64-6.679-66.576-22.679-130.576-48-192 0.555-36.659 13-68.659 37.333-96 3.556-117.333 7.111-234.667 10.667-352 8.368-19.051 20.813-35.051 37.333-48 123.41-17.314 247.855-20.87 373.333-10.667-14.613 15.374-25.28 33.152-32 53.333-88.889 3.555-177.778 7.111-266.667 10.667-13.503 3.301-25.948 8.635-37.333 16-16.813 91.621-20.368 184.066-10.667 277.333 31.607-15.569 65.386-22.681 101.333-21.333 42.219-4.151 79.552 6.515 112 32 54.622-30.819 113.289-39.709 176-26.667 36.522 34.763 79.188 59.651 128 74.667-15.217 19.169-34.773 31.614-58.667 37.333-81.778-56.889-163.555-56.889-245.333 0-25.492-8.298-48.604-20.741-69.333-37.333-32-7.111-64-7.111-96 0-70.726 28.93-92.060 76.93-64 144 234.667 14.222 469.333 14.222 704 0 28.060-67.070 6.726-115.070-64-144 39.808-15.581 77.141-35.137 112-58.667 18.871 48.517 34.871 98.295 48 149.333-25.322 61.424-41.322 125.424-48 192-8.368 19.051-20.813 35.051-37.333 48-233.695 15.767-468.362 21.101-704 16zM453.333 773.333c113.834 1.776 227.611-0.002 341.333-5.333 28.445-17.778 28.445-35.555 0-53.333-113.778-7.111-227.555-7.111-341.333 0-26.854 19.308-26.854 38.863 0 58.667zM197.333 762.667c14.222 0 28.445 0 42.667 0 0-14.222 0-28.445 0-42.667-14.222 0-28.445 0-42.667 0 0 14.222 0 28.445 0 42.667zM304 762.667c14.222 0 28.445 0 42.667 0 0-14.222 0-28.445 0-42.667-14.222 0-28.445 0-42.667 0 0 14.222 0 28.445 0 42.667z" />
<glyph unicode="&#xe924;" d="M666.667 453.333c-61.604-26.513-109.604-69.18-144-128-49.351-139.993-12.018-248.437 112-325.333 139.55-49.493 247.995-12.16 325.333 112 48.852 240.156-48.925 353.933-293.333 341.333zM624 336c14.222 0 28.445 0 42.667 0 0-14.222 0-28.445 0-42.667-14.222 0-28.445 0-42.667 0 0 14.222 0 28.445 0 42.667zM826.667 325.333c16.3-0.185 21.633-7.296 16-21.333-64.155-65.936-129.933-129.936-197.333-192-10.891 5.35-12.669 12.462-5.333 21.333 64.386 62.598 126.608 126.598 186.667 192zM816 144c14.222 0 28.445 0 42.667 0 0-14.222 0-28.445 0-42.667-14.222 0-28.445 0-42.667 0 0 14.222 0 28.445 0 42.667z" />
<glyph unicode="&#xe925;" d="M432 880c-63.789-26.475-108.234-72.698-133.333-138.667-31.135-131.457 13.309-225.679 133.333-282.667 131.457-31.135 225.679 13.309 282.667 133.333 26.489 213.517-67.734 309.517-282.667 288zM453.333 805.333c140.272 10.848 202.495-53.152 186.667-192-39.803-77.653-102.025-104.32-186.667-80-77.653 39.803-104.32 102.025-80 186.667 21.634 34.050 48.301 62.495 80 85.333z" />
<glyph unicode="&#xe926;" d="M218.667 368c-21.067-12.228-37.067-30.005-48-53.333-22.996-147.863 39.226-238.53 186.667-272 99.555-21.333 199.111-21.333 298.667 0 147.441 33.47 209.663 124.137 186.667 272-8.889 23.111-24.889 39.111-48 48-191.967 5.332-383.967 7.11-576 5.333zM261.333 304c163.595 1.777 327.15-0.001 490.667-5.333 35.99-23.437 41.324-53.66 16-90.667-29.612-44.27-70.5-74.493-122.667-90.667-126.185-36.676-247.073-22.454-362.667 42.667-29.361 27.609-47.139 61.387-53.333 101.333 7.164 17.701 17.83 31.923 32 42.667z" />
<glyph unicode="&#xe927;" d="M432 880c-63.789-26.475-108.234-72.698-133.333-138.667-31.135-131.457 13.309-225.679 133.333-282.667 131.457-31.135 225.679 13.309 282.667 133.333 26.489 213.517-67.734 309.517-282.667 288zM453.333 805.333c140.272 10.848 202.495-53.152 186.667-192-39.803-77.653-102.025-104.32-186.667-80-77.653 39.803-104.32 102.025-80 186.667 21.634 34.050 48.301 62.495 80 85.333z" />
<glyph unicode="&#xe928;" d="M837.333 453.333c124.034 9.371 164.923-43.963 122.667-160-90.667-90.667-181.333-181.333-272-272-58.123-24.314-118.567-36.758-181.333-37.333 0.575 62.766 13.020 123.211 37.333 181.333 96.659 98.449 194.436 194.449 293.333 288z" />
<glyph unicode="&#xe929;" d="M218.667 368c160.039 1.777 320.039-0.001 480-5.333-17.778-17.778-35.555-35.555-53.333-53.333-128-3.555-256-7.111-384-10.667-14.222-7.111-24.889-17.778-32-32 5.079-36.095 19.301-68.095 42.667-96 62.481-49.404 133.593-72.514 213.333-69.333-1.857-25.184-5.412-50.074-10.667-74.667-110.948-0.507-205.171 38.604-282.667 117.333-25.858 54.078-32.97 110.966-21.333 170.667 10.933 23.328 26.933 41.105 48 53.333z" />
</font>
</defs>
</svg>
