<svg width="48" height="49" viewBox="0 0 48 49" fill="none" xmlns="http://www.w3.org/2000/svg">
<g id="Group 115310">
<circle id="Ellipse 346" cx="24" cy="24.5" r="23" fill="white" stroke="#E6E6E6" stroke-width="2"/>
<circle id="Ellipse 347" opacity="0.3" cx="24" cy="21.0002" r="8" fill="#ABABAB"/>
<g id="Intersect">
<mask id="path-3-inside-1_2876_18259" fill="white">
<path fill-rule="evenodd" clip-rule="evenodd" d="M8.99219 43.1098C10.0552 35.9423 16.5212 30.429 24.339 30.429C31.657 30.429 37.7906 35.2598 39.4168 41.7564C35.1616 45.4155 29.524 47.6433 23.3401 47.6433C17.9606 47.6433 12.9944 45.9573 8.99219 43.1098Z"/>
</mask>
<path fill-rule="evenodd" clip-rule="evenodd" d="M8.99219 43.1098C10.0552 35.9423 16.5212 30.429 24.339 30.429C31.657 30.429 37.7906 35.2598 39.4168 41.7564C35.1616 45.4155 29.524 47.6433 23.3401 47.6433C17.9606 47.6433 12.9944 45.9573 8.99219 43.1098Z" fill="#E6E6E6"/>
<path d="M8.99219 43.1098L8.00301 42.9631L7.9131 43.5693L8.41246 43.9246L8.99219 43.1098ZM39.4168 41.7564L40.0688 42.5146L40.5367 42.1123L40.3868 41.5136L39.4168 41.7564ZM9.98137 43.2565C10.9674 36.6078 16.9873 31.429 24.339 31.429V29.429C16.055 29.429 9.14293 35.2767 8.00301 42.9631L9.98137 43.2565ZM24.339 31.429C31.2183 31.429 36.9367 35.9669 38.4467 41.9992L40.3868 41.5136C38.6444 34.5528 32.0957 29.429 24.339 29.429V31.429ZM38.7647 40.9982C34.6883 44.5036 29.2812 46.6433 23.3401 46.6433V48.6433C29.7668 48.6433 35.635 46.3273 40.0688 42.5146L38.7647 40.9982ZM23.3401 46.6433C18.1716 46.6433 13.4075 45.024 9.57191 42.295L8.41246 43.9246C12.5813 46.8907 17.7495 48.6433 23.3401 48.6433V46.6433Z" fill="#E6E6E6" mask="url(#path-3-inside-1_2876_18259)"/>
</g>
</g>
</svg>
