<svg width="119" height="45" viewBox="0 0 119 45" fill="none" xmlns="http://www.w3.org/2000/svg">
<path d="M23.4548 43.9999C21.6111 43.993 19.8046 43.4801 18.2313 42.5171C16.6579 41.5542 15.3778 40.1778 14.5299 38.5374C14.3063 38.1114 14.1149 37.6691 13.9574 37.2144C13.564 36.1437 13.3578 35.0131 13.3477 33.8722C13.3622 32.7184 13.5728 31.5755 13.9706 30.4926C14.1321 30.0376 14.3275 29.5955 14.5551 29.1697C15.3997 27.5346 16.6766 26.1637 18.2463 25.2067C19.816 24.2497 21.618 23.7437 23.4553 23.7437C25.2927 23.7437 27.0948 24.2497 28.6644 25.2067C30.2341 26.1637 31.5111 27.5346 32.3557 29.1697C32.5832 29.5955 32.7786 30.0376 32.9402 30.4926C33.338 31.5755 33.5486 32.7184 33.5631 33.8722C33.553 35.0131 33.3468 36.1437 32.9534 37.2144C32.7958 37.6691 32.6045 38.1114 32.3809 38.5374C31.5339 40.1788 30.2539 41.5561 28.6801 42.5192C27.1062 43.4823 25.2989 43.9945 23.4548 43.9999V43.9999ZM29.0562 30.5047C28.5527 29.6507 27.8616 28.9231 27.0353 28.377C26.209 27.8309 25.2693 27.4808 24.2877 27.3532C23.3061 27.2257 22.3084 27.3241 21.3704 27.6409C20.4324 27.9577 19.5789 28.4847 18.8747 29.1817C18.477 29.5749 18.1339 30.0199 17.8545 30.5047C17.2302 31.5138 16.8984 32.6771 16.8963 33.8645C16.8941 35.0518 17.2218 36.2162 17.8425 37.2276C18.1239 37.7047 18.458 38.1486 18.8387 38.5506C19.7628 39.4515 20.9305 40.0608 22.197 40.3029C23.4635 40.545 24.7731 40.4092 25.9633 39.9125C27.1535 39.4157 28.172 38.5799 28.8925 37.5085C29.613 36.4371 30.0038 35.1773 30.0165 33.8854C30.0198 32.6901 29.687 31.518 29.0562 30.5034V30.5047Z" stroke="#2A3C90" stroke-miterlimit="10"/>
<path d="M8.96593 22.2928C9.14101 22.2928 9.30891 22.2231 9.43271 22.0991C9.55651 21.975 9.62606 21.8068 9.62606 21.6313C9.62606 21.4559 9.55651 21.2877 9.43271 21.1636C9.30891 21.0395 9.14101 20.9698 8.96593 20.9698H2.30705C3.04713 19.7668 4.07361 18.7667 5.29445 18.0591C6.51528 17.3515 7.8923 16.9586 9.302 16.9156L39.9979 16.342C42.4671 16.297 44.86 15.4768 46.8392 13.9968L54.8304 8.04708C60.6149 3.73791 67.5682 1.28902 74.7713 1.02403C81.9744 0.759047 89.0882 2.69047 95.1725 6.563L105.392 13.0743C105.889 13.3868 106.461 13.5593 107.048 13.5734L111.616 13.6612H111.803C113.252 13.65 114.65 14.1982 115.707 15.1922C116.764 16.1862 117.398 17.5497 117.479 18.9999H114.167C113.992 18.9999 113.824 19.0696 113.701 19.1936C113.577 19.3177 113.507 19.4859 113.507 19.6614C113.507 19.8368 113.577 20.005 113.701 20.1291C113.824 20.2531 113.992 20.3228 114.167 20.3228H117.516V24.6525H114.167C113.992 24.6525 113.824 24.7222 113.701 24.8462C113.577 24.9703 113.507 25.1385 113.507 25.3139C113.507 25.4894 113.577 25.6576 113.701 25.7817C113.824 25.9057 113.992 25.9754 114.167 25.9754H117.491C117.454 27.074 117.262 28.1618 116.918 29.2058H104.377C103.478 27.194 102.017 25.4858 100.17 24.2872C98.3241 23.0886 96.1711 22.4509 93.9711 22.4509C91.7711 22.4509 89.6181 23.0886 87.7717 24.2872C85.9253 25.4858 84.4644 27.194 83.5651 29.2058H33.8611C32.9618 27.194 31.5009 25.4858 29.6545 24.2872C27.8081 23.0886 25.6551 22.4509 23.4551 22.4509C21.2552 22.4509 19.1022 23.0886 17.2558 24.2872C15.4094 25.4858 13.9484 27.194 13.0491 29.2058H1.60012C1.20452 28.0238 1.00188 26.7855 1 25.5388C0.999948 24.4402 1.21145 23.352 1.62292 22.3337H8.96713L8.96593 22.2928ZM83.9876 5.29176L82.4069 13.9101L87.6879 13.6359C88.2707 13.6098 88.8324 13.4093 89.3005 13.0603C89.7685 12.7113 90.1215 12.2299 90.314 11.678C90.5133 11.1297 90.5427 10.534 90.3984 9.96869C90.254 9.40342 89.9427 8.89504 89.505 8.51012C87.9016 7.07613 86.0247 5.98291 83.9876 5.29657V5.29176ZM80.3353 13.6155L81.9412 4.84678L81.9532 4.74695C81.353 4.61586 80.7465 4.51591 80.136 4.44749L77.9828 4.27308C77.1243 4.19851 76.2653 4.16124 75.4059 4.16124C68.5672 4.16375 61.927 6.46495 56.5479 10.6966L50.9068 15.1369L50.8324 15.3858L51.0436 15.5229L80.2705 14.0136L80.3353 13.6155ZM75.742 19.9512H79.153C79.3281 19.9512 79.496 19.8815 79.6198 19.7574C79.7436 19.6334 79.8132 19.4652 79.8132 19.2897C79.8132 19.1143 79.7436 18.946 79.6198 18.822C79.496 18.6979 79.3281 18.6282 79.153 18.6282H75.742C75.5672 18.6292 75.3999 18.6992 75.2763 18.823C75.1527 18.9469 75.0828 19.1146 75.0819 19.2897C75.0812 19.3773 75.098 19.4642 75.1313 19.5452C75.1646 19.6262 75.2138 19.6998 75.2758 19.7615C75.3379 19.8232 75.4116 19.8719 75.4927 19.9047C75.5738 19.9374 75.6606 19.9537 75.748 19.9524L75.742 19.9512Z" stroke="#2A3C90" stroke-miterlimit="10"/>
<path d="M2.14429 30.5038H12.5503C11.8742 32.6889 11.87 35.0273 12.5383 37.2147C10.3528 37.1819 8.22041 36.5356 6.38312 35.3493C4.54582 34.163 3.07729 32.4843 2.14429 30.5038V30.5038Z" stroke="#2A3C90" stroke-miterlimit="10"/>
<path d="M83.0667 30.5038C82.7259 31.5981 82.5539 32.7381 82.5565 33.8845C82.5561 35.0172 82.724 36.1436 83.0547 37.2267H34.3709C34.7015 36.1436 34.8694 35.0172 34.869 33.8845C34.8716 32.7381 34.6996 31.5981 34.3589 30.5038H83.0667Z" stroke="#2A3C90" stroke-miterlimit="10"/>
<path d="M116.389 30.5037C115.444 32.5093 113.951 34.2048 112.082 35.3929C110.213 36.581 108.046 37.2128 105.833 37.2146H104.899C105.23 36.1315 105.397 35.0051 105.397 33.8724C105.4 32.7261 105.228 31.586 104.887 30.4916H116.389V30.5037Z" stroke="#2A3C90" stroke-miterlimit="10"/>
<path d="M93.9824 43.9999C92.1387 43.993 90.3321 43.4802 88.7588 42.5172C87.1854 41.5542 85.9053 40.1778 85.0575 38.5373C84.8339 38.1113 84.6425 37.669 84.485 37.2143C84.0916 36.1436 83.8853 35.013 83.8752 33.8721C83.8897 32.7183 84.1004 31.5754 84.4982 30.4926C84.6598 30.0376 84.8551 29.5954 85.0827 29.1697C85.9274 27.5349 87.2043 26.1642 88.7739 25.2074C90.3434 24.2507 92.1452 23.7447 93.9824 23.7447C95.8195 23.7447 97.6214 24.2507 99.1909 25.2074C100.76 26.1642 102.037 27.5349 102.882 29.1697C103.11 29.5954 103.305 30.0376 103.467 30.4926C103.864 31.5754 104.075 32.7183 104.09 33.8721C104.079 35.013 103.873 36.1436 103.48 37.2143C103.322 37.669 103.131 38.1113 102.907 38.5373C102.059 40.1778 100.779 41.5542 99.206 42.5172C97.6326 43.4802 95.826 43.993 93.9824 43.9999V43.9999ZM99.5839 30.5046C99.0804 29.6507 98.3892 28.923 97.5629 28.377C96.7366 27.8309 95.7969 27.4807 94.8153 27.3532C93.8337 27.2256 92.836 27.324 91.898 27.6408C90.96 27.9577 90.1065 28.4846 89.4023 29.1816C89.0046 29.5748 88.6614 30.0198 88.3821 30.5046C87.7578 31.5138 87.426 32.6771 87.4239 33.8644C87.4218 35.0517 87.7494 36.2162 88.3701 37.2275C88.6514 37.7047 88.9856 38.1485 89.3663 38.5505C90.4952 39.6959 92.0052 40.3847 93.6085 40.4859C95.2119 40.587 96.7962 40.0933 98.0595 39.0989C99.3229 38.1045 100.177 36.6789 100.458 35.0941C100.74 33.5092 100.429 31.876 99.5863 30.5058L99.5839 30.5046Z" stroke="#2A3C90" stroke-miterlimit="10"/>
</svg>
