<svg width="119" height="45" viewBox="0 0 119 45" fill="none" xmlns="http://www.w3.org/2000/svg">
<path d="M4.94531 34.2539C7.02927 36.1199 9.71549 37.1673 12.5088 37.2032C12.2213 36.2454 12.0607 35.2538 12.0311 34.2539H4.94531Z" stroke="#2A3C90" stroke-miterlimit="10"/>
<path d="M104.836 37.2154H105.765C108.618 37.213 111.371 36.1591 113.501 34.2542H105.313C105.285 35.258 105.124 36.2537 104.836 37.2154Z" stroke="#2A3C90" stroke-miterlimit="10"/>
<path d="M103.414 37.2137C103.756 36.2624 103.95 35.2633 103.987 34.2524C103.987 34.1193 104.023 34.0009 104.023 33.8692C104.023 33.5458 103.951 33.2463 103.927 32.9375C103.707 30.4283 102.559 28.0928 100.707 26.3913C98.8549 24.6899 96.4347 23.7461 93.9234 23.7461C91.4121 23.7461 88.9919 24.6899 87.1402 26.3913C85.2884 28.0928 84.1393 30.4283 83.9197 32.9375C83.8697 33.2459 83.8379 33.557 83.8242 33.8692C83.8242 34.0023 83.86 34.1207 83.86 34.2524C83.9017 35.2628 84.095 36.2611 84.4333 37.2137C84.5874 37.6686 84.7791 38.1098 85.0065 38.5326C85.8472 40.1786 87.1245 41.5599 88.6977 42.5245C90.2708 43.489 92.0789 43.9994 93.9228 43.9994C95.7666 43.9994 97.5747 43.489 99.1478 42.5245C100.721 41.5599 101.998 40.1786 102.839 38.5326C103.059 38.1061 103.251 37.6656 103.414 37.2137ZM100.473 33.8865C100.473 34.0196 100.449 34.138 100.437 34.2697C100.375 35.3155 100.063 36.3311 99.5283 37.2311C99.2562 37.7122 98.9225 38.1556 98.5358 38.5499C97.308 39.778 95.6448 40.4678 93.9108 40.4678C92.1769 40.4678 90.5136 39.778 89.2858 38.5499C88.9054 38.1501 88.5724 37.7076 88.2933 37.2311C87.7533 36.3334 87.4412 35.3166 87.3843 34.2697C87.3843 34.1366 87.3485 34.0182 87.3485 33.8865C87.3562 33.5739 87.3881 33.2624 87.444 32.9548C87.6613 31.3897 88.4355 29.9561 89.6239 28.9186C90.8123 27.8811 92.3347 27.3097 93.9102 27.3097C95.4857 27.3097 97.008 27.8811 98.1964 28.9186C99.3848 29.9561 100.159 31.3897 100.376 32.9548C100.433 33.2605 100.465 33.5703 100.473 33.8811V33.8865Z" stroke="#2A3C90" stroke-miterlimit="10"/>
<path d="M8.94829 22.3025H1.621C1.21234 23.3242 1.00158 24.4146 1 25.5153C0.998242 28.2321 1.94095 30.8645 3.6658 32.9591H12.0679C12.3009 30.0963 13.5994 27.4262 15.7051 25.4795C17.8109 23.5328 20.5699 22.452 23.4337 22.452C26.2975 22.452 29.0564 23.5328 31.1622 25.4795C33.268 27.4262 34.5664 30.0963 34.7995 32.9591H82.5582C82.7912 30.0963 84.0896 27.4262 86.1954 25.4795C88.3012 23.5328 91.0602 22.452 93.924 22.452C96.7877 22.452 99.5467 23.5328 101.652 25.4795C103.758 27.4262 105.057 30.0963 105.29 32.9591H114.792C116.417 30.9813 117.346 28.5203 117.434 25.9585H114.099C114.005 25.9712 113.91 25.9637 113.819 25.9364C113.729 25.909 113.645 25.8626 113.574 25.8001C113.503 25.7377 113.445 25.6607 113.406 25.5742C113.367 25.4878 113.347 25.394 113.347 25.2991C113.347 25.2042 113.367 25.1103 113.406 25.0239C113.445 24.9375 113.503 24.8605 113.574 24.798C113.645 24.7356 113.729 24.6891 113.819 24.6618C113.91 24.6345 114.005 24.6269 114.099 24.6396H117.446V21.6424H114.099C113.94 21.6208 113.794 21.5421 113.688 21.4209C113.583 21.2996 113.525 21.144 113.525 20.9829C113.525 20.8219 113.583 20.6663 113.688 20.545C113.794 20.4238 113.94 20.345 114.099 20.3235H117.446V19.3665C117.446 18.7792 117.458 18.2158 117.482 17.6763C117.541 16.0699 117.589 14.6791 117.004 14.0922C116.577 13.757 116.037 13.6023 115.498 13.661H115.307L108.076 13.5891C107.414 13.5772 106.764 13.4055 106.181 13.0883C105.598 12.7712 105.101 12.318 104.73 11.7671C102.5 8.45012 99.4913 5.7335 95.9691 3.85606C92.4468 1.97862 88.5187 0.997862 84.53 1.00002H64.93C55.9083 0.991958 47.0908 3.69349 39.6135 8.75656L29.8726 15.3379C28.8937 15.9093 27.7893 16.2294 26.6574 16.2695L9.29196 16.9044C7.88042 16.947 6.50153 17.3406 5.27912 18.0498C4.05671 18.759 3.02906 19.7616 2.28845 20.9676H8.94829C9.10742 20.9892 9.25335 21.0679 9.35903 21.1892C9.4647 21.3105 9.52294 21.4661 9.52294 21.6271C9.52294 21.7882 9.4647 21.9438 9.35903 22.065C9.25335 22.1863 9.10742 22.265 8.94829 22.2866V22.2985V22.3025ZM97.6772 12.0892C97.4661 12.6129 97.107 13.0633 96.6439 13.3849C96.1809 13.7065 95.6341 13.8853 95.0711 13.8992C93.9711 13.9351 92.7171 13.971 91.3557 14.0189L91.223 13.5878L88.7018 5.06992C90.2598 5.11613 91.7934 5.47029 93.2147 6.11204C94.636 6.7538 95.9171 7.67053 96.9845 8.80977C97.4095 9.22671 97.7019 9.76043 97.8252 10.3437C97.9484 10.927 97.8969 11.5338 97.6772 12.0878V12.0892ZM89.1848 14.0855C83.1367 14.2772 75.3211 14.4928 67.5281 14.6964L70.7127 5.63424L70.9157 5.07126H86.527L86.6703 5.5504L89.1848 14.0855ZM65.3002 14.751C53.265 15.0624 41.791 15.3619 37.7877 15.4577L40.561 13.1086C46.6748 7.91639 54.4256 5.06584 62.4367 5.0633H68.6998L65.5151 14.1374L65.3002 14.751ZM83.7179 19.0432C83.7179 18.8667 83.7878 18.6974 83.9122 18.5726C84.0367 18.4478 84.2054 18.3777 84.3814 18.3777H87.781C87.9401 18.3993 88.086 18.478 88.1917 18.5992C88.2974 18.7205 88.3556 18.8761 88.3556 19.0371C88.3556 19.1982 88.2974 19.3538 88.1917 19.4751C88.086 19.5963 87.9401 19.6751 87.781 19.6966H84.3747C84.2017 19.6949 84.0363 19.6255 83.9136 19.5032C83.7909 19.3809 83.7207 19.2153 83.7179 19.0418V19.0432ZM58.3736 19.2827C58.3736 19.1062 58.4435 18.937 58.5679 18.8122C58.6924 18.6874 58.8611 18.6173 59.0371 18.6173H62.4367C62.5958 18.6388 62.7417 18.7175 62.8474 18.8388C62.9531 18.96 63.0113 19.1156 63.0113 19.2767C63.0113 19.4378 62.9531 19.5934 62.8474 19.7146C62.7417 19.8359 62.5958 19.9146 62.4367 19.9362H59.0251C58.8515 19.9365 58.6849 19.8678 58.5617 19.745C58.4386 19.6222 58.369 19.4555 58.3683 19.2814L58.3736 19.2827Z" stroke="#2A3C90" stroke-miterlimit="10"/>
<path d="M34.3477 37.2151H83.0034C82.7159 36.2532 82.5553 35.2577 82.5257 34.2539H34.8253C34.7966 35.2578 34.636 36.2534 34.3477 37.2151V37.2151Z" stroke="#2A3C90" stroke-miterlimit="10"/>
<path d="M32.9214 37.2137C33.2643 36.2624 33.4577 35.2633 33.4947 34.2524C33.4947 34.1193 33.5305 34.0009 33.5305 33.8692C33.5305 33.5458 33.4589 33.2463 33.435 32.9375C33.2153 30.4283 32.0663 28.0928 30.2145 26.3913C28.3627 24.6899 25.9426 23.7461 23.4313 23.7461C20.92 23.7461 18.4998 24.6899 16.648 26.3913C14.7962 28.0928 13.6472 30.4283 13.4276 32.9375C13.3775 33.2459 13.3456 33.557 13.332 33.8692C13.332 34.0023 13.3679 34.1207 13.3679 34.2524C13.4037 35.2635 13.5971 36.2627 13.9411 37.2137C14.0951 37.6687 14.2869 38.1098 14.5143 38.5326C15.355 40.1786 16.6323 41.5599 18.2055 42.5245C19.7787 43.489 21.5868 43.9994 23.4306 43.9994C25.2744 43.9994 27.0825 43.489 28.6557 42.5245C30.2289 41.5599 31.5062 40.1786 32.3469 38.5326C32.572 38.1085 32.7641 37.6676 32.9214 37.2137V37.2137ZM29.9929 33.8865C29.9929 34.0196 29.969 34.138 29.9571 34.2697C29.8946 35.3155 29.5829 36.3311 29.0482 37.2311C28.776 37.7122 28.4423 38.1555 28.0556 38.5499C26.8278 39.778 25.1646 40.4678 23.4306 40.4678C21.6966 40.4678 20.0334 39.778 18.8056 38.5499C18.4252 38.1501 18.0922 37.7076 17.8131 37.2311C17.273 36.3334 16.9609 35.3166 16.9041 34.2697C16.9041 34.1366 16.8683 34.0182 16.8683 33.8865C16.876 33.5739 16.9079 33.2624 16.9638 32.9548C17.1811 31.3897 17.9553 29.9561 19.1437 28.9186C20.3321 27.8811 21.8544 27.3097 23.4299 27.3097C25.0054 27.3097 26.5278 27.8811 27.7162 28.9186C28.9046 29.9561 29.6788 31.3897 29.896 32.9548C29.9469 33.2614 29.9792 33.5707 29.9929 33.8811V33.8865Z" stroke="#2A3C90" stroke-miterlimit="10"/>
</svg>
