<svg width="120" height="51" viewBox="0 0 120 51" fill="none" xmlns="http://www.w3.org/2000/svg">
<path d="M11.6834 44.0816C11.5609 43.8675 11.4504 43.6432 11.3532 43.4291C11.2426 43.2171 11.1444 42.9992 11.0589 42.7765C10.5011 41.4304 10.2146 39.9934 10.2148 38.5429C10.2214 37.2419 10.4531 35.9512 10.9005 34.7245C10.9857 34.5104 11.0603 34.286 11.1455 34.0719C11.2432 33.8487 11.3534 33.6309 11.4757 33.4194C12.455 31.52 13.9613 29.9224 15.8257 28.8058C17.69 27.6892 19.8386 27.0977 22.0306 27.0977C24.2227 27.0977 26.3713 27.6892 28.2357 28.8058C30.1 29.9224 31.6064 31.52 32.5857 33.4194C32.6962 33.6335 32.8187 33.8462 32.9159 34.0719C33.0131 34.2976 33.0877 34.5104 33.1609 34.7245C34.1269 37.337 34.07 40.2019 33.001 42.7765C32.9039 43.0022 32.8054 43.215 32.7069 43.4291C32.6083 43.6432 32.4858 43.8675 32.3766 44.0816C31.3561 45.8742 29.8579 47.3688 28.0381 48.4097C26.2182 49.4506 24.1435 49.9996 22.03 49.9996C19.9165 49.9996 17.8418 49.4506 16.0219 48.4097C14.2021 47.3688 12.7039 45.8742 11.6834 44.0816V44.0816ZM15.9081 42.7649C16.0824 42.993 16.2704 43.2109 16.4712 43.4174C16.6895 43.6529 16.9268 43.8711 17.1809 44.0699C18.526 45.2021 20.248 45.8257 22.03 45.8257C23.812 45.8257 25.5341 45.2021 26.8791 44.0699C27.1304 43.868 27.3674 43.65 27.5887 43.4174C27.7845 43.2034 27.9802 42.9906 28.152 42.7649C29.0721 41.5329 29.569 40.0518 29.5727 38.5313C29.5693 37.1788 29.1704 35.8549 28.4223 34.7128C28.274 34.4851 28.1104 34.2671 27.9323 34.0603C27.7486 33.8347 27.5768 33.6103 27.3811 33.4078C26.6848 32.7207 25.854 32.1749 24.9374 31.8023C24.0208 31.4297 23.0367 31.2378 22.0427 31.2378C21.0486 31.2378 20.0645 31.4297 19.1479 31.8023C18.2313 32.1749 17.4005 32.7207 16.7042 33.4078C16.5037 33.6115 16.3194 33.8296 16.153 34.0603C15.9813 34.2731 15.8228 34.4872 15.675 34.7128C14.9318 35.8571 14.533 37.1795 14.5233 38.5313C14.4967 40.0521 14.9849 41.5395 15.9134 42.7662L15.9081 42.7649Z" stroke="#2A3C90" stroke-miterlimit="10"/>
<path d="M33.7331 15.9551L36.6836 13.6545C43.8499 8.07877 52.3309 4.3097 61.3685 2.68411C72.7416 0.634884 84.3898 0.4544 95.8248 2.15023C100.804 2.89775 105.377 5.2504 108.804 8.82759L115.661 16.026C117.238 17.6936 118.228 19.8032 118.489 22.0508H114.73C114.551 22.0508 114.38 22.1196 114.254 22.242C114.127 22.3644 114.056 22.5303 114.056 22.7034C114.056 22.8764 114.127 23.0424 114.254 23.1648C114.38 23.2871 114.551 23.3559 114.73 23.3559H118.599V27.6489H114.721C114.542 27.6489 114.371 27.7176 114.244 27.84C114.118 27.9624 114.047 28.1283 114.047 28.3014C114.047 28.4745 114.118 28.6404 114.244 28.7628C114.371 28.8852 114.542 28.9539 114.721 28.9539H118.602V29.6774C118.597 30.9434 118.407 32.2025 118.039 33.4171H106.088C105.061 31.1493 103.375 29.2202 101.235 27.8657C99.0955 26.5111 96.5944 25.7897 94.038 25.7897C91.4816 25.7897 88.9806 26.5111 86.8407 27.8657C84.7008 29.2202 83.0147 31.1493 81.9885 33.4171H34.0886C33.0624 31.1493 31.3763 29.2202 29.2364 27.8657C27.0965 26.5111 24.5955 25.7897 22.0391 25.7897C19.4827 25.7897 16.9816 26.5111 14.8417 27.8657C12.7018 29.2202 11.0157 31.1493 9.98954 33.4171H1.01562V31.448C1.02325 29.5566 1.51991 27.6972 2.46024 26.0395H8.90042C9.07909 26.0395 9.25045 25.9707 9.3768 25.8484C9.50314 25.726 9.57413 25.56 9.57413 25.387C9.57413 25.2139 9.50314 25.0479 9.3768 24.9256C9.25045 24.8032 9.07909 24.7345 8.90042 24.7345H3.31769C4.26183 23.4604 5.46656 22.3881 6.85693 21.5843C8.2473 20.7806 9.79356 20.2625 11.3995 20.0623L28.8427 17.9552C30.632 17.7378 32.3245 17.0456 33.7331 15.9551V15.9551ZM103.491 7.6773L109.761 14.6861C109.824 14.7584 109.903 14.8161 109.992 14.8552C110.081 14.8942 110.177 14.9136 110.275 14.9118L110.716 14.7571C110.849 14.6421 110.931 14.4815 110.945 14.3091C110.959 14.1366 110.903 13.9657 110.789 13.8324L104.519 6.82362C104.4 6.6944 104.235 6.61481 104.057 6.60158C103.879 6.58835 103.702 6.64253 103.564 6.7527C103.43 6.86608 103.347 7.02621 103.333 7.19851C103.319 7.37081 103.376 7.54143 103.491 7.67344V7.6773ZM38.3492 16.213L65.3002 15.6675L65.3242 15.4663L66.3521 5.26711C64.9194 5.39607 63.4988 5.5521 62.0662 5.71717L61.7599 5.75326C56.6069 6.38335 51.6559 8.0868 47.2472 10.7465L38.3266 16.142L38.3492 16.213ZM92.0542 14.3276C93.3679 13.718 94.5041 12.801 95.3602 11.6595L97.7354 8.42138C97.9513 8.13534 98.0834 7.79818 98.1179 7.44546C98.1523 7.09274 98.0878 6.73757 97.9312 6.4174C97.7801 6.09391 97.5404 5.81671 97.238 5.61595C96.9357 5.41519 96.5823 5.29856 96.2163 5.27872L92.8491 5.02984C91.1834 4.9112 89.5205 4.81702 87.8415 4.7577L92.0409 14.2812L92.0542 14.3276ZM85.8097 5.37415L85.5035 4.66231C84.0589 4.61459 82.6143 4.57974 81.1683 4.57974C76.9437 4.57974 72.719 4.76934 68.5197 5.0956L68.4957 5.39218L67.4678 15.6275L88.406 15.2123C88.958 15.1935 89.507 15.1262 90.0464 15.0111L85.8097 5.37415ZM83.1282 20.6375H86.6272C86.8059 20.6375 86.9773 20.5687 87.1036 20.4464C87.23 20.324 87.3009 20.158 87.3009 19.985C87.3009 19.8119 87.23 19.6459 87.1036 19.5236C86.9773 19.4012 86.8059 19.3324 86.6272 19.3324H83.1255C82.9469 19.3324 82.7755 19.4012 82.6492 19.5236C82.5228 19.6459 82.4518 19.8119 82.4518 19.985C82.4518 20.158 82.5228 20.324 82.6492 20.4464C82.7755 20.5687 82.9469 20.6375 83.1255 20.6375H83.1282ZM58.8587 20.6375H62.3484C62.5271 20.6375 62.6985 20.5687 62.8248 20.4464C62.9512 20.324 63.0221 20.158 63.0221 19.985C63.0221 19.8119 62.9512 19.6459 62.8248 19.5236C62.6985 19.4012 62.5271 19.3324 62.3484 19.3324H58.8587C58.68 19.3324 58.5087 19.4012 58.3823 19.5236C58.256 19.6459 58.185 19.8119 58.185 19.985C58.185 20.158 58.256 20.324 58.3823 20.4464C58.5087 20.5687 58.68 20.6375 58.8587 20.6375V20.6375Z" stroke="#2A3C90" stroke-miterlimit="10"/>
<path d="M34.4414 42.7649C35.3961 40.1689 35.4521 37.3425 34.6012 34.7129H81.4679C81.0683 35.9487 80.8658 37.2363 80.8674 38.5313C80.8734 39.9738 81.1299 41.4049 81.6263 42.7649H34.4414Z" stroke="#2A3C90" stroke-miterlimit="10"/>
<path d="M83.6848 44.0816C83.5623 43.8675 83.4518 43.6432 83.3546 43.4291C83.244 43.2171 83.1458 42.9992 83.0603 42.7765C82.502 41.4305 82.215 39.9935 82.2148 38.5429C82.2214 37.2419 82.4532 35.9512 82.9005 34.7245C82.9857 34.5104 83.0603 34.286 83.1455 34.0719C83.2432 33.8487 83.3535 33.6309 83.4757 33.4194C84.455 31.52 85.9613 29.9224 87.8257 28.8058C89.69 27.6892 91.8387 27.0977 94.0307 27.0977C96.2227 27.0977 98.3714 27.6892 100.236 28.8058C102.1 29.9224 103.606 31.52 104.586 33.4194C104.696 33.6335 104.819 33.8462 104.916 34.0719C105.013 34.2976 105.088 34.5104 105.161 34.7245C105.614 35.9497 105.846 37.2414 105.847 38.5429C105.844 39.9932 105.557 41.4299 105.001 42.7765C104.916 43.0022 104.805 43.215 104.707 43.4291C104.608 43.6432 104.486 43.8675 104.377 44.0816C103.356 45.8742 101.858 47.3688 100.038 48.4097C98.2183 49.4506 96.1435 49.9996 94.0301 49.9996C91.9166 49.9996 89.8418 49.4506 88.022 48.4097C86.2022 47.3688 84.7039 45.8742 83.6834 44.0816H83.6848ZM99.5782 43.4291C99.7739 43.215 99.9696 43.0022 100.141 42.7765C101.061 41.5444 101.558 40.0635 101.562 38.5429C101.558 37.1903 101.159 35.8664 100.41 34.7245C100.262 34.4967 100.098 34.2787 99.9203 34.0719C99.7366 33.8462 99.5648 33.6219 99.3691 33.4194C98.6716 32.732 97.8397 32.1861 96.922 31.8134C96.0043 31.4408 95.0192 31.2489 94.0241 31.2489C93.029 31.2489 92.0438 31.4408 91.1261 31.8134C90.2084 32.1861 89.3765 32.732 88.679 33.4194C88.4785 33.6231 88.2942 33.8412 88.1278 34.0719C87.956 34.286 87.7843 34.4988 87.6378 34.7245C86.7568 36.0591 86.3615 37.6405 86.5146 39.2176C86.6678 40.7947 87.3607 42.2771 88.4833 43.4291C88.7016 43.6645 88.9389 43.8827 89.1929 44.0816C90.5381 45.2135 92.2601 45.8369 94.042 45.8369C95.824 45.8369 97.546 45.2135 98.8911 44.0816C99.1175 43.8636 99.3625 43.6547 99.5835 43.4303L99.5782 43.4291Z" stroke="#2A3C90" stroke-miterlimit="10"/>
<path d="M8.42011 42.7652C6.45304 42.7624 4.56736 42.0044 3.17643 40.6573C1.7855 39.3101 1.00282 37.4836 1 35.5784V34.7131H9.46136C9.06179 35.9489 8.85931 37.2366 8.86089 38.5316C8.8669 39.974 9.12338 41.4052 9.61974 42.7652H8.42011Z" stroke="#2A3C90" stroke-miterlimit="10"/>
<path d="M117.558 34.725C116.617 36.8961 115.09 38.7824 113.139 40.1864C111.187 41.5905 108.882 42.4607 106.464 42.7062C107.395 40.1291 107.441 37.3298 106.597 34.725H117.558Z" stroke="#2A3C90" stroke-miterlimit="10"/>
</svg>
