<svg width="118" height="53" viewBox="0 0 118 53" fill="none" xmlns="http://www.w3.org/2000/svg">
<path d="M44.4938 3.83017C45.3711 2.93608 46.4185 2.22526 47.5749 1.7393C48.7312 1.25335 49.9733 1.002 51.2283 1H97.2548C98.7037 1.00231 100.132 1.33927 101.428 1.98441C102.725 2.62954 103.853 3.56529 104.725 4.71813L115.519 19.0497C116.338 20.1367 116.782 21.4592 116.784 22.8188V23.73H112.965C112.871 23.7178 112.775 23.7258 112.684 23.7533C112.593 23.7809 112.51 23.8275 112.438 23.8899C112.367 23.9523 112.31 24.0292 112.271 24.1154C112.231 24.2015 112.211 24.295 112.211 24.3896C112.211 24.4842 112.231 24.5777 112.271 24.6639C112.31 24.75 112.367 24.8269 112.438 24.8893C112.51 24.9517 112.593 24.9983 112.684 25.0258C112.775 25.0534 112.871 25.0614 112.965 25.0492H116.784V29.4025H112.965C112.871 29.3903 112.775 29.3983 112.684 29.4259C112.593 29.4534 112.51 29.5 112.438 29.5624C112.367 29.6248 112.31 29.7017 112.271 29.7879C112.231 29.8741 112.211 29.9675 112.211 30.0621C112.211 30.1567 112.231 30.2502 112.271 30.3364C112.31 30.4226 112.367 30.4994 112.438 30.5618C112.51 30.6243 112.593 30.6708 112.684 30.6984C112.775 30.7259 112.871 30.7339 112.965 30.7217H116.784V35.2313H104.457C103.445 32.935 101.784 30.9818 99.6769 29.6103C97.5694 28.2389 95.1067 27.5085 92.5895 27.5085C90.0722 27.5085 87.6095 28.2389 85.5021 29.6103C83.3946 30.9818 81.7338 32.935 80.7223 35.2313H35.4692C34.4578 32.935 32.7969 30.9818 30.6895 29.6103C28.582 28.2389 26.1193 27.5085 23.6021 27.5085C21.0848 27.5085 18.6221 28.2389 16.5147 29.6103C14.4072 30.9818 12.7464 32.935 11.7349 35.2313H1V30.8902C0.999884 29.8243 1.19601 28.7673 1.57864 27.7718H8.21744C8.31159 27.784 8.40727 27.776 8.49808 27.7485C8.5889 27.7209 8.67277 27.6744 8.7441 27.6119C8.81543 27.5495 8.87257 27.4727 8.91172 27.3865C8.95087 27.3003 8.97112 27.2068 8.97112 27.1122C8.97112 27.0176 8.95087 26.9242 8.91172 26.838C8.87257 26.7518 8.81543 26.675 8.7441 26.6125C8.67277 26.5501 8.5889 26.5036 8.49808 26.476C8.40727 26.4484 8.31159 26.4404 8.21744 26.4526H2.21737C2.90572 25.2487 3.8662 24.2211 5.02263 23.4514C6.17905 22.6817 7.49961 22.1911 8.87954 22.0184L30.1925 19.38C30.8192 19.3006 31.3943 18.9929 31.8071 18.5164L44.0643 4.28581C44.0913 4.26036 44.1156 4.23209 44.1366 4.20153L44.4938 3.83017ZM37.6024 17.4655C37.6568 17.5816 37.7438 17.6795 37.8527 17.7476C37.9617 17.8156 38.0881 17.8509 38.2167 17.8491H42.6744L42.9159 17.225L47.4938 5.50743L47.3614 5.45976C46.6352 5.87252 45.9901 6.413 45.4575 7.05498L37.6747 16.7572C37.5963 16.8564 37.5479 16.9758 37.5351 17.1014C37.5223 17.2271 37.5456 17.3537 37.6024 17.4666V17.4655ZM93.1075 4.36893H88.3003L91.5896 17.4411L91.7009 17.8612H105.471C105.597 17.8618 105.72 17.8273 105.826 17.7616C105.932 17.696 106.018 17.6018 106.073 17.4899C106.132 17.3786 106.158 17.2528 106.147 17.1275C106.137 17.0022 106.09 16.8825 106.013 16.7826L98.8449 7.23567C98.1775 6.34709 97.3116 5.62555 96.3157 5.12816C95.3199 4.63077 94.2215 4.37121 93.1075 4.37004V4.36893ZM86.2283 4.77689L86.117 4.35675H67.0352L67.0107 4.57289L65.3494 17.8502H89.5177L86.2283 4.77689ZM63.264 17.6462L64.9265 4.37004H51.0747C50.7768 4.37575 50.4795 4.39982 50.1845 4.4421L49.7149 5.64157L44.9389 17.8502H63.2407L63.264 17.6462ZM81.8662 22.2878H85.3158C85.41 22.2999 85.5057 22.292 85.5965 22.2644C85.6873 22.2368 85.7712 22.1903 85.8425 22.1279C85.9138 22.0655 85.971 21.9886 86.0101 21.9024C86.0493 21.8163 86.0695 21.7227 86.0695 21.6282C86.0695 21.5336 86.0493 21.4401 86.0101 21.3539C85.971 21.2678 85.9138 21.1909 85.8425 21.1284C85.7712 21.066 85.6873 21.0195 85.5965 20.9919C85.5057 20.9643 85.41 20.9564 85.3158 20.9686H81.8662C81.6892 20.9686 81.5193 21.0387 81.3941 21.1634C81.2689 21.2881 81.1986 21.4573 81.1986 21.6337C81.1996 21.7202 81.2177 21.8056 81.2519 21.8851C81.286 21.9646 81.3356 22.0366 81.3977 22.0971C81.4598 22.1575 81.5332 22.2051 81.6138 22.2373C81.6944 22.2694 81.7806 22.2855 81.8674 22.2844L81.8662 22.2878ZM57.9628 22.2878H61.4124C61.5065 22.2999 61.6022 22.292 61.693 22.2644C61.7839 22.2368 61.8677 22.1903 61.939 22.1279C62.0104 22.0655 62.0675 21.9886 62.1067 21.9024C62.1458 21.8163 62.1661 21.7227 62.1661 21.6282C62.1661 21.5336 62.1458 21.4401 62.1067 21.3539C62.0675 21.2678 62.0104 21.1909 61.939 21.1284C61.8677 21.066 61.7839 21.0195 61.693 20.9919C61.6022 20.9643 61.5065 20.9564 61.4124 20.9686H57.9628C57.8686 20.9564 57.773 20.9643 57.6821 20.9919C57.5913 21.0195 57.5075 21.066 57.4361 21.1284C57.3648 21.1909 57.3077 21.2678 57.2685 21.3539C57.2294 21.4401 57.2091 21.5336 57.2091 21.6282C57.2091 21.7227 57.2294 21.8163 57.2685 21.9024C57.3077 21.9886 57.3648 22.0655 57.4361 22.1279C57.5075 22.1903 57.5913 22.2368 57.6821 22.2644C57.773 22.292 57.8686 22.2999 57.9628 22.2878V22.2878Z" stroke="#2A3C90" stroke-miterlimit="10"/>
<path d="M4.86799 42.7952C3.84605 42.7949 2.86598 42.3906 2.14305 41.671C1.42011 40.9514 1.01339 39.9754 1.01221 38.9574V36.5352H11.2408C10.6044 38.5561 10.4801 40.7026 10.8792 42.783H4.87016L4.86799 42.7952Z" stroke="#2A3C90" stroke-miterlimit="10"/>
<path d="M80.2176 36.548C79.5708 38.5667 79.4422 40.7148 79.8437 42.7958H36.3265C36.4761 42.0089 36.5528 41.21 36.5557 40.4091C36.5583 39.0992 36.359 37.7966 35.9648 36.5469L80.2176 36.548Z" stroke="#2A3C90" stroke-miterlimit="10"/>
<path d="M12.3859 43.4558C12.3258 43.2396 12.2657 43.0246 12.2167 42.7907C12.0468 42.0064 11.9621 41.2062 11.9641 40.4039C11.9685 39.0868 12.2008 37.7802 12.6507 36.5417C12.7353 36.3133 12.8076 36.0983 12.8922 35.8821C12.9882 35.6546 13.0966 35.4326 13.2171 35.2169C14.1833 33.2958 15.667 31.6804 17.5022 30.5515C19.3374 29.4226 21.4518 28.8247 23.6087 28.8247C25.7656 28.8247 27.88 29.4226 29.7152 30.5515C31.5505 31.6804 33.0342 33.2958 34.0003 35.2169C34.1116 35.4331 34.2296 35.6482 34.3253 35.8821C34.421 36.116 34.4933 36.3255 34.5656 36.5417C35.0156 37.7802 35.2479 39.0868 35.2522 40.4039C35.2542 41.2062 35.1695 42.0064 34.9996 42.7907C34.9518 43.0191 34.8884 43.2341 34.8305 43.4558C34.7726 43.6775 34.6981 43.8993 34.6257 44.121C33.8488 46.4172 32.3683 48.4126 30.3927 49.8262C28.4171 51.2397 26.0461 52.0001 23.6137 52.0001C21.1814 52.0001 18.8104 51.2397 16.8348 49.8262C14.8592 48.4126 13.3786 46.4172 12.6018 44.121C12.5205 43.8993 12.4582 43.6831 12.3859 43.4558ZM16.6267 42.7907C16.6927 43.0188 16.7771 43.2413 16.8793 43.4558C16.9877 43.6838 17.1085 43.9059 17.2409 44.121C17.886 45.2365 18.8147 46.163 19.9336 46.8073C21.0525 47.4515 22.322 47.7907 23.6143 47.7907C24.9066 47.7907 26.1761 47.4515 27.295 46.8073C28.4139 46.163 29.3426 45.2365 29.9877 44.121C30.1201 43.9059 30.2408 43.6838 30.3493 43.4558C30.4461 43.2396 30.5173 43.0246 30.6019 42.7907C30.9799 41.7666 31.1136 40.669 30.9923 39.5846C30.871 38.5002 30.4981 37.4589 29.9031 36.5428C29.7584 36.3145 29.6016 36.0994 29.4335 35.8832C29.2655 35.667 29.0841 35.4276 28.8916 35.2181C28.2038 34.523 27.3841 33.971 26.4802 33.5942C25.5764 33.2175 24.6063 33.0234 23.6265 33.0234C22.6467 33.0234 21.6767 33.2175 20.7729 33.5942C19.869 33.971 19.0493 34.523 18.3614 35.2181C18.1641 35.4258 17.983 35.6481 17.8195 35.8832C17.6515 36.0994 17.4946 36.3145 17.3499 36.5428C16.6187 37.7 16.2263 39.0376 16.2171 40.405C16.2044 41.2204 16.3433 42.0312 16.6267 42.7962V42.7907Z" stroke="#2A3C90" stroke-miterlimit="10"/>
<path d="M103.604 44.1146C102.827 46.4109 101.346 48.4063 99.3706 49.8198C97.395 51.2334 95.024 51.9937 92.5916 51.9937C90.1593 51.9937 87.7883 51.2334 85.8127 49.8198C83.8371 48.4063 82.3565 46.4109 81.5796 44.1146C81.5073 43.8985 81.435 43.6712 81.3749 43.4495C81.3148 43.2277 81.2547 43.0182 81.2057 42.7843C81.0358 42.0001 80.9512 41.1999 80.9532 40.3976C80.9576 39.0804 81.1898 37.7739 81.6397 36.5353C81.7243 36.307 81.7966 36.0919 81.8812 35.8758C81.9772 35.6483 82.0856 35.4262 82.2061 35.2106C83.1723 33.2895 84.656 31.6741 86.4912 30.5451C88.3265 29.4162 90.4408 28.8184 92.5978 28.8184C94.7547 28.8184 96.869 29.4162 98.7043 30.5451C100.539 31.6741 102.023 33.2895 102.989 35.2106C103.101 35.4268 103.219 35.6419 103.314 35.8758C103.41 36.1097 103.483 36.3192 103.556 36.5353C104.006 37.7739 104.238 39.0804 104.242 40.3976C104.244 41.1999 104.16 42.0001 103.99 42.7843C103.942 43.0127 103.878 43.2277 103.821 43.4495C103.763 43.6712 103.688 43.8985 103.604 44.1146ZM98.881 36.5475C98.7364 36.3192 98.5795 36.1041 98.4114 35.888C98.2434 35.6718 98.062 35.4324 97.8695 35.2228C97.1817 34.5277 96.362 33.9757 95.4581 33.599C94.5542 33.2222 93.5842 33.0282 92.6044 33.0282C91.6246 33.0282 90.6546 33.2222 89.7507 33.599C88.8469 33.9757 88.0272 34.5277 87.3394 35.2228C87.142 35.4305 86.9609 35.6529 86.7974 35.888C86.6283 36.1041 86.4725 36.3192 86.3278 36.5475C85.5966 37.7047 85.2042 39.0424 85.195 40.4098C85.2029 41.2241 85.3497 42.0312 85.629 42.7965C85.695 43.0247 85.7795 43.2471 85.8816 43.4616C85.9901 43.6897 86.1108 43.9117 86.2433 44.1268C86.8884 45.2423 87.8171 46.1689 88.936 46.8131C90.0549 47.4573 91.3244 47.7965 92.6167 47.7965C93.909 47.7965 95.1785 47.4573 96.2973 46.8131C97.4162 46.1689 98.345 45.2423 98.9901 44.1268C99.1225 43.9117 99.2433 43.6897 99.3517 43.4616C99.4485 43.2455 99.5209 43.0304 99.6043 42.7965C99.8837 42.0312 100.03 41.2241 100.038 40.4098C100.005 39.0422 99.6057 37.7083 98.881 36.5464V36.5475Z" stroke="#2A3C90" stroke-miterlimit="10"/>
<path d="M116.744 36.5469C116.657 38.2339 115.924 39.8235 114.696 40.9882C113.468 42.1528 111.838 42.8038 110.142 42.807H105.323C105.472 42.0201 105.549 41.2211 105.552 40.4202C105.554 39.1103 105.355 37.8077 104.961 36.558H116.744V36.5469Z" stroke="#2A3C90" stroke-miterlimit="10"/>
</svg>
