<svg width="137" height="49" viewBox="0 0 137 49" fill="none" xmlns="http://www.w3.org/2000/svg">
<g clip-path="url(#clip0_165_7675)">
<path d="M25.9749 47.5593C32.3096 47.5593 37.4449 42.7261 37.4449 36.764C37.4449 30.802 32.3096 25.9688 25.9749 25.9688C19.6402 25.9688 14.5049 30.802 14.5049 36.764C14.5049 42.7261 19.6402 47.5593 25.9749 47.5593Z" stroke="#2A3C90" stroke-miterlimit="10"/>
<path d="M112.595 42.6837C116.069 42.6837 118.885 40.0333 118.885 36.7637C118.885 33.4942 116.069 30.8438 112.595 30.8438C109.121 30.8438 106.305 33.4942 106.305 36.7637C106.305 40.0333 109.121 42.6837 112.595 42.6837Z" stroke="#2A3C90" stroke-miterlimit="10"/>
<path d="M25.655 42.6837C29.1289 42.6837 31.945 40.0333 31.945 36.7637C31.945 33.4942 29.1289 30.8438 25.655 30.8438C22.1811 30.8438 19.365 33.4942 19.365 36.7637C19.365 40.0333 22.1811 42.6837 25.655 42.6837Z" stroke="#2A3C90" stroke-miterlimit="10"/>
<path d="M112.595 47.5593C118.93 47.5593 124.065 42.7261 124.065 36.764C124.065 30.802 118.93 25.9688 112.595 25.9688C106.26 25.9688 101.125 30.802 101.125 36.764C101.125 42.7261 106.26 47.5593 112.595 47.5593Z" stroke="#2A3C90" stroke-miterlimit="10"/>
<path d="M124.945 31.8516H134.295L133.595 35.3245C133.496 35.8291 133.23 36.2912 132.835 36.6446C132.44 36.998 131.936 37.2245 131.395 37.2916L125.905 37.988C125.905 37.5833 125.975 37.188 125.975 36.7739C125.986 35.0847 125.636 33.4106 124.945 31.8516V31.8516Z" stroke="#2A3C90" stroke-miterlimit="10"/>
<path d="M128.505 21.4034C128.298 21.4034 128.1 21.4808 127.953 21.6184C127.807 21.7561 127.725 21.9428 127.725 22.1375C127.725 22.3322 127.807 22.519 127.953 22.6566C128.1 22.7943 128.298 22.8717 128.505 22.8717H134.885C135.131 23.3899 135.3 23.9379 135.385 24.4999H128.505C128.298 24.4999 128.1 24.5772 127.953 24.7149C127.807 24.8526 127.725 25.0393 127.725 25.234C127.725 25.4287 127.807 25.6154 127.953 25.7531C128.1 25.8908 128.298 25.9681 128.505 25.9681H135.415C135.415 26.1093 135.415 26.2505 135.355 26.3917L134.595 30.3822H124.145C122.966 28.4821 121.279 26.9058 119.252 25.8103C117.225 24.7148 114.928 24.1383 112.59 24.1383C110.252 24.1383 107.955 24.7148 105.928 25.8103C103.901 26.9058 102.214 28.4821 101.035 30.3822H37.595C36.4163 28.4821 34.7293 26.9058 32.702 25.8103C30.6746 24.7148 28.3777 24.1383 26.04 24.1383C23.7022 24.1383 21.4053 24.7148 19.3779 25.8103C17.3506 26.9058 15.6636 28.4821 14.485 30.3822H2.04497C1.94781 28.7975 2.4549 27.2322 3.47497 25.9681H10.255C10.4618 25.9681 10.6602 25.8908 10.8065 25.7531C10.9528 25.6154 11.035 25.4287 11.035 25.234C11.035 25.0393 10.9528 24.8526 10.8065 24.7149C10.6602 24.5772 10.4618 24.4999 10.255 24.4999H5.03497C7.61925 22.6019 10.4279 20.9912 13.405 19.6999C18.5546 17.4243 24.176 16.2511 29.865 16.2646H98.355C98.6927 16.2653 99.0273 16.2033 99.3396 16.0822C99.6519 15.961 99.9358 15.7832 100.175 15.5587L102.645 13.234C102.971 12.9243 103.381 12.7039 103.83 12.5961C104.279 12.4884 104.751 12.4974 105.195 12.6222L130.915 19.6528C132.072 19.959 133.113 20.5695 133.915 21.4128L128.505 21.4034Z" stroke="#2A3C90" stroke-miterlimit="10"/>
<path d="M38.345 31.8516H100.235C98.8857 34.8498 98.8248 38.2237 100.065 41.2633L99.375 41.348C99.2618 41.3571 99.1481 41.3571 99.035 41.348H38.475C39.7453 38.2903 39.6987 34.8868 38.345 31.861V31.8516Z" stroke="#2A3C90" stroke-miterlimit="10"/>
<path d="M13.595 31.8501C12.6996 33.8219 12.3554 35.9766 12.595 38.109L5.99495 37.2054C5.55439 37.1427 5.13861 36.9736 4.78812 36.7146C4.43762 36.4556 4.16436 36.1157 3.99495 35.7278C3.29948 34.479 2.73996 33.1672 2.32495 31.8125L13.595 31.8501Z" stroke="#2A3C90" stroke-miterlimit="10"/>
<path d="M82.075 22.918H89.135C89.5658 22.918 89.915 22.5893 89.915 22.1839C89.915 21.7784 89.5658 21.4497 89.135 21.4497H82.075C81.6443 21.4497 81.295 21.7784 81.295 22.1839C81.295 22.5893 81.6443 22.918 82.075 22.918Z" stroke="#2A3C90" stroke-miterlimit="10"/>
<path d="M41.2771 21.6113L43.5893 23.7875C43.8939 24.0742 44.3878 24.0742 44.6924 23.7875C44.997 23.5008 44.997 23.036 44.6924 22.7493L42.3802 20.5731C42.0756 20.2864 41.5817 20.2864 41.2771 20.5731C40.9725 20.8598 40.9725 21.3246 41.2771 21.6113Z" stroke="#2A3C90" stroke-miterlimit="10"/>
<path d="M45.7605 21.6152L48.0727 23.7914C48.3773 24.0781 48.8712 24.0781 49.1758 23.7914C49.4804 23.5048 49.4804 23.0399 49.1758 22.7532L46.8636 20.577C46.559 20.2903 46.0651 20.2903 45.7605 20.577C45.4559 20.8637 45.4559 21.3285 45.7605 21.6152Z" stroke="#2A3C90" stroke-miterlimit="10"/>
<path d="M50.2615 21.6074L52.5737 23.7836C52.8783 24.0703 53.3722 24.0703 53.6768 23.7836C53.9814 23.4969 53.9814 23.0321 53.6768 22.7454L51.3645 20.5692C51.0599 20.2825 50.5661 20.2825 50.2615 20.5692C49.9569 20.8559 49.9569 21.3207 50.2615 21.6074Z" stroke="#2A3C90" stroke-miterlimit="10"/>
<path d="M52.7449 16.2733H63.5949L72.0349 7.55804H68.6449C67.7386 7.53721 66.8433 7.74867 66.0549 8.16981L52.7449 16.2733Z" stroke="#2A3C90" stroke-miterlimit="10"/>
<path d="M104.595 12.5197H99.785C99.0652 12.5122 98.3626 12.7271 97.785 13.1315L93.395 16.2656H98.595L99.385 16.068L99.955 15.7385L101.055 14.7315L102.635 13.235L103.285 12.7927L103.765 12.6138L104.595 12.5197Z" stroke="#2A3C90" stroke-miterlimit="10"/>
</g>
<defs>
<clipPath id="clip0_165_7675">
<rect width="135.81" height="48" fill="white" transform="translate(0.594971 0.5)"/>
</clipPath>
</defs>
</svg>
