<svg width="64" height="64" viewBox="0 0 64 64" fill="none" xmlns="http://www.w3.org/2000/svg">
<path d="M49.5208 2.18004V2.04004H46.0008L45.8808 2.12004C45.6956 2.20757 45.4953 2.25851 45.2908 2.27004C45.1429 2.27953 44.9959 2.29958 44.8508 2.33004C42.5797 2.79155 40.4547 3.79815 38.6589 5.26316C36.8631 6.72818 35.4503 8.6077 34.5422 10.7399C33.634 12.8721 33.2576 15.1931 33.4455 17.5031C33.6334 19.813 34.38 22.0426 35.6208 24C35.6519 24.0495 35.6684 24.1067 35.6684 24.165C35.6684 24.2234 35.6519 24.2806 35.6208 24.33C35.2408 25.45 34.8608 26.58 34.4908 27.7C34.1708 28.64 33.8608 29.59 33.4908 30.53C33.3544 30.8779 33.3302 31.2596 33.4216 31.6219C33.5131 31.9841 33.7156 32.3087 34.0008 32.55C34.2922 32.7882 34.652 32.9273 35.0278 32.947C35.4036 32.9668 35.776 32.8663 36.0908 32.66L38.8008 31.3L42.0908 29.65C42.1519 29.6159 42.2208 29.5979 42.2908 29.5979C42.3608 29.5979 42.4297 29.6159 42.4908 29.65C44.3752 30.4002 46.3979 30.7401 48.424 30.647C50.4501 30.5539 52.4331 30.0299 54.2408 29.11C56.0496 28.1884 57.6415 26.8922 58.9105 25.3077C60.1795 23.7231 61.0966 21.8865 61.6008 19.92C61.638 19.7924 61.6648 19.662 61.6808 19.53C61.6983 19.3273 61.7561 19.1301 61.8508 18.95L61.9408 18.82V14.16V14C61.8091 13.6732 61.6956 13.3394 61.6008 13C61.4998 12.5378 61.3661 12.0833 61.2008 11.64C60.3422 9.12341 58.7905 6.90037 56.7241 5.22679C54.6578 3.55321 52.1609 2.4971 49.5208 2.18004ZM37.8608 28.08C38.0808 27.33 38.3408 26.59 38.6008 25.87L38.9308 24.92C39.086 24.5241 39.138 24.0953 39.0821 23.6737C39.0261 23.2522 38.8639 22.8517 38.6108 22.51C37.3826 20.6915 36.7264 18.5471 36.7266 16.3526C36.7268 14.1581 37.3834 12.0139 38.6119 10.1955C39.8404 8.37714 41.5848 6.96779 43.6206 6.14865C45.6565 5.32951 47.8908 5.13803 50.0364 5.59882C52.1819 6.05961 54.1406 7.15161 55.6606 8.73442C57.1806 10.3172 58.1925 12.3185 58.5661 14.481C58.9396 16.6434 58.6579 18.8682 57.757 20.8692C56.8562 22.8702 55.3774 24.5561 53.5108 25.71C52.0151 26.6562 50.3095 27.2195 48.5446 27.3503C46.7796 27.4811 45.0096 27.1754 43.3908 26.46C43.0046 26.2632 42.5752 26.1665 42.1419 26.1788C41.7086 26.191 41.2853 26.3118 40.9108 26.53C39.9108 27.06 38.9108 27.53 37.9608 28.03L37.8608 28.08Z" fill="#ED1C24"/>
<path d="M40.3092 38.7601L35.2292 43.8501C35.0733 44.0636 34.8743 44.2419 34.6451 44.3736C34.4159 44.5054 34.1616 44.5875 33.8987 44.6149C33.6357 44.6422 33.37 44.6141 33.1186 44.5323C32.8672 44.4505 32.6358 44.3169 32.4392 44.1401C31.4392 43.4801 30.3792 42.7301 29.2493 41.8501C29.0562 41.6856 28.8315 41.5626 28.5889 41.4886C28.3464 41.4146 28.0912 41.3913 27.8393 41.4201C27.629 41.4507 27.4273 41.5242 27.2467 41.636C27.0661 41.7479 26.9104 41.8956 26.7893 42.0701C26.6582 42.2544 26.5656 42.4633 26.5172 42.6843C26.4688 42.9052 26.4655 43.1337 26.5076 43.3559C26.5496 43.5782 26.6361 43.7896 26.7618 43.9777C26.8875 44.1657 27.0499 44.3264 27.2393 44.4501C28.3193 45.3001 29.4493 46.1101 30.5893 46.8501C31.6279 47.6451 32.931 48.0134 34.2322 47.8795C35.5333 47.7457 36.7342 47.1199 37.5892 46.1301L41.7192 42.0001C45.0692 45.3701 48.4292 48.7301 51.8392 52.1301C51.3592 52.5901 50.8993 53.0701 50.4292 53.5401C49.5292 54.4601 48.5892 55.4101 47.6292 56.2801C46.5898 57.2912 45.3095 58.0202 43.9095 58.3982C42.5096 58.7762 41.0363 58.7906 39.6292 58.4401C38.2265 58.0486 36.8815 57.4736 35.6292 56.7301L34.9492 56.3601C22.2409 49.7425 12.1207 39.0519 6.20925 26.0001C5.44319 24.4086 5.18393 22.6203 5.46648 20.8767C5.74902 19.1332 6.55977 17.5183 7.78925 16.2501C8.53925 15.4501 9.31925 14.6801 10.0993 13.9101C10.6793 13.3301 11.2593 12.7501 11.8293 12.1601C15.1626 15.4935 18.4959 18.8468 21.8293 22.2201L21.8792 22.2701C20.5092 23.6001 19.0993 25.0101 17.5592 26.5901C16.7435 27.3766 16.2154 28.4141 16.0594 29.5365C15.9035 30.6588 16.1288 31.801 16.6993 32.7801C17.5168 34.125 18.4221 35.4144 19.4093 36.6401C19.537 36.8158 19.6981 36.9645 19.8834 37.0778C20.0688 37.1911 20.2747 37.2666 20.4893 37.3001C20.8014 37.3563 21.1233 37.3167 21.4125 37.1863C21.7016 37.056 21.9446 36.8412 22.1093 36.5701C22.3182 36.2722 22.4201 35.9124 22.3983 35.5492C22.3765 35.186 22.2323 34.8409 21.9893 34.5701C21.1392 33.4601 20.4193 32.4601 19.8092 31.5101C19.6248 31.3095 19.485 31.0721 19.399 30.8135C19.3129 30.555 19.2826 30.2811 19.31 30.01C19.3374 29.7389 19.4219 29.4767 19.5579 29.2405C19.6939 29.0044 19.8784 28.7998 20.0993 28.6401L22.2992 26.4401L25.2292 23.5101C25.4273 23.3518 25.5872 23.1509 25.697 22.9224C25.8069 22.6939 25.8639 22.4437 25.8639 22.1901C25.8639 21.9366 25.8069 21.6863 25.697 21.4578C25.5872 21.2293 25.4273 21.0284 25.2292 20.8701L13.1793 8.83012C13.0232 8.62872 12.8231 8.4657 12.5943 8.35356C12.3655 8.24141 12.1141 8.18311 11.8593 8.18311C11.6044 8.18311 11.353 8.24141 11.1242 8.35356C10.8954 8.4657 10.6953 8.62872 10.5393 8.83012L9.32925 10.0001C8.05925 11.2501 6.74925 12.5501 5.49925 13.8601C3.36472 16.0384 2.14463 18.9509 2.08925 22.0001C2.04587 23.862 2.42898 25.7091 3.20925 27.4001C9.94203 42.1801 21.7695 54.0431 36.5292 60.8201C38.7118 61.8463 41.153 62.191 43.5343 61.8092C45.9157 61.4275 48.1268 60.3371 49.8792 58.6801C50.6693 57.9301 51.4492 57.1601 52.2192 56.3901L53.5793 55.0001L55.0793 53.4901C55.3041 53.3335 55.4878 53.1249 55.6146 52.882C55.7414 52.6391 55.8077 52.3691 55.8077 52.0951C55.8077 51.8211 55.7414 51.5511 55.6146 51.3083C55.4878 51.0654 55.3041 50.8567 55.0793 50.7001L43.0793 38.7001C42.9173 38.4826 42.7057 38.307 42.4621 38.1879C42.2185 38.0688 41.9499 38.0097 41.6788 38.0156C41.4077 38.0215 41.1419 38.0921 40.9036 38.2216C40.6654 38.3512 40.4616 38.5358 40.3092 38.7601Z" fill="#2B3990"/>
<path d="M23.0989 38.4099C22.8683 38.6292 22.7061 38.9105 22.6317 39.2198C22.5573 39.5292 22.5739 39.8535 22.6796 40.1536C22.7853 40.4538 22.9755 40.7169 23.2273 40.9114C23.4791 41.106 23.7818 41.2235 24.0989 41.2499C24.5427 41.2644 24.9741 41.1026 25.2989 40.7999C25.6041 40.5062 25.7803 40.1034 25.7889 39.6799C25.7925 39.3575 25.7016 39.0412 25.5274 38.7699C25.3532 38.4986 25.1033 38.2843 24.8086 38.1535C24.514 38.0226 24.1875 37.981 23.8694 38.0337C23.5513 38.0863 23.2557 38.2311 23.0189 38.4499L23.0989 38.4099Z" fill="#2B3990"/>
<path d="M41.9298 17.54C42.2301 17.2348 42.405 16.828 42.4198 16.4C42.4228 15.9726 42.2597 15.5606 41.965 15.251C41.6703 14.9413 41.2669 14.7582 40.8398 14.74C40.6212 14.7291 40.4026 14.7634 40.1978 14.8408C39.9931 14.9183 39.8065 15.0371 39.6498 15.19C39.4798 15.3341 39.341 15.5114 39.2418 15.7109C39.1426 15.9104 39.0851 16.1281 39.0728 16.3506C39.0605 16.5731 39.0937 16.7958 39.1704 17.005C39.247 17.2143 39.3655 17.4057 39.5186 17.5676C39.6717 17.7296 39.8561 17.8586 40.0608 17.9469C40.2654 18.0351 40.4858 18.0808 40.7087 18.081C40.9315 18.0812 41.1521 18.036 41.3569 17.9482C41.5616 17.8603 41.7464 17.7317 41.8998 17.57L41.9298 17.54Z" fill="#ED1C24"/>
<path d="M48.8696 17.5101C49.0353 17.3599 49.1686 17.1774 49.2612 16.9738C49.3538 16.7703 49.4037 16.5499 49.408 16.3263C49.4123 16.1027 49.3709 15.8805 49.2861 15.6736C49.2014 15.4666 49.0753 15.2791 48.9154 15.1227C48.7556 14.9662 48.5654 14.8442 48.3566 14.7639C48.1479 14.6837 47.9249 14.647 47.7014 14.6562C47.478 14.6653 47.2587 14.72 47.0572 14.817C46.8557 14.914 46.6761 15.0511 46.5296 15.2201C46.3781 15.3778 46.2602 15.5645 46.1828 15.7691C46.1055 15.9736 46.0704 16.1916 46.0796 16.4101C46.0883 16.7295 46.1907 17.0394 46.3741 17.3011C46.5575 17.5628 46.8138 17.7648 47.1111 17.882C47.4084 17.9992 47.7336 18.0264 48.0462 17.9603C48.3589 17.8942 48.6452 17.7376 48.8696 17.5101Z" fill="#ED1C24"/>
<path d="M55.7812 17.51C55.9339 17.3579 56.0549 17.1771 56.1373 16.978C56.2197 16.7789 56.2618 16.5654 56.2612 16.35C56.2612 16.1312 56.2175 15.9146 56.1326 15.713C56.0477 15.5114 55.9233 15.3288 55.7668 15.1759C55.6102 15.0231 55.4247 14.9032 55.221 14.8231C55.0174 14.7431 54.7999 14.7046 54.5812 14.71C54.1443 14.7307 53.7334 14.923 53.4375 15.2451C53.1417 15.5672 52.9849 15.9929 53.0012 16.43C53.0242 16.8544 53.2092 17.2539 53.5181 17.546C53.8269 17.8381 54.2361 18.0006 54.6612 18C55.0842 17.9892 55.4861 17.8133 55.7812 17.51Z" fill="#ED1C24"/>
</svg>
