<svg width="65" height="64" viewBox="0 0 65 64" fill="none" xmlns="http://www.w3.org/2000/svg">
<g id="new-01 1" clip-path="url(#clip0_2633_2869)">
<path id="Vector" d="M61.8995 44.2001H55.7895V37.9201C55.7868 37.2402 55.5149 36.5891 55.0332 36.1093C54.5515 35.6295 53.8993 35.3601 53.2195 35.3601H47.1495C46.4696 35.3601 45.8174 35.6295 45.3357 36.1093C44.854 36.5891 44.5821 37.2402 44.5795 37.9201V39.3501H38.4995C37.8205 39.3501 37.1694 39.6198 36.6893 40.0999C36.2092 40.58 35.9395 41.2312 35.9395 41.9101V64.0001H64.4995V46.7701C64.4995 46.4301 64.432 46.0934 64.301 45.7796C64.17 45.4659 63.978 45.1812 63.7361 44.9422C63.4943 44.7031 63.2074 44.5144 62.8922 44.3871C62.5769 44.2597 62.2395 44.1961 61.8995 44.2001ZM44.5795 61.4701H38.4295V41.8701H44.5795V61.4701ZM53.2595 61.4701H47.1095V37.8801H53.2595V61.4701ZM61.9295 61.4701H55.7895V46.7301H61.9295V61.4701Z" fill="#ED1C24"/>
<path id="Vector_2" d="M2.95069 34.06C2.39725 34.5629 1.91001 35.1342 1.50069 35.76C0.681984 37.0724 0.344101 38.6283 0.544711 40.162C0.745321 41.6958 1.47199 43.1124 2.60069 44.17L19.9207 61.5C20.3476 61.954 20.8317 62.3507 21.3607 62.68C22.6017 63.5426 24.1046 63.9457 25.6107 63.82C27.3915 63.5041 29.0205 62.6158 30.2507 61.29L33.6207 57.91C33.8446 57.6826 33.9974 57.3948 34.0601 57.0819C34.1229 56.769 34.093 56.4445 33.9741 56.1483C33.8552 55.8522 33.6525 55.5971 33.3908 55.4145C33.129 55.2318 32.8197 55.1295 32.5007 55.12C32.2852 55.1194 32.0717 55.1615 31.8726 55.2439C31.6735 55.3263 31.4927 55.4473 31.3407 55.6L27.6307 59.33C27.2869 59.6874 26.8757 59.973 26.4209 60.1704C25.966 60.3678 25.4765 60.4731 24.9807 60.48C24.4832 60.4721 23.9923 60.3645 23.5371 60.1636C23.0819 59.9626 22.6717 59.6724 22.3307 59.31C15.8407 52.84 10.1707 47.17 4.96069 42C4.58676 41.6598 4.28802 41.2453 4.08359 40.7829C3.87917 40.3205 3.77358 39.8206 3.77358 39.315C3.77358 38.8095 3.87917 38.3095 4.08359 37.8472C4.28802 37.3848 4.58676 36.9702 4.96069 36.63L6.35069 35.27L8.67069 33L34.9307 6.71003C36.0166 5.597 37.3179 4.71702 38.7553 4.12384C40.1927 3.53066 41.7359 3.23674 43.2907 3.26003C46.7207 3.26003 50.2207 3.26003 53.6007 3.26003H57.1307C59.6707 3.26003 61.0107 4.59003 61.0107 7.11003V10.93C61.0107 14.31 61.0107 17.79 61.0107 21.22C61.0258 22.688 60.7469 24.1441 60.1904 25.5026C59.634 26.8611 58.8113 28.0945 57.7707 29.13L55.2807 31.63C55.1271 31.7817 55.0051 31.9623 54.9219 32.1614C54.8387 32.3605 54.7958 32.5742 54.7958 32.79C54.7958 33.0059 54.8387 33.2195 54.9219 33.4187C55.0051 33.6178 55.1271 33.7984 55.2807 33.95C55.5938 34.2432 56.0067 34.4063 56.4357 34.4063C56.8647 34.4063 57.2776 34.2432 57.5907 33.95L59.8007 31.73C60.3483 31.2021 60.8439 30.6228 61.2807 30C63.3282 27.0925 64.4124 23.616 64.3807 20.06C64.3807 17.69 64.3807 15.28 64.3807 12.92C64.3807 11.04 64.3807 9.16003 64.3807 7.27003C64.4005 6.27828 64.2223 5.29254 63.8566 4.37048C63.4909 3.44842 62.9449 2.60856 62.2507 1.90003C61.5689 1.25228 60.7627 0.74985 59.8808 0.423235C58.9989 0.0966198 58.0599 -0.0473626 57.1207 2.98638e-05C53.2907 0.0700299 49.2107 0.0700299 43.8907 2.98638e-05C41.6974 -0.067509 39.5148 0.33173 37.4874 1.1713C35.46 2.01087 33.6341 3.27162 32.1307 4.87003L6.40069 30.62L6.20069 30.46L6.35069 30.66L2.95069 34.06Z" fill="#2B3990"/>
<path id="Vector_3" d="M50.5893 10.8399C50.028 10.8439 49.4804 11.0136 49.0152 11.3277C48.55 11.6417 48.1878 12.0862 47.9742 12.6053C47.7606 13.1243 47.705 13.6949 47.8145 14.2455C47.9239 14.796 48.1935 15.302 48.5893 15.6999C48.9207 16.033 49.3293 16.279 49.7788 16.416C50.2282 16.553 50.7046 16.5768 51.1654 16.4852C51.6262 16.3936 52.0573 16.1894 52.4202 15.891C52.7831 15.5925 53.0665 15.2089 53.2453 14.7744C53.4241 14.3399 53.4927 13.868 53.445 13.4005C53.3973 12.9331 53.2348 12.4847 52.9719 12.0953C52.7091 11.7058 52.354 11.3874 51.9383 11.1684C51.5226 10.9494 51.0592 10.8366 50.5893 10.8399Z" fill="#2B3990"/>
</g>
<defs>
<clipPath id="clip0_2633_2869">
<rect width="64" height="64" fill="white" transform="translate(0.5)"/>
</clipPath>
</defs>
</svg>
