<svg width="65" height="64" viewBox="0 0 65 64" fill="none" xmlns="http://www.w3.org/2000/svg">
<g clip-path="url(#clip0_2633_2859)">
<path d="M47.4199 23.35C47.885 23.35 48.3311 23.166 48.6609 22.838C48.9907 22.5101 49.1773 22.065 49.1799 21.6C49.1799 16.55 49.1799 2.33 49.1799 2.33C49.2482 1.8626 49.167 1.38557 48.9479 0.967097C48.7288 0.548625 48.383 0.210132 47.9599 0L1.67991 0.05C1.2713 0.261008 0.938296 0.593708 0.726918 1.00213C0.51554 1.41056 0.436219 1.87455 0.499914 2.33C0.499914 18.1633 0.499914 33.9933 0.499914 49.82V61.82C0.499914 63.35 1.14991 64 2.69991 64H21.4999H47.4999C47.9587 64 48.3988 63.8177 48.7232 63.4933C49.0476 63.1689 49.2299 62.7288 49.2299 62.27V62.2C49.2273 61.7712 49.0558 61.3606 48.7525 61.0574C48.4493 60.7541 48.0388 60.5826 47.6099 60.58H3.96991C3.954 60.58 3.93874 60.5737 3.92749 60.5624C3.91624 60.5512 3.90991 60.5359 3.90991 60.52V57.84C3.90991 51.1733 3.90991 44.5367 3.90991 37.93V25.87C3.90991 19.3033 3.90991 12.7267 3.90991 6.14V3.45C3.9123 3.43588 3.91966 3.42307 3.93066 3.4139C3.94167 3.40473 3.95559 3.3998 3.96991 3.4H6.65991C18.6599 3.4 30.9199 3.4 43.0499 3.4H45.7299L45.7899 3.46V21.72C45.7925 22.1515 45.9651 22.5646 46.2702 22.8697C46.5753 23.1748 46.9884 23.3474 47.4199 23.35Z" fill="#2B3990"/>
<path d="M63.15 54.3801L61.96 50.8201C61.9451 50.7577 61.9451 50.6926 61.96 50.6301C63.2044 48.7615 64.0171 46.6392 64.3391 44.4174C64.661 42.1955 64.4841 39.9298 63.8213 37.7849C63.1584 35.6399 62.0262 33.6695 60.5068 32.0166C58.9875 30.3638 57.1191 29.07 55.0374 28.2293C52.9557 27.3886 50.7129 27.022 48.4718 27.1562C46.2308 27.2903 44.0477 27.9219 42.0812 29.0049C40.1146 30.088 38.414 31.5954 37.1026 33.4177C35.7913 35.2399 34.9022 37.3314 34.5 39.5401C34.4779 39.6248 34.4512 39.7083 34.42 39.7901V40.0501C34.3129 40.7653 34.2561 41.487 34.25 42.2101C34.2558 42.8794 34.3059 43.5475 34.4 44.2101V44.7701L34.45 44.8401C34.45 44.9001 34.45 44.9601 34.53 45.0301C34.6775 45.7995 34.8882 46.5554 35.16 47.2901C35.16 47.2901 35.16 47.3701 35.21 47.4201C35.37 47.8501 35.54 48.2701 35.74 48.6801L35.83 48.8801C35.97 49.1501 36.1 49.4101 36.25 49.6701C36.2533 49.7 36.2533 49.7302 36.25 49.7601C36.5166 50.2151 36.807 50.6557 37.12 51.0801L37.42 51.4801L37.87 52.0301L38.22 52.4201C38.36 52.5701 38.49 52.7201 38.63 52.8601L39.18 53.3701L39.28 53.4601C39.63 53.7601 39.98 54.0601 40.36 54.3301C40.3887 54.3621 40.4225 54.3891 40.46 54.4101C43.0331 56.2953 46.1402 57.3112 49.33 57.3101C51.3316 57.3096 53.3132 56.9119 55.16 56.1401C55.2503 56.1469 55.3385 56.1706 55.42 56.2101C56.59 56.8101 57.76 57.3901 58.94 57.9801L59.05 58.0401L61.83 59.4301C62.1254 59.6394 62.4818 59.7451 62.8436 59.7306C63.2054 59.7161 63.5522 59.5824 63.83 59.3501C64.0828 59.1053 64.2518 58.7868 64.3129 58.4402C64.3739 58.0936 64.3239 57.7366 64.17 57.4201L63.15 54.3801ZM59.62 55.0001L58.37 54.3801C57.73 54.0701 57.09 53.7401 56.47 53.3801C55.9561 53.0739 55.3475 52.9671 54.76 53.0801C52.0811 54.4138 49.0045 54.7128 46.1189 53.92C43.2333 53.1271 40.7414 51.298 39.12 48.7828C37.4987 46.2675 36.8618 43.2428 37.3311 40.2873C37.8005 37.3318 39.3432 34.6531 41.6641 32.764C43.9849 30.8748 46.9208 29.9077 49.9101 30.0479C52.8993 30.188 55.7319 31.4255 57.8659 33.5235C59.9998 35.6216 61.2851 38.4328 61.4759 41.4192C61.6667 44.4057 60.7496 47.3576 58.9 49.7101C58.7059 50.243 58.7059 50.8272 58.9 51.3601L59.25 52.3601C59.37 52.6701 59.48 52.9901 59.59 53.3101C59.75 53.7801 59.91 54.2501 60.05 54.7301L60.21 55.2801L59.62 55.0001Z" fill="#ED1C24"/>
<path d="M44.3408 43.7801C43.681 43.8421 43.0224 43.6489 42.5008 43.2401C42.0874 42.6941 41.8979 42.011 41.9708 41.3301V38.9301C41.8968 38.2429 42.0862 37.5531 42.5008 37.0001C43.0376 36.5914 43.7096 36.4019 44.3808 36.4701H45.0608C45.7355 36.3973 46.4123 36.5871 46.9508 37.0001C47.381 37.5459 47.5787 38.2394 47.5008 38.9301V41.3301C47.5735 42.0156 47.3802 42.7029 46.9608 43.2501C46.4219 43.6622 45.7454 43.8519 45.0708 43.7801H44.3408ZM44.5708 42.1401H44.8008C44.8997 42.1527 45.0002 42.1401 45.0928 42.1033C45.1855 42.0666 45.2674 42.007 45.3308 41.9301C45.4666 41.5836 45.5247 41.2115 45.5008 40.8401V39.3901C45.5235 39.0507 45.4758 38.7102 45.3608 38.3901C45.2974 38.3132 45.2155 38.2535 45.1228 38.2168C45.0302 38.1801 44.9297 38.1675 44.8308 38.1801H44.6008C44.5019 38.1675 44.4014 38.1801 44.3087 38.2168C44.2161 38.2535 44.1342 38.3132 44.0708 38.3901C43.9589 38.7109 43.9146 39.0513 43.9408 39.3901V40.8401C43.9066 41.2052 43.9509 41.5735 44.0708 41.9201C44.129 41.9957 44.2054 42.0554 44.2927 42.0939C44.3801 42.1323 44.4757 42.1482 44.5708 42.1401ZM45.6708 47.5001L51.8808 36.5001H53.0708L46.8908 47.5001H45.6708ZM53.6708 47.5001C53.3373 47.5802 52.9888 47.5733 52.6588 47.4798C52.3288 47.3864 52.0284 47.2097 51.7863 46.9667C51.5443 46.7237 51.3689 46.4225 51.2768 46.0921C51.1848 45.7617 51.1793 45.4132 51.2608 45.0801V42.6701C51.1881 41.9845 51.3814 41.2972 51.8008 40.7501C52.3287 40.3309 53.0007 40.1369 53.6708 40.2101H54.3608C55.0369 40.139 55.7143 40.3326 56.2508 40.7501C56.6621 41.3009 56.8512 41.9863 56.7808 42.6701V45.0801C56.8719 45.7594 56.6963 46.4475 56.2908 47.0001C55.7542 47.4169 55.0758 47.6071 54.4008 47.5301L53.6708 47.5001ZM53.9008 45.8601H54.1408C54.2387 45.8721 54.3381 45.8602 54.4304 45.8253C54.5227 45.7905 54.6052 45.7338 54.6708 45.6601C54.7903 45.3203 54.8346 44.9587 54.8008 44.6001V43.1401C54.8345 42.7782 54.7902 42.4133 54.6708 42.0701C54.6091 41.9906 54.5278 41.9285 54.4349 41.8899C54.342 41.8514 54.2406 41.8376 54.1408 41.8501H53.9008C53.6408 41.8501 53.4608 41.9201 53.3808 42.0701C53.2565 42.4122 53.2087 42.7775 53.2408 43.1401V44.6001C53.2195 44.9387 53.2636 45.2782 53.3708 45.6001C53.4318 45.6926 53.5176 45.766 53.6184 45.812C53.7192 45.858 53.8309 45.8746 53.9408 45.8601H53.9008Z" fill="#ED1C24"/>
<path d="M35.1009 8.25H14.6209C13.7041 8.25 12.9609 8.99321 12.9609 9.91V9.92C12.9609 10.8368 13.7041 11.58 14.6209 11.58H35.1009C36.0177 11.58 36.7609 10.8368 36.7609 9.92V9.91C36.7609 8.99321 36.0177 8.25 35.1009 8.25Z" fill="#2B3990"/>
<path d="M35.1009 15.6201H14.6209C13.7041 15.6201 12.9609 16.3633 12.9609 17.2801V17.2901C12.9609 18.2069 13.7041 18.9501 14.6209 18.9501H35.1009C36.0177 18.9501 36.7609 18.2069 36.7609 17.2901V17.2801C36.7609 16.3633 36.0177 15.6201 35.1009 15.6201Z" fill="#2B3990"/>
<path d="M35.1009 22.99H14.6209C13.7041 22.99 12.9609 23.7332 12.9609 24.65V24.66C12.9609 25.5768 13.7041 26.32 14.6209 26.32H35.1009C36.0177 26.32 36.7609 25.5768 36.7609 24.66V24.65C36.7609 23.7332 36.0177 22.99 35.1009 22.99Z" fill="#2B3990"/>
<path d="M23.2009 37.73H14.6209C13.7041 37.73 12.9609 38.4732 12.9609 39.39V39.4C12.9609 40.3168 13.7041 41.06 14.6209 41.06H23.2009C24.1177 41.06 24.8609 40.3168 24.8609 39.4V39.39C24.8609 38.4732 24.1177 37.73 23.2009 37.73Z" fill="#2B3990"/>
<path d="M23.2009 45.1001H14.6209C13.7041 45.1001 12.9609 45.8433 12.9609 46.7601V46.7701C12.9609 47.6869 13.7041 48.4301 14.6209 48.4301H23.2009C24.1177 48.4301 24.8609 47.6869 24.8609 46.7701V46.7601C24.8609 45.8433 24.1177 45.1001 23.2009 45.1001Z" fill="#2B3990"/>
</g>
<defs>
<clipPath id="clip0_2633_2859">
<rect width="64" height="64" fill="white" transform="translate(0.5)"/>
</clipPath>
</defs>
</svg>
