<svg width="64" height="64" viewBox="0 0 64 64" fill="none" xmlns="http://www.w3.org/2000/svg">
<g id="ICONS-04" clip-path="url(#clip0_1859_12832)">
<path id="Vector" d="M38.6497 50.3399C35.9804 53.1921 32.8373 55.5604 29.3597 57.3399C28.667 57.6754 27.952 57.9627 27.2197 58.1999C26.5349 58.3187 25.8301 58.2024 25.2197 57.8699C23.1064 57.0019 21.1188 55.8551 19.3097 54.4599C15.3261 51.5073 12.0246 47.7318 9.62972 43.3899C7.61546 39.6639 6.31643 35.5938 5.79972 31.3899C5.58381 29.6383 5.48027 27.8747 5.48972 26.1099V24.5099C5.48972 21.5099 5.48972 18.3599 5.48972 15.2899C12.8829 13.0668 19.9657 9.91853 26.5697 5.91991H26.6597C26.7048 5.93976 26.7483 5.96316 26.7897 5.98991C32.7196 9.52865 39.0166 12.4123 45.5697 14.5899C45.916 14.7077 46.2835 14.7499 46.6475 14.7136C47.0115 14.6774 47.3634 14.5636 47.6797 14.3799C47.9646 14.2271 48.1976 13.993 48.3492 13.7074C48.5007 13.4218 48.5638 13.0976 48.5306 12.776C48.4974 12.4544 48.3692 12.1499 48.1625 11.9013C47.9558 11.6527 47.6799 11.4712 47.3697 11.3799C40.1537 9.02958 33.255 5.79854 26.8297 1.75991C26.778 1.73007 26.7194 1.71436 26.6597 1.71436C26.6 1.71436 26.5414 1.73007 26.4897 1.75991C23.5273 3.64728 20.4515 5.35051 17.2797 6.85991C12.8584 8.96769 8.27332 10.7134 3.56972 12.0799C3.0737 12.1633 2.63062 12.4391 2.33667 12.8472C2.04273 13.2554 1.92165 13.763 1.99972 14.2599V15.5299C1.99972 16.5299 1.99972 17.5299 1.99972 18.5299C1.99972 19.7999 1.99972 21.0799 1.99972 22.3499C1.99972 24.9899 1.99972 27.7199 2.18972 30.4199C2.53652 34.3157 3.48442 38.1342 4.99972 41.7399C6.76555 45.9947 9.31665 49.879 12.5197 53.1899C15.7474 56.6571 19.6555 59.4213 23.9997 61.3099C24.2584 61.41 24.5221 61.4968 24.7897 61.5699C25.0633 61.6312 25.3286 61.7252 25.5797 61.8499L25.7897 61.9599H27.4897L27.6097 61.8299C28.8603 61.5701 30.064 61.1216 31.1797 60.4999C35.0545 58.6245 38.5051 55.977 41.3197 52.7199L41.9997 51.9999C42.4897 51.5799 42.1697 50.6599 41.6897 50.1299C41.5581 49.946 41.389 49.7922 41.1935 49.6784C40.9981 49.5647 40.7808 49.4937 40.5559 49.4701C40.331 49.4464 40.1037 49.4707 39.8889 49.5414C39.6741 49.612 39.4767 49.7274 39.3097 49.8799C39.0781 50.0159 38.8575 50.1697 38.6497 50.3399Z" fill="#2B3990"/>
<path id="Vector_2" d="M61.4788 26.1V19.33C61.5007 18.9909 61.4161 18.6534 61.2368 18.3647C61.0575 18.076 60.7925 17.8506 60.4788 17.72H60.3788H40.2988L40.1588 17.79C39.8734 17.9347 39.638 18.1616 39.4829 18.4415C39.3278 18.7213 39.2602 19.0413 39.2888 19.36C39.2888 26.12 39.2888 32.88 39.2888 39.64V44.76C39.2658 44.9839 39.2956 45.21 39.3759 45.4203C39.4561 45.6306 39.5845 45.8191 39.7507 45.9708C39.917 46.1225 40.1165 46.2331 40.3333 46.2937C40.55 46.3544 40.7779 46.3633 40.9988 46.32H59.8988C60.1161 46.3363 60.3345 46.3056 60.5389 46.2301C60.7434 46.1546 60.9292 46.036 61.0838 45.8823C61.2384 45.7287 61.3582 45.5436 61.435 45.3396C61.5117 45.1356 61.5437 44.9174 61.5288 44.7C61.4888 44.61 61.4788 30.89 61.4788 26.1ZM58.6888 21V43.53H42.1488V43C42.1488 40.1733 42.1488 37.34 42.1488 34.5V29.46C42.1488 26.63 42.1488 23.79 42.1488 20.96V20.46H58.6888V21Z" fill="#ED1C24"/>
<path id="Vector_3" d="M41.8086 43.03H41.8186V42.53H41.8086V43.03Z" fill="white"/>
<path id="Vector_4" d="M41.8186 43.53V43.03H41.8086L41.8186 43.53Z" fill="white"/>
<path id="Vector_5" d="M54.9419 25.46H45.9019C45.2226 25.46 44.6719 26.0107 44.6719 26.69V26.99C44.6719 27.6693 45.2226 28.22 45.9019 28.22H54.9419C55.6212 28.22 56.1719 27.6693 56.1719 26.99V26.69C56.1719 26.0107 55.6212 25.46 54.9419 25.46Z" fill="#ED1C24"/>
<path id="Vector_6" d="M54.9419 30.6101H45.9019C45.2226 30.6101 44.6719 31.1608 44.6719 31.8401V32.1401C44.6719 32.8194 45.2226 33.3701 45.9019 33.3701H54.9419C55.6212 33.3701 56.1719 32.8194 56.1719 32.1401V31.8401C56.1719 31.1608 55.6212 30.6101 54.9419 30.6101Z" fill="#ED1C24"/>
<path id="Vector_7" d="M54.9419 35.78H45.9019C45.2226 35.78 44.6719 36.3307 44.6719 37.01V37.31C44.6719 37.9893 45.2226 38.54 45.9019 38.54H54.9419C55.6212 38.54 56.1719 37.9893 56.1719 37.31V37.01C56.1719 36.3307 55.6212 35.78 54.9419 35.78Z" fill="#ED1C24"/>
</g>
<defs>
<clipPath id="clip0_1859_12832">
<rect width="64" height="64" fill="white"/>
</clipPath>
</defs>
</svg>
