<svg width="65" height="64" viewBox="0 0 65 64" fill="none" xmlns="http://www.w3.org/2000/svg">
<g id="ICONS-06 (1)" clip-path="url(#clip0_2633_2877)">
<path id="Vector" d="M64.5006 13.58C64.4993 12.7623 64.3367 11.9529 64.0223 11.1982C63.7079 10.4434 63.2477 9.75796 62.6682 9.18118C62.0886 8.60439 61.401 8.14754 60.6447 7.83676C59.8884 7.52598 59.0782 7.36737 58.2606 7.37C57.4306 7.37 56.6006 7.37 55.7806 7.37V7.13C55.8111 6.60123 55.7776 6.0707 55.6806 5.55C55.4938 4.40079 54.88 3.36447 53.962 2.64836C53.0439 1.93225 51.8894 1.58917 50.7293 1.68774C49.5691 1.78631 48.489 2.31927 47.705 3.18C46.9209 4.04073 46.4908 5.16575 46.5006 6.33V6.54C46.5258 6.81609 46.5258 7.09391 46.5006 7.37H40.9706C40.7406 7.37 40.7006 7.37 40.5906 7.16C39.9706 6.1 39.3506 5 38.7206 4L37.0006 1.05C36.8092 0.740534 36.541 0.485822 36.2221 0.310602C35.9032 0.135381 35.5444 0.0456078 35.1806 0.0499999C30.0606 0.0166666 24.9272 -7.38073e-08 19.7806 -7.38073e-08C19.4009 -0.0167886 19.0243 0.0749371 18.6949 0.264436C18.3655 0.453935 18.0969 0.733363 17.9206 1.07C17.3006 2.15 16.6706 3.21 16.0406 4.27L14.3506 7.15C14.3236 7.22639 14.271 7.29106 14.2017 7.333C14.1324 7.37495 14.0507 7.39156 13.9706 7.38H12.8006C11.8463 7.31888 10.8883 7.35238 9.94056 7.48C8.98805 7.63435 8.08492 8.00961 7.30349 8.57571C6.52206 9.14181 5.88405 9.88302 5.44056 10.74C5.03196 11.5521 4.8261 12.451 4.84056 13.36V39.86C4.8432 40.3038 5.02136 40.7286 5.33614 41.0415C5.65091 41.3544 6.07672 41.53 6.52056 41.53C6.89278 41.5274 7.24885 41.3776 7.51112 41.1135C7.77339 40.8494 7.92057 40.4922 7.92056 40.12V14C7.92056 13.1089 8.27456 12.2542 8.90468 11.6241C9.5348 10.994 10.3894 10.64 11.2806 10.64H57.8506C58.7417 10.64 59.5963 10.994 60.2264 11.6241C60.8566 12.2542 61.2106 13.1089 61.2106 14V41.69C61.2473 42.1357 61.1861 42.584 61.0315 43.0036C60.8768 43.4232 60.6324 43.804 60.3152 44.1193C59.998 44.4345 59.6158 44.6767 59.1953 44.8288C58.7747 44.981 58.326 45.0394 57.8806 45H22.8806C22.6674 44.9987 22.4562 45.0397 22.259 45.1206C22.0619 45.2016 21.8828 45.3208 21.7321 45.4715C21.5814 45.6222 21.4621 45.8013 21.3812 45.9985C21.3002 46.1956 21.2592 46.4069 21.2606 46.62C21.2606 46.9993 21.4112 47.363 21.6794 47.6312C21.9476 47.8993 22.3113 48.05 22.6906 48.05H58.2806C59.4148 48.0704 60.5326 47.7767 61.5104 47.2014C62.4881 46.6261 63.2876 45.7915 63.8206 44.79C64.244 43.962 64.4763 43.0496 64.5006 42.12C64.5006 31.46 64.5006 22.12 64.5006 13.58ZM18.0406 7.35L18.3106 6.89C19.0306 5.67 19.7306 4.48 20.4206 3.29H34.4206C34.4523 3.28365 34.4852 3.28935 34.513 3.306C34.5407 3.32264 34.5612 3.34903 34.5706 3.38C35.0906 4.29 35.6306 5.2 36.1706 6.11L36.9006 7.35H18.0406ZM52.5006 7.42C52.4406 7.42 49.9006 7.36 49.8006 7.31C49.7006 7.26 49.8006 6.84 49.8006 6.44C49.8075 6.23701 49.8584 6.03796 49.9499 5.85664C50.0415 5.67533 50.1713 5.5161 50.3306 5.39C50.5437 5.21924 50.8075 5.12425 51.0806 5.12C51.1569 5.11027 51.2342 5.11027 51.3106 5.12C52.0406 5.29 52.6906 5.57 52.5006 7.42Z" fill="#2B3990"/>
<path id="Vector_2" d="M27.0407 18.9999C26.8785 18.973 26.7129 18.973 26.5507 18.9999H26.3807C25.0323 19.2607 23.7645 19.8363 22.6807 20.6799C22.5173 20.798 22.3604 20.9248 22.2107 21.0599C21.3949 21.7932 20.7175 22.6671 20.2107 23.6399C19.6996 24.5716 19.3608 25.5879 19.2107 26.6399C19.1625 27.0045 19.1391 27.3721 19.1407 27.7399C19.1461 28.1543 19.1728 28.5682 19.2207 28.9799C19.2395 29.2042 19.3031 29.4225 19.4079 29.6218C19.5127 29.8211 19.6565 29.9973 19.8307 30.1399C20.1163 30.357 20.4739 30.4572 20.8307 30.4199H20.9207C21.1186 30.393 21.3091 30.3269 21.4811 30.2255C21.6531 30.124 21.8031 29.9892 21.9224 29.829C22.0416 29.6688 22.1276 29.4864 22.1754 29.2925C22.2232 29.0986 22.2318 28.8971 22.2007 28.6999C22.0968 27.95 22.1307 27.1875 22.3007 26.4499C22.5974 25.2317 23.2732 24.1393 24.2307 23.3299C25.063 22.62 26.0785 22.1591 27.1607 21.9999C27.5164 21.9367 27.8363 21.7448 28.0595 21.4607C28.2827 21.1767 28.3935 20.8204 28.3707 20.4599C28.3633 20.0967 28.2245 19.7486 27.9799 19.4801C27.7353 19.2116 27.4016 19.041 27.0407 18.9999Z" fill="#ED1C24"/>
<path id="Vector_3" d="M41.4998 24.53C41.2645 23.5742 40.9293 22.6457 40.4998 21.76C39.5605 19.8406 38.1913 18.1637 36.4986 16.8595C34.8059 15.5553 32.8353 14.6589 30.7398 14.24C29.2687 13.9418 27.7585 13.8877 26.2698 14.08C25.3639 14.1927 24.4723 14.4005 23.6098 14.7C21.4381 15.4285 19.4801 16.6825 17.9099 18.3503C16.3398 20.0182 15.2061 22.0483 14.6098 24.26C14.3874 25.1574 14.26 26.0758 14.2298 27C14.2248 27.0799 14.2248 27.16 14.2298 27.24C14.1126 29.2786 14.4584 31.3173 15.2412 33.2032C16.024 35.0892 17.2235 36.7735 18.7498 38.13C18.8098 38.13 18.8198 38.2 18.7498 38.22C18.5498 38.45 14.5598 43.87 14.4198 44.1H14.3698C14.1195 43.903 13.8315 43.7595 13.5236 43.6782C13.2156 43.597 12.8943 43.5797 12.5794 43.6275C12.2645 43.6753 11.9628 43.7871 11.6928 43.9561C11.4229 44.1251 11.1904 44.3476 11.0098 44.61L9.84984 46.22L1.09984 58.31C0.898137 58.6163 0.749395 58.9543 0.659844 59.31L0.589844 59.57L0.729844 60.47L0.789844 60.62C1.13458 61.179 1.60334 61.6512 2.15984 62C2.61984 62.31 3.09984 62.66 3.66984 63.09C4.20986 63.5821 4.88616 63.8994 5.60984 64L6.40984 63.87L6.55984 63.81C7.1496 63.4001 7.64416 62.8681 8.00984 62.25L8.24984 61.91L10.2498 59.08C11.7198 57.08 15.7398 51.48 17.2498 49.41C17.4754 49.1183 17.6366 48.7821 17.7227 48.4235C17.8089 48.065 17.8182 47.6923 17.7498 47.33C17.6974 47.0318 17.5808 46.7487 17.4081 46.5C17.2355 46.2514 17.0109 46.0433 16.7498 45.89C16.8333 45.7744 16.9101 45.6542 16.9798 45.53C17.0898 45.35 21.0498 39.95 21.1598 39.9C21.2698 39.85 21.4498 40.03 21.5698 40.12L21.9298 40.34C23.7726 41.2556 25.7962 41.7495 27.8536 41.7857C29.911 41.8219 31.9507 41.3996 33.8245 40.5493C35.6984 39.699 37.3594 38.4422 38.687 36.87C40.0146 35.2978 40.9754 33.4498 41.4998 31.46C41.6816 30.7672 41.812 30.0619 41.8898 29.35V29.24C41.8898 29.1 41.8898 28.95 41.8898 28.8C41.9843 27.365 41.8527 25.9241 41.4998 24.53ZM14.6098 48.09L14.4998 48.2L5.49984 60.78L3.85984 59.61L4.69984 58.45C5.83984 56.87 9.47984 51.85 10.5998 50.25L13.0298 46.85L13.4998 47.18L13.8798 47.46L14.6298 47.99L14.6098 48.09ZM38.9398 27.35C38.9764 28.0516 38.9429 28.755 38.8398 29.45C38.7429 30.1312 38.5788 30.8011 38.3498 31.45C37.6338 33.4963 36.3238 35.2826 34.5873 36.5805C32.8507 37.8784 30.7666 38.6291 28.6013 38.7364C26.436 38.8438 24.2878 38.303 22.4315 37.1832C20.5751 36.0634 19.0948 34.4154 18.1798 32.45C17.7704 31.5597 17.4845 30.6176 17.3298 29.65C17.0246 27.7476 17.2282 25.7983 17.9198 24C18.2607 23.1172 18.7109 22.2807 19.2598 21.51C20.1175 20.2974 21.2173 19.2759 22.4898 18.51C23.3456 17.9994 24.2676 17.6091 25.2298 17.35C25.5887 17.251 25.9526 17.1708 26.3198 17.11C26.5498 17.11 26.7898 17.04 27.0198 17.02C28.7012 16.856 30.3974 17.0924 31.9698 17.71C33.7427 18.3933 35.3063 19.5278 36.506 21.0011C37.7057 22.4744 38.4999 24.2355 38.8098 26.11C38.878 26.5203 38.9214 26.9344 38.9398 27.35Z" fill="#ED1C24"/>
<path id="Vector_4" d="M54.1198 16.78H48.1498C47.244 16.78 46.5098 17.5143 46.5098 18.42C46.5098 19.3258 47.244 20.06 48.1498 20.06H54.1198C55.0255 20.06 55.7598 19.3258 55.7598 18.42C55.7598 17.5143 55.0255 16.78 54.1198 16.78Z" fill="#2B3990"/>
</g>
<defs>
<clipPath id="clip0_2633_2877">
<rect width="64" height="64" fill="white" transform="translate(0.5)"/>
</clipPath>
</defs>
</svg>
