<svg width="64" height="64" viewBox="0 0 64 64" fill="none" xmlns="http://www.w3.org/2000/svg">
<g id="%D8%A7%D9%85%DA%A9%D8%A7%D9%86_%D9%81%D8%B1%D9%88%D8%B4_%D8%B3%D8%B1%DB%8C%D8%B9%E2%80%8C%D8%AA%D8%B1_%D8%AF%D8%B1_%D8%B4%D8%B9%D8%A8%D9%87_%D8%AD%D8%B6%D9%88%D8%B1%DB%8C02 1" clip-path="url(#clip0_5595_1299)">
<path id="Vector" d="M62.4328 17.8939C60.996 16.9796 32.9144 0.653042 32.9144 0.653042C32.9144 0.653042 32.0001 -1.88053e-05 31.0858 0.653042C30.1715 1.3061 1.43683 16.9796 1.43683 16.9796C1.43683 16.9796 0.522549 17.3714 0.522549 18.9388C0.522549 20.5061 0.522549 61.1265 0.522549 61.1265C0.522549 61.1265 0.391937 63.2163 2.22051 63.2163C4.04908 63.2163 6.79194 63.2163 6.79194 63.2163C6.79194 63.2163 8.4899 63.4775 8.4899 61.1265V34.2204H55.6409V61.5183C55.6409 61.5183 55.3797 63.2163 57.3389 63.2163H62.0409C62.0409 63.2163 63.4776 63.3469 63.4776 61.5183C63.4776 59.6898 63.4776 20.2449 63.4776 20.2449C63.4776 20.2449 63.7389 18.6775 62.4328 17.8939ZM55.6409 31.6081H8.4899V30.0408H55.6409V31.6081ZM55.6409 27.4286H8.4899V25.9918H55.6409V27.4286ZM60.8654 60.6041H58.2532V24.9469C58.2532 24.9469 58.7756 23.1183 56.4246 23.1183C54.0736 23.1183 8.09806 23.1183 8.09806 23.1183C8.09806 23.1183 5.74704 22.8571 5.74704 25.4694C5.74704 28.0816 5.74704 60.6041 5.74704 60.6041H3.13479V20.1143C3.13479 20.1143 3.00418 19.0694 4.04908 18.6775C5.3552 18.1551 31.4776 3.52651 31.4776 3.52651C31.4776 3.52651 32.0001 3.13468 32.5225 3.65712C33.045 4.17957 60.2123 19.853 60.2123 19.853C60.2123 19.853 60.8654 19.9837 60.7348 20.8979V60.6041H60.8654Z" fill="#2B3990"/>
<g id="Group">
<path id="Vector_2" d="M37.3548 48.3266C37.3548 48.3266 37.7466 48.3266 38.9221 48.3266C40.0976 48.3266 40.4895 47.5429 40.4895 47.5429L42.5793 44.4082C45.714 38.7919 50.6772 39.1837 50.6772 39.1837H52.8976C52.8976 39.1837 54.0732 39.3144 54.0732 38.0082C54.0732 36.7021 52.8976 36.8327 52.8976 36.8327H50.6772C44.2772 36.9633 41.9262 41.4042 41.9262 41.4042C41.9262 41.4042 39.1834 45.3225 38.9221 45.7144C38.7915 45.9756 38.6609 45.9756 38.5303 45.9756C39.4446 45.9756 43.4936 45.9756 36.7017 45.9756C29.1262 45.9756 28.7344 53.2899 28.7344 53.2899C28.7344 53.2899 28.7344 55.3797 28.7344 56.947C28.7344 58.5144 30.3017 58.3838 30.3017 58.3838H32.914C32.914 58.3838 33.4364 63.347 37.8772 62.9552C42.318 62.5633 42.3181 58.3838 42.3181 58.3838H52.6364C52.8976 58.3838 53.9425 58.2531 53.8119 57.2082C53.8119 56.0327 52.6364 56.0327 52.6364 56.0327C52.6364 56.0327 42.1874 56.0327 41.9262 56.0327C41.665 56.0327 41.5344 55.7715 41.5344 55.7715V55.6409C40.8813 54.7266 39.967 53.5511 37.7466 53.5511C35.5262 53.4205 33.9589 55.2491 33.8283 55.6409C33.6976 56.1633 33.1752 56.1633 33.1752 56.1633H31.0854V54.596C31.0854 47.9348 37.3548 48.3266 37.3548 48.3266ZM37.7466 56.0327C39.0527 56.0327 40.0976 57.0776 40.0976 58.3838C40.0976 59.6899 39.0527 60.7348 37.7466 60.7348C36.4405 60.7348 35.3956 59.6899 35.3956 58.3838C35.3956 57.0776 36.4405 56.0327 37.7466 56.0327Z" fill="#ED1C24"/>
</g>
<path id="Vector_3" d="M37.7466 59.6899C38.4679 59.6899 39.0527 59.1051 39.0527 58.3838C39.0527 57.6624 38.4679 57.0776 37.7466 57.0776C37.0252 57.0776 36.4404 57.6624 36.4404 58.3838C36.4404 59.1051 37.0252 59.6899 37.7466 59.6899Z" fill="#ED1C24"/>
<path id="Vector_4" d="M52.8981 53.1591H51.8532C51.2002 53.1591 50.6777 52.6367 50.6777 51.9836C50.6777 51.3306 51.2002 50.8081 51.8532 50.8081H52.8981C53.5512 50.8081 54.0737 51.3306 54.0737 51.9836C54.0737 52.6367 53.5512 53.1591 52.8981 53.1591Z" fill="#ED1C24"/>
<path id="Vector_5" d="M54.0737 41.5347C54.0737 39.9674 52.3758 40.3592 52.3758 40.3592H50.286C46.1064 40.3592 44.2778 44.2776 44.2778 44.2776L42.9717 46.498C42.3186 48.3266 43.886 48.3266 43.886 48.3266C43.886 48.3266 51.4615 48.3266 52.8982 48.3266C54.2043 48.3266 54.0737 46.8898 54.0737 46.8898C54.0737 46.8898 54.0737 43.1021 54.0737 41.5347ZM51.7227 45.9755H45.9758C45.9758 45.9755 46.3676 41.9266 51.7227 42.449V45.9755Z" fill="#ED1C24"/>
</g>
<defs>
<clipPath id="clip0_5595_1299">
<rect width="64" height="64" fill="white"/>
</clipPath>
</defs>
</svg>
