<svg width="70" height="13" viewBox="0 0 70 13" fill="none" xmlns="http://www.w3.org/2000/svg">
<path d="M43.8656 3.28802H41.8292C41.6078 3.27418 41.386 3.30566 41.1768 3.3806C40.9677 3.45553 40.7755 3.57239 40.6118 3.72421C40.291 4.13116 40.1393 4.64911 40.1889 5.16785V8.16216C40.1417 8.68067 40.2931 9.19772 40.6118 9.6058C40.7753 9.75801 40.9674 9.87511 41.1766 9.95007C41.3858 10.025 41.6078 10.0563 41.8292 10.042H43.8745C44.0959 10.0558 44.3177 10.0244 44.5269 9.94942C44.736 9.87448 44.9281 9.75762 45.0919 9.6058C45.4127 9.19885 45.5644 8.68091 45.5147 8.16216V5.16785C45.562 4.64934 45.4106 4.1323 45.0919 3.72421C44.9271 3.57126 44.7335 3.45375 44.5227 3.37879C44.312 3.30382 44.0885 3.27294 43.8656 3.28802ZM44.2136 8.16016C44.2136 8.31379 44.1535 8.46113 44.0465 8.56976C43.9394 8.67839 43.7942 8.73942 43.6429 8.73942H42.0549C41.9035 8.73942 41.7584 8.67839 41.6513 8.56976C41.5443 8.46113 41.4842 8.31379 41.4842 8.16016V5.16885C41.4842 5.01522 41.5443 4.86789 41.6513 4.75925C41.7584 4.65062 41.9035 4.58959 42.0549 4.58959H43.6547C43.8061 4.58959 43.9512 4.65062 44.0583 4.75925C44.1653 4.86789 44.2254 5.01522 44.2254 5.16885L44.2136 8.16016Z" fill="#2D419F"/>
<path d="M48.6135 1.20217C48.6135 0.843023 48.3266 0.55188 47.9727 0.55188C47.6189 0.55188 47.332 0.843023 47.332 1.20217V9.38676C47.332 9.74591 47.6189 10.037 47.9727 10.037C48.3266 10.037 48.6135 9.74591 48.6135 9.38676V1.20217Z" fill="#2D419F"/>
<path d="M16.0014 1.7968C16.1355 1.81873 16.2731 1.79696 16.3943 1.73462C16.5154 1.67229 16.614 1.5726 16.6759 1.44987C16.7377 1.32714 16.7596 1.18769 16.7385 1.05153C16.7173 0.915379 16.6541 0.789531 16.5581 0.692066C16.462 0.594601 16.338 0.530532 16.2037 0.50906C16.0695 0.487588 15.9321 0.509813 15.8111 0.572552C15.6901 0.635291 15.5919 0.735312 15.5304 0.85825C15.469 0.981187 15.4475 1.12072 15.4691 1.2568C15.4905 1.39222 15.5534 1.51733 15.649 1.6143C15.7446 1.71127 15.8679 1.77514 16.0014 1.7968Z" fill="#2D419F"/>
<path d="M12.1758 11.191C12.0407 11.1691 11.9023 11.1911 11.7803 11.2539C11.6583 11.3167 11.559 11.4171 11.4968 11.5407C11.4345 11.6643 11.4124 11.8047 11.4336 11.9418C11.4549 12.0789 11.5184 12.2057 11.615 12.3039C11.7117 12.4021 11.8365 12.4668 11.9716 12.4886C12.1067 12.5104 12.2452 12.4882 12.3671 12.4253C12.489 12.3623 12.5882 12.2618 12.6503 12.1382C12.7125 12.0145 12.7344 11.8741 12.713 11.737C12.6918 11.6001 12.6284 11.4735 12.5319 11.3754C12.4354 11.2773 12.3107 11.2128 12.1758 11.191Z" fill="#2D419F"/>
<path d="M10.1016 11.1908C9.96652 11.1689 9.82805 11.1909 9.70606 11.2537C9.58407 11.3165 9.48481 11.4169 9.42254 11.5405C9.36027 11.6641 9.33817 11.8045 9.35942 11.9416C9.38067 12.0787 9.44418 12.2055 9.54083 12.3037C9.63748 12.4019 9.76231 12.4666 9.89742 12.4884C10.0325 12.5102 10.171 12.488 10.2929 12.4251C10.4148 12.3621 10.514 12.2616 10.5761 12.138C10.6383 12.0143 10.6602 11.8739 10.6388 11.7368C10.6176 11.5999 10.5542 11.4733 10.4577 11.3752C10.3612 11.2772 10.2365 11.2126 10.1016 11.1908Z" fill="#2D419F"/>
<path d="M16.1746 3.28117H16.0248C15.8734 3.28117 15.7282 3.3422 15.6212 3.45083C15.5142 3.55946 15.454 3.7068 15.454 3.86042V8.63452H12.7206V3.86442C12.7206 3.7108 12.6605 3.56346 12.5535 3.45483C12.4465 3.3462 12.3013 3.28517 12.1499 3.28517H12.0001C11.8487 3.28517 11.7036 3.3462 11.5965 3.45483C11.4895 3.56346 11.4294 3.7108 11.4294 3.86442V8.63452H8.65655V6.42655C8.70361 5.90806 8.55218 5.39109 8.23367 4.98291C8.07042 4.83036 7.87834 4.71304 7.66908 4.63806C7.45983 4.56309 7.23775 4.53201 7.01632 4.54672H1.27453L1.36324 4.23559C1.54722 3.59809 1.90461 3.02618 2.39439 2.58553C2.88417 2.14489 3.48647 1.85338 4.13212 1.74449C4.26613 1.72309 4.38824 1.65394 4.47657 1.54944C4.5649 1.44494 4.61367 1.31192 4.61413 1.17424V1.0802C4.61396 0.995929 4.59574 0.912698 4.56073 0.836283C4.52571 0.759868 4.47475 0.692091 4.41136 0.637656C4.34797 0.58322 4.27368 0.543425 4.19364 0.521027C4.11359 0.49863 4.0297 0.494165 3.94779 0.507945C2.86317 0.681315 1.87325 1.23652 1.15146 2.07628C0.429667 2.91604 0.0220426 3.9868 0 5.10097V5.77927C0.000615815 5.79737 0.00802036 5.81454 0.0206999 5.82728C0.0279703 5.83505 0.0369218 5.84099 0.0468446 5.84463C0.0567674 5.84828 0.0673878 5.84954 0.07787 5.8483H6.79453C6.9459 5.8483 7.09106 5.90933 7.1981 6.01796C7.30513 6.12659 7.36526 6.27392 7.36526 6.42755V8.63452H0.584527C0.433161 8.63452 0.287996 8.69555 0.180964 8.80418C0.0739311 8.91281 0.0137999 9.06015 0.0137999 9.21377V9.35683C0.0137999 9.51046 0.0739311 9.6578 0.180964 9.76643C0.287996 9.87506 0.433161 9.93609 0.584527 9.93609H15.1002C15.3216 9.95074 15.5437 9.91964 15.7529 9.84467C15.9621 9.76969 16.1542 9.6524 16.3175 9.4999C16.6348 9.09105 16.786 8.57461 16.7404 8.05627V3.86342C16.7404 3.71083 16.6811 3.56439 16.5753 3.45593C16.4696 3.34747 16.3259 3.28575 16.1756 3.28417L16.1746 3.28117Z" fill="#2D419F"/>
<path d="M35.815 3.28832H33.7785C33.5572 3.27448 33.3353 3.30596 33.1262 3.38089C32.9171 3.45583 32.7249 3.57269 32.5612 3.72451C32.2404 4.13146 32.0886 4.6494 32.1383 5.16815V8.74072H30.3049V6.53275C30.352 6.01364 30.2006 5.49605 29.882 5.08711C29.7188 4.93456 29.5267 4.81724 29.3174 4.74226C29.1082 4.66728 28.8861 4.63621 28.6647 4.65092H22.981L23.0796 4.30677C23.2595 3.67223 23.6144 3.10315 24.1026 2.66671C24.5908 2.23028 25.1918 1.9447 25.8347 1.84369C25.9699 1.82332 26.0935 1.75434 26.1828 1.64932C26.2722 1.5443 26.3214 1.4102 26.3216 1.27143V1.1814C26.3214 1.09732 26.3032 1.01429 26.2683 0.93804C26.2334 0.861789 26.1827 0.794135 26.1195 0.739734C26.0563 0.685332 25.9823 0.645483 25.9025 0.622937C25.8227 0.600392 25.739 0.595687 25.6572 0.609145C24.5718 0.78097 23.5807 1.33566 22.8583 2.1757C22.1359 3.01574 21.7284 4.08736 21.7075 5.20216V5.88246C21.7084 5.90049 21.7157 5.91757 21.7282 5.93048C21.7355 5.93825 21.7444 5.94419 21.7543 5.94783C21.7643 5.95148 21.7749 5.95273 21.7854 5.95149H28.4527C28.6041 5.95149 28.7493 6.01252 28.8563 6.12115C28.9633 6.22978 29.0235 6.37712 29.0235 6.53075V8.73872H19.8701V1.12137C19.8701 0.967743 19.81 0.820406 19.703 0.711775C19.5959 0.603144 19.4508 0.542114 19.2994 0.542114H19.1496C18.9982 0.542114 18.853 0.603144 18.746 0.711775C18.639 0.820406 18.5788 0.967743 18.5788 1.12137V8.15946C18.5315 8.67798 18.6829 9.19506 19.0017 9.6031C19.1652 9.75531 19.3573 9.87241 19.5665 9.94736C19.7757 10.0223 19.9977 10.0536 20.2191 10.0393H35.8249C36.045 10.0538 36.2657 10.0226 36.4734 9.94762C36.6812 9.87262 36.8718 9.75539 37.0334 9.6031C37.3492 9.19375 37.4985 8.67709 37.4503 8.15946V5.16815C37.4975 4.65061 37.3484 4.13428 37.0334 3.72451C36.8703 3.57139 36.6781 3.45372 36.4686 3.37871C36.2591 3.3037 36.0367 3.27295 35.815 3.28832ZM36.163 8.16046C36.163 8.31409 36.1029 8.46142 35.9958 8.57006C35.8888 8.67869 35.7436 8.73972 35.5923 8.73972H33.9974C33.846 8.73972 33.7008 8.67869 33.5938 8.57006C33.4868 8.46142 33.4267 8.31409 33.4267 8.16046V5.16915C33.4267 5.01552 33.4868 4.86818 33.5938 4.75955C33.7008 4.65092 33.846 4.58989 33.9974 4.58989H35.5923C35.7436 4.58989 35.8888 4.65092 35.9958 4.75955C36.1029 4.86818 36.163 5.01552 36.163 5.16915V8.16046Z" fill="#2D419F"/>
<path d="M69.5686 3.7239C69.4051 3.57164 69.213 3.45451 69.0038 3.37955C68.7946 3.30459 68.5726 3.27334 68.3512 3.2877H62.289C62.0676 3.27334 61.8457 3.30459 61.6365 3.37955C61.4272 3.45451 61.2351 3.57164 61.0717 3.7239C60.7555 4.13301 60.6065 4.64995 60.6557 5.16753V8.7401H58.8124V5.16753C58.8597 4.64903 58.7083 4.13198 58.3896 3.7239C58.2261 3.57169 58.034 3.45458 57.8248 3.37962C57.6156 3.30466 57.3936 3.2734 57.1722 3.2877H55.1337C54.9124 3.27386 54.6906 3.30534 54.4814 3.38028C54.2723 3.45521 54.0801 3.57207 53.9164 3.7239C53.5956 4.13085 53.4438 4.64879 53.4935 5.16753V8.7401H51.7192V5.20655C51.7192 5.03408 51.6517 4.86868 51.5316 4.74672C51.4114 4.62477 51.2485 4.55626 51.0785 4.55626C50.9086 4.55626 50.7456 4.62477 50.6255 4.74672C50.5053 4.86868 50.4378 5.03408 50.4378 5.20655V8.57903C50.4378 8.61104 50.426 8.75611 50.422 8.79413V8.85215C50.3597 9.37639 50.1804 9.8793 49.8977 10.3226C49.615 10.7659 49.2364 11.1379 48.7907 11.4103C48.6806 11.5241 48.6184 11.6769 48.6172 11.8365C48.6175 11.9563 48.6497 12.0739 48.7105 12.1767C48.7712 12.2795 48.8582 12.3637 48.9622 12.4205C49.0662 12.4773 49.1834 12.5045 49.3014 12.4992C49.4194 12.494 49.5338 12.4565 49.6325 12.3907C49.9262 12.1989 50.1974 11.9737 50.4408 11.7194C50.8623 11.2257 51.1916 10.6582 51.4127 10.0447H68.3532C68.5745 10.0585 68.7964 10.027 69.0055 9.9521C69.2146 9.87716 69.4068 9.76031 69.5705 9.60848C69.8913 9.20153 70.0431 8.68359 69.9934 8.16484V5.16353C70.0328 4.64675 69.8814 4.13358 69.5686 3.7239ZM57.529 8.09782C57.529 8.26773 57.4626 8.43068 57.3443 8.55092C57.226 8.67115 57.0656 8.73884 56.8982 8.7391H55.4196C55.2522 8.73884 55.0917 8.67115 54.9735 8.55092C54.8552 8.43068 54.7887 8.26773 54.7887 8.09782V5.23056C54.7887 5.06065 54.8552 4.89769 54.9735 4.77745C55.0917 4.65722 55.2522 4.58954 55.4196 4.58928H56.8982C57.0656 4.58954 57.226 4.65722 57.3443 4.77745C57.4626 4.89769 57.529 5.06065 57.529 5.23056V8.09782ZM64.6764 8.09782C64.6764 8.18203 64.6601 8.26543 64.6283 8.34323C64.5966 8.42103 64.55 8.49173 64.4914 8.55127C64.4327 8.61082 64.3631 8.65805 64.2864 8.69028C64.2097 8.72251 64.1276 8.7391 64.0446 8.7391H62.5788C62.4113 8.7391 62.2506 8.67154 62.1321 8.55127C62.0136 8.43101 61.947 8.2679 61.947 8.09782V5.23056C61.947 5.06048 62.0136 4.89737 62.1321 4.7771C62.2506 4.65684 62.4113 4.58928 62.5788 4.58928H64.0446C64.1276 4.58928 64.2097 4.60587 64.2864 4.63809C64.3631 4.67032 64.4327 4.71755 64.4914 4.7771C64.55 4.83665 64.5966 4.90734 64.6283 4.98515C64.6601 5.06295 64.6764 5.14634 64.6764 5.23056V8.09782ZM68.709 8.09782C68.709 8.26773 68.6426 8.43068 68.5243 8.55092C68.406 8.67115 68.2456 8.73884 68.0782 8.7391H66.5996C66.4322 8.73884 66.2717 8.67115 66.1534 8.55092C66.0352 8.43068 65.9687 8.26773 65.9687 8.09782V5.23056C65.9687 5.06065 66.0352 4.89769 66.1534 4.77745C66.2717 4.65722 66.4322 4.58954 66.5996 4.58928H68.0782C68.2456 4.58954 68.406 4.65722 68.5243 4.77745C68.6426 4.89769 68.709 5.06065 68.709 5.23056V8.09782Z" fill="#2D419F"/>
</svg>
